<?xml version="1.0" encoding="UTF-8" standalone="no"?>
<svg width="411px" height="424px" viewBox="0 0 411 424" version="1.1" xmlns="http://www.w3.org/2000/svg" xmlns:xlink="http://www.w3.org/1999/xlink" xmlns:sketch="http://www.bohemiancoding.com/sketch/ns">
    <!-- Generator: Sketch 3.3.3 (12081) - http://www.bohemiancoding.com/sketch -->
    <title>Group</title>
    <desc>Created with Sketch.</desc>
    <defs></defs>
    <g id="Page-1" stroke="none" stroke-width="1" fill="none" fill-rule="evenodd" sketch:type="MSPage">
        <g id="Group" sketch:type="MSLayerGroup" fill="#20F61F">
            <path d="M204.012825,388.581955 C204.044788,374.664636 201.735452,360.19574 213.841489,349.228158 C214.816365,348.340839 215.263848,346.334378 215.183941,344.895483 C213.457931,315.741857 225.444106,287.667403 222.599388,258.649673 C220.897351,241.279004 222.982945,224.092194 221.928162,206.83344 C221.640494,202.093078 220.697581,200.206526 215.143987,201.22974 C171.138742,209.367495 136.666503,195.098446 113.125655,156.512059 C110.824309,152.738955 108.091461,153.41044 105.046973,153.418434 C85.6293691,153.482385 66.7950926,151.276078 50.2781433,139.716949 C45.7713415,136.567366 41.2485581,137.87836 36.5979221,139.605035 C30.956429,141.699428 25.4268069,144.657158 19.0901157,143.681906 C15.1266871,143.066378 11.402982,141.419642 10.2842724,137.334777 C9.10163642,133.002102 12.0502355,130.396102 15.4942631,128.15782 C25.4028346,121.722759 25.4347977,118.812992 15.9177747,111.794378 C10.555959,107.837415 4.29917559,104.727802 1.46244748,98.2128018 C-0.918805981,92.7689797 -1.19049262,87.5489858 6.85622628,87.7568263 C13.2328714,87.9246975 12.4417839,85.1188508 11.0274152,80.8980901 C9.80482536,77.2368999 8.94981153,73.0800901 12.2739774,70.1303539 C15.5501986,67.220587 18.9942263,69.594765 21.9747885,71.2974582 C24.7475903,72.8722496 26.3537378,72.6484214 28.2075995,69.8505686 C32.9381433,62.6960594 37.7645765,65.5898386 42.2154429,70.2822374 C47.1058023,75.4462742 51.029277,81.4816423 53.2826779,88.0765809 C56.4550189,97.3174889 62.2962816,101.25047 71.8053138,102.833256 C91.1589913,106.046789 89.5608346,106.374538 91.646429,87.3411453 C93.4763184,70.6099858 87.8827701,54.9979674 88.1145028,38.6425196 C88.2103922,32.0955441 89.912429,27.5710165 94.3393231,23.6780042 C97.3838115,20.9920656 100.676014,16.6513969 101.379203,25.8763171 C101.906595,32.7990042 107.811784,29.0418877 109.417931,26.6117527 C114.635913,18.7377956 120.52512,13.3739122 130.769305,13.5257956 C134.628853,13.5817527 136.506687,8.84139073 138.87995,5.8996484 C141.381065,2.82201036 145.472346,-1.47868903 148.125286,0.5037895 C157.898014,7.76221895 173.128447,4.02908398 179.944586,16.7233416 C180.815581,18.3460962 182.33383,19.7450226 183.836097,20.8801515 C204.87583,36.8279122 211.060696,55.6374766 201.639563,81.1938631 C198.898724,88.6281576 202.294807,94.0400042 202.997996,100.33917 C203.301646,103.033102 206.473987,102.641403 208.591544,102.921188 C232.404079,106.062777 255.697212,107.869391 279.373904,99.0921269 C316.802733,85.2147772 357.180162,126.375188 356.692724,158.054875 C356.588844,164.705771 357.939286,166.512385 364.363876,164.441974 C367.640097,163.394777 371.291885,163.170949 374.775867,163.178943 C390.086208,163.218912 395.943452,169.166348 394.760816,184.746391 C394.409222,189.326875 397.397775,189.222955 399.347526,190.509967 C413.051719,199.543035 414.010613,207.025293 402.503885,218.616397 C400.490208,220.646839 401.457093,222.773207 401.43312,224.867599 C401.305268,236.362777 401.728779,247.897924 398.916024,259.185262 C398.228816,261.959133 397.493664,264.788961 396.271074,267.346998 C393.642106,272.830789 389.782558,276.971612 383.038337,276.555931 C376.174254,276.14025 373.2736,271.327943 371.419738,265.524397 C371.13207,264.613096 370.540752,263.573894 370.740521,262.75852 C374.312401,248.433513 363.732604,249.384783 354.854844,246.52298 C345.13006,243.381391 335.277424,241.710673 325.44077,239.464397 C303.546024,234.460237 292.838374,218.472507 287.764226,197.96025 C286.725424,193.755477 285.710595,191.517194 280.788272,190.901667 C273.260954,189.966385 270.05665,191.54917 270.05665,199.958716 C270.05665,214.595483 271.287231,229.607961 265.805553,243.581237 C263.464254,249.536667 260.963139,254.780642 262.089839,261.511477 C262.665176,264.956832 262.968825,267.986507 264.838669,271.176059 C269.321498,278.842176 267.132024,284.533808 258.621839,287.171783 C252.285148,289.138274 248.01807,296.228832 239.643729,294.038513 C238.037581,293.614839 235.120945,300.657434 235.288752,304.782268 C235.808153,317.740323 236.90289,330.674397 237.61407,343.624458 C237.765894,346.334378 238.293286,348.96436 240.322945,350.547145 C249.688143,357.821563 250.071701,368.021734 249.536318,378.397771 C248.905047,390.51647 247.682457,402.603194 247.035203,414.721894 C246.843424,418.303145 244.925636,419.853955 242.152835,420.973096 C237.670005,422.77971 233.019369,423.706998 228.160973,423.858882 C209.598383,424.43444 206.601839,421.900385 205.08359,403.890207 C204.652088,398.790121 204.36442,393.682041 204.012825,388.581955 L204.012825,388.581955 Z M315.564162,228.600734 C316.275341,229.887747 317.713682,230.319415 318.576687,229.559998 C319.959093,228.344931 318.009341,227.809342 317.521904,226.953998 C308.132733,213.020691 299.606567,198.647722 296.122586,181.261066 C285.734567,193.219888 297.512982,220.271127 315.564162,228.600734 L315.564162,228.600734 Z M138.136807,158.574477 C137.521517,158.134814 136.594586,157.183544 136.33089,157.343421 C134.660816,158.342655 136.235,159.07809 136.714447,159.901458 C141.101388,166.776182 147.925517,169.973728 155.324982,172.395869 C161.677655,174.46628 166.208429,178.495188 169.021185,184.978213 C146.479185,177.663826 130.769305,163.522679 120.357314,143.346164 C129.163157,148.893906 139.926742,149.333569 148.500853,156.935734 C156.867203,164.362035 173.639858,152.874851 173.512005,141.091894 C173.440088,134.281121 169.924143,138.302035 167.415037,139.18136 C166.967553,138.613796 166.512079,138.046231 166.064595,137.478667 C175.19806,128.245753 179.489111,114.680164 192.793765,108.972544 C197.476365,106.974078 198.866761,100.395127 196.173867,96.2862803 C191.786927,89.5874214 194.016355,83.4960962 196.525461,77.9003907 C202.174945,65.3020594 201.679517,52.9435441 196.565415,40.7289183 C191.30748,28.1545686 177.874973,23.1504091 169.508623,13.3339429 C168.677581,12.3506975 166.480116,12.0948938 164.969858,12.2148018 C160.846613,12.5425502 157.482494,11.1196423 154.422024,8.57759318 C147.973461,3.23769134 143.642457,5.3960349 140.214411,12.2787527 C138.87995,14.9407097 137.897083,19.6730778 134.205341,18.7617772 C123.385821,16.0918263 118.567378,23.2223539 113.093692,30.0251331 C109.937332,33.9501208 106.021848,36.7159981 100.652042,33.7502742 C98.5744383,32.6071515 97.1041341,28.7541085 94.5151203,30.5687159 C91.8062447,32.4712558 92.1098945,36.3402864 92.6612585,39.4978631 C93.5322539,44.5739674 94.5870373,49.9458447 100.412318,51.648538 C106.629148,53.4631453 109.697609,48.9945748 112.494383,44.5180104 C113.844825,42.3516729 115.059424,40.0894091 116.529729,38.0110042 C119.582208,33.7103048 123.122125,31.1122987 128.499922,34.7015441 C133.094623,37.7711883 136.850291,35.9246055 140.398199,32.4472742 C145.384447,27.5550288 150.442613,27.1793171 155.109231,32.9428938 C159.767858,38.6984766 164.28265,41.9599735 172.03371,36.7399797 C176.132982,33.9820962 182.13406,34.5256791 186.033563,39.090176 C188.8623,42.3996361 190.764106,46.9001821 188.087194,50.5533785 C184.507323,55.4456239 183.892033,58.7311024 188.742438,63.1996729 C190.756116,65.0542496 190.500411,69.2909981 187.599756,71.7531085 C186.065526,73.0641024 182.477664,72.9601821 182.597526,72.2407343 C183.588383,66.1254275 173.807664,61.7607772 179.968558,54.9340165 C183.140899,51.4167159 185.066678,47.0041024 181.854383,42.7593601 C178.706014,38.618538 173.959489,40.3771883 170.387609,42.111857 C164.266669,45.0775809 159.504162,44.2702005 155.141194,39.1861024 C154.142346,38.026992 152.584143,36.723992 151.201738,36.6200717 C141.397047,35.9006239 132.2476,42.3756545 122.179212,39.3779551 C113.756927,51.5765932 98.9340235,58.6991269 96.9523092,76.1897036 C93.9238023,102.921188 100.548162,125.351974 120.557083,143.569992 C119.430383,146.056084 111.000106,140.876059 115.043443,148.590139 C128.340106,173.970661 148.604733,190.661851 176.708318,197.352716 C179.337286,197.976237 180.304171,197.024967 179.201443,194.40298 C179.441166,194.099213 179.68089,193.80344 179.928604,193.515661 C190.452466,199.423127 201.10418,200.678164 212.363194,194.71474 C209.989931,190.757777 206.162346,189.686599 202.910097,187.903967 C196.781166,184.554538 190.204752,181.900575 185.034715,177.048299 C181.478816,173.722851 177.675203,169.693943 181.087268,164.649814 C191.659074,149.037796 190.020964,130.116317 195.69442,113.001452 C186.944512,118.205458 179.944586,124.592556 178.801904,135.256372 C178.15465,141.323716 177.155802,147.223188 174.37501,152.714974 C168.190143,164.953581 156.883185,168.558814 144.833083,162.115759 C142.611646,160.924673 140.374226,159.749575 138.136807,158.574477 L138.136807,158.574477 Z M350.603747,164.961575 C352.082042,133.697569 322.636005,102.577452 292.103222,102.937176 C289.705987,102.961158 286.549627,101.826029 285.191194,104.671845 C283.784816,107.613587 286.901222,109.148409 288.387507,110.963016 C300.917056,126.247286 305.967231,143.93771 301.236687,162.851194 C298.360005,174.370354 300.205876,184.034937 304.648752,194.131188 C316.986521,222.165673 337.027406,240.183845 368.423194,243.717133 C372.442558,244.164789 375.918549,244.0209 378.827194,240.71144 C386.266613,232.245937 392.643259,223.236851 394.944604,211.885563 C397.853249,197.576544 394.449176,191.277378 381.016669,185.809575 C375.766724,183.675213 371.211977,181.820636 374.128613,190.725802 C374.743904,192.596366 375.702798,194.746716 373.225655,195.514127 C371.004217,196.201599 370.045323,193.835415 369.326153,192.220655 C367.504254,188.159771 366.273673,183.819102 364.20406,179.910102 C362.518005,176.736538 361.199526,170.709164 355.83771,177.256139 C353.664217,179.902109 351.594604,177.791728 351.187074,175.409556 C350.603747,171.996176 350.763563,168.4469 350.603747,164.961575 L350.603747,164.961575 Z M270.112586,184.242777 C276.27348,160.580937 276.489231,137.502648 264.0316,115.783317 C263.112659,114.192538 262.129793,112.042188 259.828447,112.537808 C249.056871,114.88001 239.036429,110.627274 228.672383,109.308286 C215.471609,107.621581 209.286742,112.441882 206.513941,125.735679 C203.948899,137.98228 207.52877,149.381532 212.698807,159.973403 C224.437268,184.010955 232.332162,208.440207 225.747756,235.555397 C225.17242,237.913587 224.501194,240.983231 227.529701,242.334194 C237.470235,246.770789 247.850263,247.418293 258.406088,245.028127 C261.234825,244.388618 260.987111,241.614747 261.298752,239.536342 C265.469941,211.925532 268.698217,184.370679 256.520263,157.679164 C254.538549,153.346489 253.180116,148.726035 251.621913,144.209501 C250.886761,142.091127 250.007775,139.437164 252.500899,138.246078 C255.425526,136.847151 256.120724,139.900808 257.007701,141.747391 C257.822761,143.44209 258.214309,145.352624 258.765673,147.175225 C262.553305,159.525747 266.332945,171.884262 270.112586,184.242777 L270.112586,184.242777 Z M93.6680972,147.470998 C110.336871,148.462237 111.990964,146.383832 106.685083,136.567366 C99.3255719,122.94582 93.6441249,106.918121 73.1158023,108.892605 C70.4388899,109.148409 67.5142631,107.781458 64.8373507,106.798213 C58.2369636,104.376072 52.8112217,103.64863 49.6149083,112.122127 C45.8192862,122.194397 46.7621986,129.436839 54.0737654,133.849452 C67.9457654,142.211035 83.0803092,146.639636 93.6680972,147.470998 L93.6680972,147.470998 Z M243.862862,411.148636 C216.190779,413.115127 218.484134,417.791538 216.246715,389.341372 C215.016134,373.769323 215.407682,373.737348 231.109572,373.377624 C232.380106,373.345648 233.674613,373.345648 234.921176,373.153796 C244.302355,371.698912 247.554604,366.902593 241.857176,359.676139 C235.768199,351.954066 235.288752,343.424612 232.603848,334.975096 C230.27054,327.62074 231.421212,321.113734 231.39724,314.286974 C231.381259,310.72171 230.694051,309.386734 227.465775,310.625783 C225.524014,311.369213 221.081139,307.891882 221.840263,313.871293 C223.286595,325.294526 217.948752,336.645814 221.280908,348.101023 C221.920171,350.299336 221.8083,351.690268 219.411065,352.52163 C210.029885,355.775133 208.95113,363.904894 208.783323,371.994685 C208.527618,384.105391 208.975102,396.232084 209.078982,408.350783 C209.094964,409.965544 209.310715,411.324501 210.397461,412.723428 C216.869996,421.021059 236.399471,420.605378 243.862862,411.148636 L243.862862,411.148636 Z M26.2178945,95.2870472 C21.8389452,97.013722 18.7225396,94.1998815 15.2465489,92.8489183 C12.0342539,91.5938815 7.79913872,89.2276975 5.72153503,92.7370042 C3.63594056,96.2622987 7.81512029,99.0441637 10.3961433,101.170532 C15.0547701,105.031569 20.4006042,108.093219 24.9153968,112.106139 C32.5386042,118.868949 31.5877009,124.176875 22.5021802,128.773348 C20.5284567,129.772581 18.5547332,130.835765 16.7647977,132.130771 C15.0787424,133.345839 13.912088,135.847918 15.9976825,136.807182 C22.5181618,139.820869 29.0945765,138.118176 35.495194,135.704029 C39.5784843,134.161213 42.6948899,132.514477 41.951747,126.870808 C40.6572401,116.910452 43.4460235,107.885378 50.4459498,100.395127 C51.5167148,99.2440104 53.018982,98.1328631 52.0680788,96.3502312 C47.7370742,88.2204705 44.9802539,79.1314459 37.7885489,72.7443478 C36.1504383,71.2894643 34.3924659,69.3869245 32.0511664,71.4573355 C30.2772125,73.0161392 31.4198945,74.9106852 31.7794797,76.7732558 C32.5386042,80.6822558 37.6606963,83.0404459 35.6630005,88.2764275 C29.9735627,87.005403 28.4393323,81.4176913 24.795535,78.2201453 C22.0946502,75.8539613 18.6026779,72.6644091 15.6940327,75.1425073 C12.5456641,77.8284459 15.8378668,81.4416729 17.7956088,84.223538 C20.4405581,87.9886484 25.498724,89.9471453 26.2178945,95.2870472 L26.2178945,95.2870472 Z M281.483471,154.92128 C281.603332,164.553888 280.46065,171.724385 278.279166,178.782967 C277.70383,180.645538 275.234678,182.875826 277.655885,184.746391 C280.172982,186.6889 283.057655,185.857538 285.678632,184.322716 C289.482245,182.084434 291.400033,178.41525 292.910291,174.538225 C297.544945,162.651348 298.415941,150.428728 295.587203,137.990274 C293.118051,127.158587 287.764226,118.037587 279.781434,110.219587 C275.530337,106.062777 271.095452,107.429728 267.739323,109.795912 C263.488226,112.785618 268.610318,115.175783 269.992724,117.350115 C277.743784,129.548753 280.948088,142.954464 281.483471,154.92128 L281.483471,154.92128 Z M253.068245,276.076299 C253.068245,274.965151 252.884457,273.9899 253.100208,273.118569 C258.182346,252.446434 258.166365,252.702237 236.375498,250.815685 C230.4783,250.312072 228.480604,251.806924 228.081065,257.570501 C227.018291,272.654924 230.893821,288.314906 223.054862,302.687875 C222.639341,303.455286 223.222669,305.213937 223.909876,306.029311 C225.100503,307.452219 226.890438,306.948605 228.264853,306.165207 C232.372116,303.846986 233.33101,299.834066 233.458862,295.565342 C233.594706,290.968869 233.490825,286.364403 233.490825,280.60882 C236.415452,283.390685 238.548991,285.57301 240.850337,287.563483 C243.039812,289.466023 245.429056,289.705839 247.674466,287.555489 C250.199553,285.141342 247.786337,283.702446 246.539775,282.007747 C244.414226,279.121961 240.730475,276.651857 243.687065,272.143317 C248.113959,273.078599 247.826291,277.451243 249.792024,280.073231 C252.668706,283.902293 256.032825,284.301986 259.508816,281.016507 C261.658337,278.978072 263.664024,276.108274 261.362678,273.454311 C256.616153,267.978513 257.383268,277.826955 253.068245,276.076299 L253.068245,276.076299 Z M217.685056,189.814501 C215.056088,177.647839 209.486512,167.70347 205.698881,157.143575 C201.455775,145.304661 198.619047,133.297875 203.269682,120.859421 C203.709176,119.692317 204.779941,118.765029 205.235415,117.605918 C206.330153,114.816059 209.742217,110.347489 203.677212,110.531348 C200.408982,110.635268 199.298263,116.230974 198.34736,119.964109 C198.187544,120.579636 197.891885,121.18717 197.883894,121.802697 C197.620199,136.703262 193.688733,150.676538 187.056383,163.914378 C185.562106,166.89609 185.761876,169.110391 188.135139,171.564507 C196.133913,179.870133 205.059618,186.553004 217.685056,189.814501 L217.685056,189.814501 Z M220.641646,387.470808 C222.367655,408.862391 220.88936,407.055777 235.816143,406.472225 C245.828595,406.08852 243.471314,398.174593 244.14254,392.482961 C245.932475,377.166716 245.67677,377.702305 231.133544,377.622366 C222.000079,377.566409 218.883673,380.612072 220.641646,387.470808 L220.641646,387.470808 Z M396.814447,221.582121 C392.938918,225.347231 392.259701,229.384133 390.71748,232.861464 C388.2723,238.377231 386.362503,244.716366 380.62512,247.370329 C373.233646,250.78371 374.919701,256.259507 376.214208,261.647372 C377.125157,265.444458 379.346595,268.873826 384.061157,268.546078 C390.381867,268.098421 392.179793,263.046299 393.530235,258.10609 C396.654632,246.674863 396.63865,234.915888 396.814447,221.582121 L396.814447,221.582121 Z M379.70618,179.398495 C378.060079,173.594949 375.83065,168.462888 368.734835,168.350974 C366.449471,168.311004 365.618429,170.165581 366.409517,172.45982 C368.598991,178.758986 372.522466,181.804648 379.70618,179.398495 L379.70618,179.398495 Z M379.754125,168.159121 C380.856853,171.212777 381.184475,172.803556 381.959581,174.130538 C384.09312,177.81571 384.588549,182.819869 389.630733,184.218796 C390.190088,184.370679 391.748291,183.203575 391.684365,182.963759 C390.357894,178.079507 389.279139,172.987415 384.628503,169.933759 C383.6776,169.302243 382.439028,169.110391 379.754125,168.159121 L379.754125,168.159121 Z M400.777876,199.646955 C400.130623,205.514452 396.550752,209.879102 399.858936,214.659434 C400.554134,215.658667 403.06324,214.819311 403.910263,213.30847 C406.579185,208.536133 405.660245,204.387317 400.777876,199.646955 L400.777876,199.646955 Z M99.4853876,57.2602312 C99.3655258,55.1658386 98.582429,53.1114153 95.7616825,53.3912005 C92.8450466,53.6789797 92.7012125,56.1091147 93.0208438,58.3074275 C93.3165028,60.3778386 93.5881894,63.2396423 96.5208069,62.7440226 C98.8541157,62.3443294 99.4134705,59.8502435 99.4853876,57.2602312 L99.4853876,57.2602312 Z" id="Fill-7" sketch:type="MSShapeGroup"></path>
            <path d="M130.726057,68.3780826 C127.042306,75.5645673 124.317449,81.8237636 120.76155,87.5793464 C117.109762,93.4788188 120.753559,96.844236 124.189596,100.457463 C125.308306,101.632561 126.994361,102.104199 128.432702,100.897126 C129.871043,99.690052 129.974923,97.8594569 128.592518,96.7962728 C122.767237,92.3676716 126.243227,88.1229293 128.480647,83.6623526 C130.638158,79.3536593 133.227172,75.0209845 130.726057,68.3780826 L130.726057,68.3780826 Z M114.456822,76.9155305 C113.841532,74.7651808 114.928278,70.7522606 110.956859,70.6803158 C107.416942,70.608371 106.713753,74.0137575 106.849596,77.0674139 C106.977449,79.8972421 106.969458,83.5424446 110.653209,83.7342974 C114.880333,83.9581256 113.969384,80.025144 114.456822,76.9155305 L114.456822,76.9155305 Z M160.259992,61.8790704 C160.291955,57.1786777 157.758877,54.8364753 154.938131,52.8460029 C152.740665,51.2951931 150.287495,50.6956532 148.409661,53.4455428 C145.916536,57.0907452 149.184767,57.4904385 151.350269,58.46569 C154.075126,59.6887513 156.192684,62.3986716 160.259992,61.8790704 L160.259992,61.8790704 Z" id="Fill-195" sketch:type="MSShapeGroup"></path>
            <path d="M316.957742,227 C317.44518,227.855344 319.394931,228.390933 318.012525,229.606 C317.149521,230.365417 315.71118,229.933748 315,228.646736 C315.655244,228.09516 316.302498,227.551577 316.957742,227" id="Fill-212" sketch:type="MSShapeGroup"></path>
            <path d="M127.138645,123.670425 C120.450359,125.165278 114.960691,119.401701 107.920811,118.770186 C104.149161,118.434444 102.870636,112.047345 105.092074,108.178315 C108.296378,102.606591 109.638829,108.490076 111.668488,109.920977 C112.403641,110.432585 113.170756,111.31191 113.92988,111.319904 C125.164922,111.375861 135.800654,108.873781 145.964931,103.98953 C148.346184,102.846407 145.509456,94.5967381 152.125825,99.5929038 C156.456829,102.862395 161.45906,105.684229 159.077806,112.502996 C158.382608,114.47748 159.085797,120.28902 155.210267,113.638125 C154.01165,111.575707 151.590442,115.029057 149.93635,116.124217 C143.168157,120.608775 135.976452,123.662431 127.138645,123.670425 L127.138645,123.670425 Z M111.244977,113.190468 C123.454894,122.623229 141.969539,120.113155 152.261668,107.690689 C144.694396,107.115131 138.725281,111.263947 132.2927,113.342352 C125.268802,115.612609 118.51659,112.47102 111.244977,113.190468 L111.244977,113.190468 Z" id="Fill-302" sketch:type="MSShapeGroup"></path>
            <path d="M141,73.6282833 C149.917714,69.4075226 155.758977,70.2228968 160.48153,76.4181422 C161.823982,78.1767925 161.616221,79.9114612 160.201853,81.5262219 C159.187023,82.6773385 157.940461,82.6613508 156.981567,81.6221483 C153.058092,77.3214489 147.01706,76.9137618 141,73.6282833" id="Fill-304" sketch:type="MSShapeGroup"></path>
            <path d="M159.747492,61.3460598 C155.680183,61.865661 153.562626,59.1557408 150.837768,57.9326794 C148.672266,56.9574279 145.404036,56.5577347 147.89716,52.9125322 C149.774994,50.1626426 152.228165,50.7621825 154.42563,52.3129923 C157.246377,54.3034647 159.779455,56.6456672 159.747492,61.3460598" id="Fill-306" sketch:type="MSShapeGroup"></path>
            <path d="M167.381253,139.702693 C166.590166,139.750656 165.791088,139.79862 165,139.846583 C165.343604,139.231055 165.687207,138.615528 166.030811,138 C166.478295,138.567564 166.93377,139.135129 167.381253,139.702693" id="Fill-307" sketch:type="MSShapeGroup"></path>
            <path d="M172.117558,188 C174.195161,189.247043 176.272765,190.486092 178.326396,191.741129 C178.302424,191.749123 178.47023,191.717147 178.47023,191.717147 C174.426894,195.546209 172.716866,190.629982 170,189.462877 C170.71118,188.975252 171.414369,188.487626 172.117558,188" id="Fill-308" sketch:type="MSShapeGroup"></path>
            <path d="M178.757142,194.462638 C177.438663,193.343497 175.608773,192.248337 178.677234,191.001294 C178.693216,190.9933 178.525409,191.025276 178.549382,191.017282 C178.877004,191.864632 179.180654,192.719975 179.484303,193.575319 C179.236589,193.863098 178.996866,194.158871 178.757142,194.462638" id="Fill-309" sketch:type="MSShapeGroup"></path>
            <path d="M170.209734,189.25977 C169.162941,188.45239 168.355872,187.421181 169.722296,186.397966 C171.288489,185.222868 171.656065,186.941549 172.327291,187.796893 C171.624102,188.284519 170.920913,188.772144 170.209734,189.25977" id="Fill-310" sketch:type="MSShapeGroup"></path>
        </g>
    </g>
</svg>