<?xml version="1.0" encoding="UTF-8" standalone="no"?>
<svg width="285px" height="456px" viewBox="0 0 285 456" version="1.1" xmlns="http://www.w3.org/2000/svg" xmlns:xlink="http://www.w3.org/1999/xlink" xmlns:sketch="http://www.bohemiancoding.com/sketch/ns">
    <!-- Generator: Sketch 3.3.3 (12081) - http://www.bohemiancoding.com/sketch -->
    <title>Group</title>
    <desc>Created with Sketch.</desc>
    <defs></defs>
    <g id="Page-1" stroke="none" stroke-width="1" fill="none" fill-rule="evenodd" sketch:type="MSPage">
        <g id="Group" sketch:type="MSLayerGroup" fill="#20F61F">
            <path d="M60.5020461,455.5 C55.4678526,446.187147 56.9541383,437.345933 58.0648572,428.720552 C60.1184885,412.764798 60.7897143,396.920957 57.2737696,381.053135 C55.1002765,371.244663 51.8160645,363.026969 40.7568203,359.813436 C34.1804056,357.910896 29.7934655,352.043399 25.9818618,346.583589 C-1.85003684,306.806117 -6.45272809,263.615264 8.02657145,217.930325 C10.6875023,209.528773 16.4328756,203.005779 23.0891982,197.266184 C34.5000369,187.417742 46.9496774,179.048166 59.7748848,171.23816 C63.938083,168.704104 65.0408111,166.881503 61.4689309,162.764663 C55.563742,155.961883 50.2019263,149.271018 40.0456406,148.191847 C33.1655761,147.464405 26.4453272,136.560773 28.7306913,129.518178 C31.8870507,119.757669 28.3870876,112.043589 23.9522028,104.153644 C9.33705993,78.1416074 12.7331429,61.4104479 28.5868572,36.9172454 C39.1027281,20.6737117 54.3970876,13.5271963 68.8284424,3.90258282 C76.4516498,-1.1895092 83.5794286,0.513184049 88.8932996,7.82757055 C92.2813917,12.4959877 95.7094378,14.6063681 101.774442,12.7517914 C107.312055,11.057092 112.402184,13.6790798 116.781134,17.2843129 C119.242295,19.3147546 121.53565,21.5690245 124.124664,23.4076135 C126.94541,25.4060798 130.165696,28.235908 133.633696,26.277411 C137.365392,24.1830184 133.441917,20.4498834 134.177069,17.5001472 C149.375539,18.4354294 156.814959,27.2526626 154.018184,41.2978834 C153.434857,44.2396258 153.602664,46.9415521 154.297862,49.7793742 C155.280728,53.8082822 157.789834,58.5486442 156.559253,61.8261288 C152.23624,73.3692699 159.48388,82.5062577 161.369705,92.7064294 C165.429023,114.601626 165.133364,136.025184 152.931438,155.690092 C150.901779,158.959583 150.749954,160.646288 154.441696,162.101172 C165.413041,166.417859 176.384387,170.774515 187.339751,175.139166 C190.584009,176.434172 191.375097,174.54762 191.351124,171.965601 C191.327152,168.776049 190.831724,165.586497 190.919622,162.396945 C191.223272,151.101613 201.946903,141.461012 213.33377,142.07654 C223.346221,142.620123 228.987714,151.30146 227.421521,163.995718 C226.998009,167.481043 226.486599,170.998344 225.511724,174.355767 C221.740074,187.28984 225.335926,197.482018 236.155447,205.459896 C243.451032,210.847761 246.89506,217.538626 243.682765,227.083301 C240.686221,235.99646 248.093677,239.881479 253.93494,243.310847 C268.566065,251.896258 277.443825,264.638479 282.430074,280.386393 C290.980212,307.365687 275.518046,333.401706 247.694138,339.197258 C234.077843,342.03508 222.547143,338.453828 212.846332,328.325601 C209.25847,324.584472 206.533613,319.332503 199.917244,318.884847 C205.518783,348.845853 220.877069,373.195166 240.838046,395.082368 C242.340313,396.737098 243.858562,398.37584 245.400783,399.998595 C248.692986,403.459939 246.319724,407.265018 244.657641,409.655184 C242.084608,413.34835 239.735318,408.967712 237.92141,407.632736 C227.317641,399.862699 221.236654,388.399497 214.716175,377.479877 C210.385171,370.237436 208.083825,367.927209 200.117014,375.033755 C169.416424,402.420736 132.491014,410.814294 92.2893825,406.521589 C87.3350968,405.993994 82.5885715,403.48392 77.7381659,401.909129 C73.3192627,400.478227 70.6183779,400.997828 70.2508019,406.697454 C69.5396221,417.848896 68.3729678,428.968362 67.1024332,440.07184 C66.5031244,445.355785 65.0328203,450.479853 60.5020461,455.5 L60.5020461,455.5 Z M204.352129,291.42592 C221.132774,297.509252 233.798166,293.384417 242.244424,279.219288 C250.77059,264.91027 249.763751,243.310847 236.626903,236.076399 C232.479687,233.790153 233.470544,231.120202 235.835816,228.386301 C241.109733,222.278988 240.342618,215.859914 234.469392,211.63116 C217.449023,199.352583 215.435346,183.396828 221.204691,164.931 C221.572267,163.73192 221.59624,162.412933 221.708111,161.141908 C222.219521,155.466264 220.629355,151.037663 214.652249,149.143117 C208.731078,147.264558 203.95259,148.903301 200.340756,153.851503 C193.133069,163.723926 195.538295,182.069847 204.879521,190.063712 C209.809834,194.276479 214.724166,198.641129 212.62259,207.058669 C211.024433,191.934276 193.716396,194.564258 187.819198,183.52473 C185.605751,179.36792 178.038479,178.10489 172.94835,175.450926 C167.498636,172.613104 165.29318,174.731479 165.213272,180.351166 C165.085419,189.488153 160.60259,196.514761 153.131207,200.911387 C146.930359,204.564583 146.786525,208.433613 149.399512,214.173209 C161.945041,241.752043 165.325143,271.145485 166.443853,301.010564 C166.947272,314.42427 168.433558,327.782018 172.325069,340.708098 C172.956341,342.802491 172.412968,346.207877 176.320461,345.984049 C185.222194,345.472442 195.274599,332.458429 193.109097,323.825055 C188.14682,304.008264 182.12177,284.391319 183.520157,263.559307 C183.592074,262.400196 183.344359,260.585589 182.601217,260.113951 C173.379853,254.350374 175.793069,243.878411 170.639014,234.005988 C180.156037,238.74635 187.763263,240.017374 195.1867,235.324975 C202.274525,230.848411 205.007373,223.821804 205.494811,214.013331 C210.808682,230.720509 202.250553,242.935135 186.300949,244.749742 C183.663991,245.045515 179.029336,242.135748 178.493954,247.131914 C178.062452,251.168816 181.043014,254.518245 184.950507,255.709331 C193.676442,258.363294 202.442332,262.44816 211.59977,256.828472 C213.102037,255.909178 215.371419,254.598184 216.554055,256.892423 C217.441032,258.627092 216.338304,260.697503 214.756129,261.968528 C209.202535,266.42111 202.865843,265.653699 196.457235,264.670454 C193.820277,264.262767 190.48812,260.329785 188.690194,265.645706 C187.363724,269.594675 189.401373,272.520429 192.549742,274.558865 C198.367032,278.331969 205.255088,278.459871 211.767576,279.906761 C219.230968,281.569485 224.776571,279.682933 228.724018,272.840184 C230.585871,269.602669 232.679456,266.077374 237.753604,264.406656 C228.268544,286.022067 228.276535,286.00608 206.981097,283.04835 C204.943447,282.768564 202.226581,281.593466 201.115862,284.31138 C199.749438,287.628834 202.889816,289.395479 204.503954,291.689718 C199.597613,293.112626 198.574793,289.347515 197.480055,286.141975 C196.537143,283.40008 195.873908,280.594233 193.492654,278.691693 C191.51094,277.108908 189.017816,276.165632 188.714166,279.73889 C188.090885,286.949356 189.281512,296.661902 194.491502,298.916172 C201.547364,301.985816 202.809908,307.077908 205.438876,312.193982 C217.345143,335.400172 241.653106,339.732847 260.950848,322.002454 C282.382129,302.305571 277.963226,268.307663 251.289991,248.690718 C249.819687,252.12808 250.818535,255.557448 251.313963,258.882896 C254.430369,279.45111 241.18165,296.342147 220.397622,297.213479 C214.756129,297.453294 207.756203,298.64438 204.352129,291.42592 L204.352129,291.42592 Z M64.8490323,180.822804 C64.8090784,179.559773 64.2736959,178.904276 62.9232535,179.264 C59.6230599,177.976988 57.5055023,180.151319 55.2441106,181.893982 C47.4131429,187.92935 39.5661936,193.94873 31.7432166,200.000086 C23.4008387,206.459129 23.6325715,208.993184 32.8619263,214.157221 C41.4120645,218.937552 48.404,224.900975 50.2019263,237.819061 C41.6837512,228.770006 34.7717235,221.895282 26.0537788,216.835166 C19.5332996,213.054067 17.0641475,215.50019 14.9545807,221.255773 C11.4945715,230.688534 11.2708295,240.696853 9.84847007,250.449368 C4.4866544,287.045282 13.1246913,319.644264 39.4143687,346.439699 C50.3137973,357.543178 63.5065807,364.074166 79.7838065,362.715209 C97.3795115,361.244337 108.462728,352.083368 110.31659,336.607245 C111.467263,326.95865 110.132802,317.517896 107.224157,308.237018 C105.586046,303.009031 103.268719,300.187196 98.0027927,304.487896 C90.5873456,310.539252 83.7072811,308.308963 77.2027834,303.064988 C67.6857604,295.406865 61.0693917,285.910153 59.4073088,273.463706 C59.0397327,270.761779 59.4792258,266.932718 55.74753,266.700896 C52.4713088,266.493055 51.2247466,269.97838 50.1859447,272.568393 C47.8925899,278.323975 47.4850599,284.35135 48.6117604,290.458663 C50.6653917,301.53816 52.7429954,312.601669 55.0363503,324.896233 C38.775106,307.757387 39.550212,268.21973 55.523788,252.33592 C57.5454562,250.321466 59.990636,248.970503 60.0545622,245.525147 C60.286295,232.726969 66.519106,222.414883 73.9585254,212.598417 C75.3968664,210.711865 78.1536867,208.713399 76.2119263,205.92354 C70.8501106,198.241436 69.9950968,188.560865 64.8490323,180.822804 L64.8490323,180.822804 Z M145.220332,236.611988 C146.259134,229.705288 142.431548,225.908202 134.776378,223.446092 C147.617567,222.638712 149.527364,220.85608 144.748876,214.189196 C138.564009,205.555822 141.992055,200.927374 149.359558,196.538742 C151.269355,195.39562 153.219106,194.156571 154.737355,192.573785 C159.963327,187.105982 162.344581,179.75962 159.851456,173.292583 C157.182535,166.361902 149.343576,167.465055 142.926977,168.03262 C141.368774,168.168515 139.882489,169.095804 138.324286,169.223706 C137.061742,169.327626 135.319751,170.270902 134.38483,168.336387 C148.312765,155.202466 156.071816,139.286681 157.422258,120.333227 C158.7727,101.355791 155.232783,83.609411 143.845917,68.2372086 C146.490866,65.9189877 151.157484,70.403546 152.156332,65.4233681 C152.875502,61.8660982 154.217954,56.6141288 150.398359,54.8794601 C144.9007,52.3773804 146.946341,49.379681 147.913226,45.8383988 C149.559327,39.8509939 149.942885,33.7916442 147.13812,28.0600429 C145.276267,24.2389755 142.95894,22.3044601 140.186138,27.7163067 C136.678184,34.5590552 131.452212,34.3272331 125.850673,30.4422147 C121.663502,27.524454 117.652129,24.3508896 113.592811,21.2572638 C109.829152,18.3874663 105.530111,16.3250491 101.199106,18.8910798 C93.9115115,23.2077669 89.724341,20.3619509 85.6570323,14.1587117 C82.716424,9.67415337 78.7290231,4.38221472 72.496212,7.97945399 C64.673235,12.4879939 55.9712719,16.8126748 49.5386913,22.0886258 C38.7990784,30.897865 27.6119816,41.7055706 23.5446728,55.8147423 C18.6143595,72.889638 18.8460922,89.9005828 31.4076037,105.016982 C35.786553,110.284939 39.1746452,116.855896 35.2911244,125.169515 C31.4076037,133.483135 37.744295,142.859939 46.9816406,144.322816 C49.4268203,144.706521 51.6802212,144.22689 53.8856774,146.449184 C60.1664332,152.780325 66.9106544,158.66381 73.4151521,164.78711 C74.7336314,166.02616 78.2575668,167.728853 74.5098894,169.351607 C68.7245622,171.853687 72.6160738,174.523638 74.158295,176.394202 C81.829447,185.683074 92.6649493,186.810209 103.69223,187.153945 C104.523272,187.177926 105.945631,186.778233 106.145401,186.23465 C109.70929,176.282288 120.400959,182.661393 125.762774,176.658 C125.363235,183.196982 121.088166,185.98684 116.6373,188.081233 C101.055272,195.411607 86.6718618,190.191613 72.4402765,182.045865 C72.1206452,189.176393 73.8786175,194.596233 76.8192258,199.584405 C78.8089309,202.957816 81.8534194,206.563049 86.0485807,204.084951 C95.5656037,198.473258 107.096304,204.340755 116.525429,197.977638 C119.609871,195.899233 123.5733,198.369337 125.642912,201.407006 C129.174839,206.587031 131.84376,212.230699 132.035539,219.633018 C121.559622,204.500632 121.559622,204.500632 116.33365,204.116926 C115.62247,207.937994 120.361005,210.855755 118.107604,214.860681 C106.504986,200.743515 84.8100092,201.950589 74.597788,217.634552 C66.2154562,230.496681 61.9883318,244.901626 61.7006636,260.185896 C61.3730415,277.076933 73.9984793,295.910479 87.622765,299.195957 C93.0884609,300.506951 99.1854286,301.753994 102.885161,295.143067 C107.264111,287.30908 96.6923042,290.22684 95.9012166,285.102773 C100.759613,284.711074 105.378286,284.463264 109.964995,283.935669 C117.25259,283.088319 124.787899,282.65665 130.741032,277.700454 C135.327742,273.879387 139.578839,268.307663 136.318599,262.887822 C132.778682,256.996344 128.088092,262.839859 124.108682,264.710423 C114.951244,269.035104 102.805253,268.595442 97.7870415,263.46338 C101.766452,263.015724 105.538101,262.544086 109.317742,262.176368 C116.006028,261.520871 122.782212,261.017258 128.615484,257.260141 C133.06635,254.38235 135.943032,249.777883 132.842608,245.11746 C130.437383,241.496239 128.319825,234.117902 120.872415,238.842276 C120.265115,238.274712 119.649825,237.707147 119.042525,237.139583 C122.35071,230.648564 120.41694,223.925724 120.025392,216.707264 C124.891779,227.554939 126.449982,241.70408 143.598203,238.242736 C137.293475,245.309313 135.759244,253.063362 139.874498,261.832632 C142.23977,266.868767 142.335659,272.056785 137.876802,275.917822 C132.890553,280.226515 133.098313,284.791012 134.928203,290.506626 C141.672424,311.498515 147.585604,332.698245 148.640387,354.929184 C149.327594,369.366104 145.979456,373.794706 132.051521,376.760429 C113.552857,380.693411 94.8704056,382.603945 75.9562212,382.524006 C72.6160738,382.508018 67.6298249,380.093871 67.2063134,386.520939 C66.8387374,392.196583 68.4528756,396.289442 75.1012074,397.408583 C87.7825807,399.558933 100.535871,400.326344 113.281171,399.335104 C146.299088,396.777067 176.61612,387.488196 200.037106,362.339497 C205.598691,356.360086 204.551899,346.391736 197.440101,341.579429 C190.584009,336.934994 188.362571,344.193423 184.814664,347.638779 C184.135447,348.30227 183.695954,349.205577 183.056691,349.909037 C176.959724,356.663853 171.629871,355.912429 167.802286,347.470908 C166.236092,344.017558 165.125373,340.284423 164.366249,336.559282 C160.666516,318.365245 158.684802,299.98735 158.477041,281.401613 C158.325217,267.636178 156.735051,254.014632 152.923447,240.71284 C151.756793,236.675939 150.054756,233.718209 145.220332,236.611988 L145.220332,236.611988 Z M142.479493,355.512736 C141.83224,332.138675 134.824323,311.21873 128.455668,290.146902 C126.274184,282.920448 121.263963,286.733521 117.628157,287.708773 C113.664728,288.771957 106.792654,287.86865 108.806332,295.710632 C111.107677,304.663761 113.952396,313.480994 116.061963,322.474092 C121.543641,345.80019 110.899917,363.002988 87.5588387,368.30292 C81.3899539,369.701847 74.9094286,369.701847 68.5887189,370.445276 C66.6549493,370.677098 63.5385438,369.430055 63.6663963,373.043282 C63.7383134,375.297552 65.080765,377.543828 67.478,378.055436 C69.9311705,378.575037 72.5841106,378.758896 75.0612535,378.431147 C93.3921106,376.040982 111.770912,374.034521 129.989899,370.693086 C139.786599,368.894466 144.053677,364.266018 142.479493,355.512736 L142.479493,355.512736 Z" id="Fill-4" sketch:type="MSShapeGroup"></path>
            <path d="M187.240369,192.18617 C176.173134,192.817686 167.902673,199.620465 165.097908,209.484894 C162.277162,219.421269 165.057954,229.557489 171.985964,234.537667 C165.761143,214.065379 169.117272,204.105023 187.240369,192.18617 L187.240369,192.18617 Z M191.051973,226.016207 C192.706065,222.283072 189.49377,219.293367 189.653586,215.88798 C189.749475,213.945471 188.423005,210.771907 192.026848,211.083667 C193.824775,211.235551 196.078176,214.489054 195.678636,209.780667 C195.462885,207.142692 196.357853,203.721318 192.889853,202.314397 C190.348784,201.283189 188.766609,202.945913 187.416166,204.840459 C183.628535,210.132397 185.394498,220.676305 191.051973,226.016207 L191.051973,226.016207 Z" id="Fill-160" sketch:type="MSShapeGroup"></path>
            <path d="M64.9257788,180.631821 C64.2865161,180.11222 63.6392627,179.592618 63,179.073017 C64.3504424,178.713293 64.8858249,179.36879 64.9257788,180.631821" id="Fill-164" sketch:type="MSShapeGroup"></path>
            <path d="M118.321634,44.9775118 C113.830814,42.5473768 110.914178,40.5648983 108.668768,42.3874995 C101.077524,48.5427756 93.5422151,46.5283216 85.4555423,43.6825057 C80.3494317,41.883886 76.0264179,44.8256284 73.0938003,48.934475 C68.1714778,55.8331805 62.0105838,58.1274198 53.9558741,55.3375609 C48.5141506,53.4510087 43.5119202,54.1944382 40.8190261,59.6622418 C38.20604,64.9781621 40.3315884,70.0302848 44.8144179,73.1878615 C50.9912934,77.5365241 51.0552197,82.3328431 47.1397358,87.8006468 C45.989063,89.4154075 45.3178372,92.6848983 41.9137635,91.2539964 C45.0621321,87.7127142 35.6170261,86.89734 40.2037358,82.7085547 C43.8315515,79.4070885 44.2310907,75.7219167 39.5085377,72.5403584 C34.7460308,69.3348185 32.7882888,64.8342725 34.7620123,59.2705425 C36.7037727,53.7867511 41.378381,51.836248 46.6762704,50.9729106 C47.3075423,50.8689903 47.9867589,50.5812112 48.5620953,50.7171069 C60.156722,53.5149596 69.0744363,51.5884382 74.6120492,39.2539044 C76.833487,34.305702 82.8665285,35.7525915 87.3973026,38.4065547 C93.1666483,41.7799658 98.600381,43.482659 105.168805,39.1739658 C109.164197,36.5599719 114.366197,36.791794 118.321634,44.9775118" id="Fill-261" sketch:type="MSShapeGroup"></path>
            <path d="M90,135.375443 C105.989558,141.394823 119.805622,139.668148 133.629677,137.269989 C136.913889,136.69443 140.605631,135.479363 140.445816,131.946075 C140.278009,127.949142 135.875088,129.843688 132.830599,128.724547 C134.860258,127.485498 136.538323,126.350369 138.312276,125.415087 C140.222074,124.40786 140.773438,120.171111 144.257419,122.849056 C147.237982,125.143295 147.741401,128.061056 146.231143,131.338541 C143.394415,137.501811 138.935558,142.250167 131.903668,142.25816 C125.055567,142.266154 118.750839,143.944866 112.278304,145.623578 C103.008995,148.029731 98.2464885,145.999289 90,135.375443" id="Fill-262" sketch:type="MSShapeGroup"></path>
            <path d="M123.173794,132.595036 C112.913628,134.4656 104.763029,130.676508 96.3487339,127.854674 C93.2323284,126.807478 88.3339782,122.826533 88.0622915,131.260061 C87.9504206,134.545539 82.2450012,132.962754 80.6708169,137.191508 C77.714227,123.985643 84.9698584,119.636981 93.8316372,116.975024 C98.4423192,131.731699 112.777785,127.071275 123.173794,132.595036" id="Fill-263" sketch:type="MSShapeGroup"></path>
            <path d="M108.132201,80.9750237 C116.330745,88.3133918 119.934588,97.9699808 127.477888,104.468993 C129.963022,106.611349 124.017879,117.067324 120.430017,117.435042 C116.858137,117.80276 116.594441,115.012901 117.681187,113.126349 C122.307851,105.132484 117.137814,100.01641 112.798819,94.5566004 C110.010035,91.0392998 107.373077,87.4660421 108.132201,80.9750237" id="Fill-264" sketch:type="MSShapeGroup"></path>
            <path d="M121.298673,238.290502 C119.892295,239.537545 118.581806,240.920484 117.055567,241.999656 C110.183493,246.891901 102.831972,251.991987 94.2578618,247.443478 C84.8207465,242.439318 83.6780645,232.670815 82,221.975024 C87.0981198,225.748128 87.9371521,230.38457 89.3515207,234.341533 C92.7076498,243.72633 98.8365806,245.437018 107.29882,242.063607 C111.422065,240.408876 115.417456,238.426398 119.468783,236.587809 C120.076083,237.155373 120.691373,237.722938 121.298673,238.290502" id="Fill-265" sketch:type="MSShapeGroup"></path>
            <path d="M135.129154,71.6038437 C135.097191,75.8965492 130.142905,76.7438989 129.68743,80.6129296 C130.590389,81.0286105 131.381476,81.6441381 132.228499,81.7400645 C135.552665,82.1237701 139.508103,81.0765737 140.842564,85.6570584 C141.042333,86.3285431 140.60284,87.7754326 140.115403,87.9592915 C136.31179,89.3821995 132.612057,88.6867332 129.295882,86.5283897 C125.356426,83.9703529 121.992306,79.4058559 123.278822,75.6247578 C124.797071,71.172175 130.174868,70.1249786 135.129154,71.6038437" id="Fill-266" sketch:type="MSShapeGroup"></path>
            <path d="M68.0430048,69.998794 C67.6594472,63.2759535 69.8169587,59.5348247 75.5063965,59.0551928 C82.2346361,58.4876284 87.9320647,60.9497388 92.4868112,65.9299167 C93.8052905,67.3848001 93.2379449,68.8556713 91.9674103,70.0787327 C90.02565,71.9652848 88.3955301,70.3425302 86.9012536,69.4152419 C80.7483504,65.6261498 74.675355,61.9489719 68.0430048,69.998794" id="Fill-267" sketch:type="MSShapeGroup"></path>
            <path d="M93.3355434,97.2624078 C92.872078,100.188162 93.5193314,104.241052 89.1483729,103.16188 C83.3071102,101.714991 81.8447968,96.7428065 82.0126033,91.3149722 C82.1005019,88.6050519 81.9087231,84.4402483 85.6963544,85.0317943 C92.4325849,86.0869845 92.5204835,92.2582483 93.3355434,97.2624078" id="Fill-268" sketch:type="MSShapeGroup"></path>
            <path d="M91.0127391,224.578312 C89.8141216,218.9906 88.7193843,214.905735 93.7136239,213.386901 C98.3562691,211.971987 101.520619,214.306195 103.26261,218.798748 C105.156426,223.690993 107.961191,228.383392 106.035412,234.194932 C101.240942,232.364337 101.920158,228.119594 101.352813,224.5943 C100.833412,221.380766 100.465836,217.623649 96.917928,216.920189 C92.6348681,216.07284 94.1291446,221.612588 91.0127391,224.578312" id="Fill-269" sketch:type="MSShapeGroup"></path>
            <path d="M141.179032,64.1913085 C136.272691,56.6450999 125.980562,59.0832288 123,50.9774496 C132.636885,50.8415539 141.36282,56.4292656 141.179032,64.1913085" id="Fill-270" sketch:type="MSShapeGroup"></path>
            <path d="M145.24818,236.390758 C145.591784,238.165396 144.664853,238.661016 143.114641,238.517126 C142.946834,236.926347 142.59524,235.151709 145.24818,236.390758" id="Fill-271" sketch:type="MSShapeGroup"></path>
            <path d="M187.232218,191.975024 C169.109121,203.893876 165.752992,213.854232 171.977812,234.326521 C165.049803,229.346343 162.26901,219.210122 165.089757,209.273748 C167.894522,199.409318 176.164983,192.606539 187.232218,191.975024" id="Fill-272" sketch:type="MSShapeGroup"></path>
            <path d="M190.64476,225.992913 C184.987285,220.653011 183.221322,210.109103 187.008953,204.817165 C188.359396,202.922619 189.941571,201.259895 192.48264,202.291103 C195.95064,203.698024 195.055672,207.119398 195.271423,209.757373 C195.670963,214.46576 193.417562,211.212257 191.619635,211.060373 C188.015792,210.748613 189.342262,213.922177 189.246373,215.864686 C189.086557,219.270073 192.298852,222.259778 190.64476,225.992913" id="Fill-273" sketch:type="MSShapeGroup"></path>
        </g>
    </g>
</svg>