<?xml version="1.0" encoding="UTF-8" standalone="no"?>
<svg width="288px" height="536px" viewBox="0 0 288 536" version="1.1" xmlns="http://www.w3.org/2000/svg" xmlns:xlink="http://www.w3.org/1999/xlink" xmlns:sketch="http://www.bohemiancoding.com/sketch/ns">
    <!-- Generator: Sketch 3.3.3 (12081) - http://www.bohemiancoding.com/sketch -->
    <title>Strength</title>
    <desc>Created with Sketch.</desc>
    <defs></defs>
    <g id="Page-1" stroke="none" stroke-width="1" fill="none" fill-rule="evenodd" sketch:type="MSPage">
        <g id="Strength" sketch:type="MSLayerGroup" transform="translate(144.000000, 268.000000) scale(-1, 1) translate(-144.000000, -268.000000) " fill="#20F61F">
            <path d="M237.136964,301.322837 C240.916604,298.445046 242.930282,301.378794 244.975922,303.800935 C251.400512,311.419088 251.112844,325.584217 244.664282,333.234346 C242.770466,335.480622 241.044457,336.208064 238.095858,335.400684 C234.739729,334.473395 231.18383,334.097684 227.691858,333.929812 C221.762697,333.634039 218.502457,335.336733 218.606337,342.643125 C218.870033,360.221634 219.95678,377.744187 220.939646,395.282727 C221.147406,398.99188 222.537803,402.0935 224.679333,404.931322 C232.014872,414.659855 233.844761,425.643426 232.869886,437.562279 C232.166697,446.139696 231.942955,454.797052 232.262586,463.39845 C232.558245,471.448273 236.07419,477.075954 245.167701,478.442904 C253.438162,479.689947 261.349038,482.639684 266.742816,489.666291 C270.874051,495.046162 273.095489,501.561162 269.012199,507.340727 C264.976853,513.064334 258.376466,512.4568 252.463286,509.594996 C247.309231,507.108904 242.275038,504.335033 237.376687,501.369309 C232.837922,498.627414 228.331121,497.364383 222.881406,498.099819 C212.349554,499.53072 205.845056,495.222027 207.195498,484.630156 C209.440909,467.043653 197.486697,455.852242 191.277858,442.182733 C188.816697,436.77888 186.363526,431.982561 187.186577,426.035125 C187.769904,421.830352 187.92972,417.409745 186.051886,413.764542 C174.521185,391.341751 166.41054,367.136328 151.41983,346.512156 C145.426743,338.262487 144.228125,338.334432 137.811526,346.632064 C131.091277,355.329389 127.559351,365.689438 122.868761,375.441954 C117.794614,386.001849 111.625729,395.530536 100.198909,400.286886 C94.1978302,402.788966 92.7834616,408.720414 92.6715906,413.756549 C92.1362081,438.449598 82.1237565,459.057782 68.0759593,478.72269 C58.7347334,491.800653 56.6411482,508.363941 50.6160975,523.096634 C44.7908164,537.365684 42.1378763,538.5168 29.0090192,530.746763 C23.3515445,527.397334 16.6712496,529.403794 10.9898026,525.518776 C5.14054912,521.521843 4.06978414,518.564113 8.44873345,512.776555 C15.2408993,503.807438 23.3275722,496.085365 30.9747519,487.94761 C35.2098671,483.43907 36.616245,479.234297 35.5215076,472.647352 C31.3663003,447.770444 35.5614616,424.220518 50.6001159,403.46045 C55.2667334,397.017395 57.6320053,390.358506 55.5943556,382.892236 C50.2565122,363.323254 55.1388809,345.680794 64.61595,328.677843 C65.8305491,326.503512 66.6376182,324.105352 67.716374,321.627254 C54.1879777,322.586518 46.6606597,316.982819 46.8604293,300.4595 C47.0362265,285.950634 41.0271574,279.523567 29.2807058,273.744003 C11.4452772,264.958745 5.77981179,247.180389 0.521876305,229.657837 C-0.0934140175,227.59542 -0.197294202,225.061365 0.386032987,223.014935 C6.30720349,202.358788 18.2294523,185.012101 36.4564293,174.692021 C45.6378394,169.488015 55.0350007,165.219291 62.9298947,157.928886 C70.0257104,151.373917 79.1431943,147.704733 88.4764293,149.367457 C97.6578394,151.014193 105.273056,147.129174 113.519545,145.594352 C119.145056,144.547156 120.791157,141.669365 116.044632,136.401407 C109.875747,129.542671 105.00936,122.524058 94.133904,121.285009 C86.5027058,120.405684 83.4582173,111.804285 85.3760053,104.561843 C86.790374,99.2459228 85.719609,95.4648247 83.7378947,91.0442173 C81.5244477,86.1199965 79.5427334,81.0438922 77.9765399,75.8798553 C73.4217934,60.8194136 74.9720053,46.9740394 86.1830745,34.8873155 C91.8165768,28.811978 95.8039777,20.7461682 102.316466,16.0457756 C111.290116,9.57074492 121.917858,5.37396578 131.906337,0.353818539 C132.905185,-0.141801093 135.054706,-0.141801093 135.590088,0.513695839 C145.530623,12.5684443 163.941388,4.7984075 173.929867,17.0769842 C176.822531,20.642248 182.008549,22.0491682 186.171747,19.2593093 C190.654577,16.2536161 182.679775,13.8074934 184.901213,10.3781253 C199.516356,14.9266345 200.507213,16.4294811 199.772061,31.5858492 C199.636217,34.4076836 200.203563,37.2774811 200.563148,40.1153032 C200.722964,41.37034 201.617932,42.6493584 201.450125,43.8164627 C198.325729,65.0401744 209.984282,85.7123093 203.6396,107.11988 C201.066568,115.769242 198.613397,124.338665 192.188807,130.981567 C189.959379,133.291794 189.36007,135.106401 190.17513,138.431849 C191.725342,144.80296 194.242439,147.440935 201.258346,150.254776 C213.660042,155.242947 226.28548,160.239113 238.359554,166.226518 C240.277342,167.177788 242.482798,168.864493 243.201968,170.727064 C247.732743,182.597954 258.536282,188.529401 266.790761,196.962929 C280.311167,210.768334 284.746051,228.938389 287.638715,247.428199 C287.902411,249.170861 287.48689,251.449113 286.512015,252.888009 C274.885425,270.066825 264.017959,288.13296 242.267047,294.544039 C239.366392,295.399383 237.224862,297.134052 235.410955,299.428291 C234.03654,300.467493 231.575379,301.794475 233.101618,303.401242 C234.835618,305.231837 235.962319,302.473954 237.136964,301.322837 L237.136964,301.322837 Z M86.2150376,411.27845 C86.7664017,410.854776 86.9421989,410.311193 86.7424293,409.647702 C90.1305215,401.438003 93.726374,393.979727 103.78677,391.341751 C108.828955,390.014769 111.953351,384.395082 114.70218,379.670708 C118.385932,373.339567 121.829959,366.864536 125.337913,360.421481 C139.433655,334.513365 138.099194,322.090898 118.361959,300.059806 C114.126844,295.335432 109.380319,290.954794 104.354116,287.085763 C95.82795,280.5228 94.9569546,280.994438 92.4398579,291.394457 C90.4980975,299.404309 90.8736643,309.860285 83.7219132,314.041076 C67.9481067,323.250009 67.4127242,339.461567 62.6502173,353.650677 C59.7655445,362.236088 59.5018487,371.564929 62.146798,380.302223 C64.3922081,380.981702 64.9036182,379.718671 65.7106874,378.783389 C67.420715,376.784923 68.7312035,372.548174 72.0553694,375.322046 C74.3167611,377.200604 71.1364293,379.790616 69.9617841,381.733125 C63.4892496,392.380954 58.9504846,403.284585 62.5783003,416.170696 C63.4253233,419.200371 62.6661989,422.533812 58.1194431,422.477855 C56.35348,417.241874 59.1502542,411.574223 55.7941252,406.250309 C53.956245,407.913033 52.0624293,408.912266 51.263351,410.47107 C41.8022634,429.056806 37.1356459,448.665757 39.3570837,469.617677 C39.5248901,471.136512 40.0922358,473.750506 40.8513602,473.902389 C51.1834431,475.924837 43.1127519,479.977727 41.4346874,482.072119 C31.5341067,494.46261 20.2271482,505.725966 11.3014431,519.091708 C23.7510837,524.447598 25.4611113,524.5755 32.6528164,520.546592 C34.0432127,524.239757 31.8457473,530.94661 38.7338026,530.267131 C44.0157104,529.739536 47.0362265,525.678653 47.8432957,520.506622 C51.6628901,495.981444 61.8031943,474.366033 76.8897934,454.749088 C83.4102726,446.267598 86.8383187,436.275266 86.606586,425.291696 C86.5426597,422.317978 86.2390099,420.095684 82.4194155,421.502604 L82.1157657,420.847107 L81.4685122,421.190843 C81.9159961,419.975776 82.3554892,418.760708 82.7949823,417.545641 C84.4330929,416.770236 84.7367427,415.243407 85.0004385,413.684604 C85.4079685,412.877223 85.8075076,412.077837 86.2150376,411.27845 L86.2150376,411.27845 Z M171.740392,366.448855 C172.147922,366.944475 172.555452,367.440095 172.962982,367.943708 C177.981194,374.522659 183.079314,381.037659 187.953692,387.72053 C189.136328,389.359273 191.677397,392.221076 189.56783,393.484107 C180.018844,399.19972 187.953692,402.964831 190.758457,407.185592 C193.203637,410.886751 198.653351,412.58145 196.639674,419.008518 C192.93195,430.855426 196.336024,441.647144 203.072254,451.631481 C207.890697,458.762009 212.653203,465.924512 217.335803,473.142972 C217.647443,473.622604 217.10407,474.661806 216.976217,475.301315 C213.811867,475.685021 214.331268,470.856727 210.495692,471.887935 C211.678328,476.620303 212.557314,481.320696 214.067572,485.813248 C215.06642,488.75499 216.584669,491.968524 220.635996,491.704727 C229.266042,491.145156 235.810494,495.893512 242.482798,500.218193 C246.797821,503.016046 251.096862,505.973776 256.306853,506.341493 C259.654992,506.581309 265.496254,505.861861 265.04078,502.856168 C264.177775,497.132561 266.670899,488.834929 256.970088,486.804487 C251.408503,485.637383 246.270429,482.559745 240.740807,481.1848 C231.719213,478.93053 228.259203,472.703309 228.131351,464.357714 C227.995508,455.116806 228.562853,445.859911 229.018328,436.611009 C229.425858,428.169487 229.425858,419.464168 223.672494,412.917193 C217.61548,406.026481 216.017323,398.84799 217.375756,390.142671 C217.991047,386.225677 218.158853,379.470861 213.94771,379.502837 C208.849591,379.534812 211.254816,386.105769 210.735415,389.878874 C210.016245,395.154825 211.534494,401.398033 203.056273,403.980052 C205.765148,392.22907 203.94325,380.64596 208.977443,370.349861 C212.053895,364.05869 212.956853,357.679585 212.876945,350.916776 C212.61325,329.141487 201.474098,311.147297 193.515277,292.721438 C180.266558,302.609849 169.582881,314.19296 163.238199,329.269389 C162.527019,330.964088 161.192558,332.866628 159.634356,333.650027 C150.053406,338.486315 155.70289,342.547199 160.129784,346.680027 C166.178807,352.339684 173.562291,356.520475 178.564521,363.31526 C179.379581,364.426407 181.465176,365.801352 179.595333,367.184291 C178.748309,367.815806 176.71066,366.840555 175.216383,366.584751 C174.56913,365.953236 173.921876,365.32172 173.274623,364.682211 C172.171895,363.307266 170.909351,362.803653 169.335167,363.938782 C170.134245,364.778138 170.941314,365.6095 171.740392,366.448855 L171.740392,366.448855 Z M59.3739961,300.019837 C66.7095353,292.99323 55.8420699,296.694389 55.8340791,294.000457 C58.3751482,288.948334 63.3054616,290.331273 67.6764201,289.795684 C67.4606689,288.404751 67.2289362,287.157708 67.0851021,285.894677 C66.7894431,283.256702 64.7438026,279.435634 68.8191021,278.820107 C71.8635906,278.364457 71.7517196,282.329414 72.2631298,284.719579 C72.8144938,287.333573 71.2562911,290.706984 74.9560238,292.14588 C84.7047795,295.95096 77.9285952,300.755273 77.4411574,306.502861 C73.3179132,303.409236 76.9617104,300.059806 74.2768072,298.501003 C72.8784201,297.685628 71.1683924,298.596929 69.9617841,299.796009 C67.6364662,302.11423 67.5965122,304.704242 68.6592864,307.717929 C71.184374,314.832469 76.3624017,315.767751 81.6602911,309.908248 C86.1111574,305.000015 89.1955998,288.108978 85.3760053,282.497285 C74.9640146,267.181039 67.6524477,249.810371 55.1548625,235.964996 C47.2999224,227.275665 39.1812864,218.210622 25.5649915,219.393714 C24.1426321,219.521616 23.0958394,218.762199 23.0558855,217.235371 C23.0239224,215.796475 24.1506228,214.31761 25.213397,214.613383 C32.1653786,216.587868 30.822927,210.992162 31.965609,207.562794 C32.9884293,204.485156 32.7167427,200.416279 39.3970376,199.337107 C29.8320699,214.645358 42.4015722,218.994021 50.6880146,225.580966 C51.9345768,226.572205 53.1172127,227.651377 54.3398026,228.674592 C60.2929362,233.622794 68.5074616,233.686745 72.9423464,228.027088 C77.2493786,222.543297 84.7127703,216.491941 73.4937104,210.128825 C72.4469178,209.529285 70.9206781,208.186315 72.327056,204.453181 C85.2721252,212.550966 96.4911851,225.021395 113.823194,221.663972 C129.037646,218.714236 144.899351,223.526542 160.033895,219.137911 C160.305581,226.636156 158.579572,228.482739 150.772577,227.59542 C138.802383,226.220475 126.664383,222.455365 115.10172,228.826475 C104.410051,234.70996 95.2046689,234.861843 87.5175353,223.998181 C86.4148072,222.447371 84.5609454,218.754205 81.7801528,222.647217 C78.3121528,227.507487 75.0998579,232.935322 80.9411205,237.835561 C85.6876459,241.8245 87.2458487,252.680168 97.4340975,246.564861 C98.6646781,251.800843 99.9432035,257.028831 101.109858,262.2808 C102.15665,267.021162 103.427185,271.377819 108.085812,274.215641 C132.665462,289.180156 158.643498,292.737426 186.20371,284.263929 C191.525572,282.633181 194.434217,279.347702 195.824614,273.680052 C198.357692,263.367966 199.812015,252.712144 204.222927,242.272156 C207.043674,248.963021 209.129268,249.674475 212.037913,245.062015 C215.258199,239.945941 216.928273,234.174371 216.368918,227.811254 C196.511821,235.109653 177.493756,232.55961 168.687913,220.241064 C193.363452,232.231861 215.106374,221.360205 237.584448,211.319911 C235.970309,217.507162 231.759167,218.786181 228.347102,221.056438 C225.526356,222.934996 220.108604,223.078886 221.778678,228.578665 C223.520669,234.286285 226.269498,239.258469 233.557093,239.106585 C239.438309,238.978684 244.688254,236.516573 250.233858,235.101659 C255.076273,233.870604 260.318227,231.224634 265.360411,236.724414 C256.139047,239.546248 247.19736,241.736567 238.687176,245.038033 C230.16101,248.347493 222.697618,253.343659 220.596042,263.391947 C223.952171,264.455131 224.455591,259.211156 227.739803,261.497401 C225.36654,268.372125 221.011563,273.983819 216.121203,278.916033 C205.637296,289.483923 201.865646,300.435518 212.045904,313.257677 C212.237683,313.505487 212.373526,313.809254 212.493388,314.105027 C216.201111,323.146088 217.927121,334.617285 232.654134,329.325346 C235.698623,328.238181 240.237388,333.9458 242.450835,328.086297 C244.696245,322.162843 246.829784,315.871671 242.842383,309.700407 C241.763627,308.037684 239.997664,306.838604 237.975996,307.294254 C235.16324,307.925769 236.361858,310.228003 236.593591,311.954677 C236.79336,313.513481 237.472577,315.128242 234.579913,315.735776 C234.084485,310.03615 224.135959,306.678727 230.200964,299.556193 C243.154024,284.335874 258.248614,270.810254 266.998521,249.202837 C269.180005,265.814088 255.515766,272.904647 253.574005,285.03134 C263.10701,275.966297 271.721074,266.309708 280.119388,256.46926 C282.085121,254.167027 281.797452,251.185315 281.054309,248.227585 C278.721001,238.866769 270.362641,231.968064 273.191379,219.953285 C274.661683,213.726064 267.90148,205.348493 262.172088,199.504978 C255.475812,192.670223 253.717839,192.965996 250.35372,201.159708 C248.803508,196.195518 247.445074,190.96753 245.527286,185.947383 C243.090098,179.568279 239.13466,174.148438 233.541111,170.11953 C224.519517,163.628512 218.302687,165.243273 209.225157,171.118763 C200.818853,176.562585 190.406862,178.768892 182.535941,185.707567 C180.298521,187.674058 176.351074,190.391972 174.153609,187.178438 C172.060024,184.108794 176.327102,181.782579 178.540549,179.928003 C185.963987,173.6768 195.720733,171.542438 203.623618,166.146579 C206.004872,164.523825 211.534494,163.164868 207.770835,158.696297 C204.598494,154.931187 197.72642,150.878297 194.953618,154.555475 C190.255038,160.798684 190.646586,155.986377 189.7676,153.372383 C188.864641,150.670457 188.505056,147.776677 187.993646,144.946849 C186.970826,139.287193 185.412623,136.481346 179.946927,142.085046 C175.855646,146.273831 170.118263,147.728714 164.356909,148.767917 C149.701812,151.413886 136.029581,148.488131 123.004604,141.189733 C122.684973,142.748536 122.261462,143.699806 122.341369,144.603113 C122.876752,150.47061 123.116475,155.075076 114.662227,151.062156 C110.594918,149.135634 105.816429,150.342708 103.235406,154.531493 C104.178319,158.576389 110.195379,156.458015 110.650853,161.893843 C103.27536,161.382236 96.2594523,160.902604 89.1077012,160.406984 C89.850844,157.393297 93.7823095,157.33734 92.9672496,154.155782 C71.0884846,154.203745 56.5212864,164.363947 51.15148,182.69388 C49.4574339,188.489432 48.7622358,192.430407 57.1365768,191.766917 C61.2678118,191.439168 66.1821436,191.982751 67.7723095,197.706358 C42.8091021,197.778303 42.8170929,197.778303 47.0681897,180.071892 C47.1640791,179.680193 46.4129454,179.080653 46.0533602,178.585033 C31.6379869,181.84653 6.48300073,208.665947 4.37343391,222.887033 C3.87001455,226.260444 4.91680718,229.258144 6.21131409,232.143929 C16.3276459,254.670641 32.0455169,271.345843 55.8340791,279.635481 C58.5429546,280.578757 62.4264754,280.794592 61.8351574,286.350328 C57.6000422,284.559702 53.2450652,283.176763 50.0167887,287.509438 C48.4665768,289.587843 49.2257012,292.04196 50.2245491,293.880549 C51.8227058,296.838279 53.9802173,293.137119 55.9219777,293.848573 C57.9116828,295.391389 56.4014247,296.702383 55.4025768,297.629671 C47.9471758,304.552358 53.0213233,310.94745 56.5772219,316.942849 C58.9025399,320.883825 60.9401897,319.412954 61.2997749,315.288119 C63.657056,313.665365 64.9275906,318.573598 66.8373878,316.511181 C68.8031205,314.4008 66.34995,312.522242 65.3431113,310.707634 C64.2883279,308.797101 62.1627795,306.878573 63.5132219,304.688254 C67.6364662,298.005383 60.2849454,301.954352 59.3739961,300.019837 L59.3739961,300.019837 Z M95.0288717,86.3678063 C95.3964477,86.6076222 95.7480422,86.855432 96.0916459,87.1272234 C92.6236459,93.0906468 93.5745491,100.125248 91.3690929,106.576297 C89.4273325,112.22796 94.3496551,118.974782 100.566485,118.583082 C107.550429,118.151414 110.043554,122.180322 113.615434,125.953426 C118.47383,131.0695 123.67583,135.737917 129.852706,139.279199 C154.640116,153.492291 181.273397,145.530401 193.347471,119.686236 C202.129342,100.884665 202.560844,81.4515793 195.489001,61.8666099 C194.618005,59.4684504 191.741323,57.4539965 193.683084,54.3523768 C198.34171,54.5682112 199.188733,51.5385363 198.765222,47.9333032 C198.285775,43.920383 195.808632,42.1857142 191.733333,43.0250701 C195.369139,36.8857817 198.125959,30.530659 195.568909,23.248248 C194.937637,21.4336406 194.010706,17.7484688 191.325803,20.7141928 C183.087305,29.8431866 176.438973,23.3361805 169.534936,19.043475 C164.332936,15.7979658 158.883222,11.6171744 152.7463,14.2151805 C146.649333,16.7971989 143.884521,14.183205 141.071766,9.88250566 C138.634577,6.14137682 135.254475,2.76796578 130.843563,5.12615596 C122.557121,9.54676332 113.78324,13.7035731 106.287886,18.7956652 C96.5231482,25.4225793 89.2834984,36.1103768 84.7926781,47.6455241 C79.4228717,61.4429351 79.263056,74.2730885 89.483268,87.0153093 C94.0300238,92.6829596 93.2629086,85.8561989 95.0288717,86.3678063 L95.0288717,86.3678063 Z M108.06983,282.457315 C122.924697,296.966181 136.261314,311.706868 139.865157,332.618819 C140.656245,337.199303 143.341148,336.128125 146.193858,335.312751 C156.086448,332.498911 162.543001,325.983911 166.490448,316.65507 C168.44819,312.018628 169.343157,306.167119 174.137627,303.87288 C180.058798,301.035058 182.663793,296.230745 186.251655,289.755714 C158.25195,299.708076 133.280752,290.73896 108.06983,282.457315 L108.06983,282.457315 Z M91.4809639,281.961696 C95.6601436,277.421181 96.2994063,272.928628 94.9090099,268.643917 C93.4387058,264.095407 96.6749731,256.757039 90.6179593,255.262187 C81.0929454,252.903996 77.1774616,246.476929 74.1649362,238.499052 C73.030245,235.501352 71.663821,233.51088 67.8761897,235.149622 C63.9447242,236.852315 64.9675445,239.090598 66.3739224,241.912432 C73.3179132,255.877714 81.2287887,269.203487 91.4809639,281.961696 L91.4809639,281.961696 Z M225.326586,239.961929 C210.839296,247.779929 198.022079,275.878365 200.946706,291.890076 C207.1076,281.530027 217.136033,273.072518 216.049286,259.139211 C215.841526,256.517223 218.798116,253.591469 220.436227,250.897536 C222.346024,247.747954 225.182752,245.078003 225.326586,239.961929 L225.326586,239.961929 Z" id="Fill-5" sketch:type="MSShapeGroup"></path>
            <path d="M60.7395403,315.456481 C60.3799551,319.573321 58.3423053,321.044192 56.0169873,317.103217 C52.4610887,311.107818 47.3869412,304.712726 54.8423422,297.790039 C55.8411901,296.862751 57.3514482,295.551757 55.3617431,294.000947 C55.3697339,293.984959 55.2578629,294.176812 55.2658537,294.168818 C55.2818353,296.854757 66.1493007,293.153597 58.8137615,300.180205 L59.053485,300.028321 C52.9645081,305.504119 52.9724989,306.966996 59.1254021,311.771309 L58.9735772,311.547481 C57.2715403,314.08953 58.7658168,315.064781 61.0032362,315.664321 L60.7395403,315.456481" id="Fill-172" sketch:type="MSShapeGroup"></path>
            <path d="M191.208409,43.2238282 C195.283708,42.3844724 197.760851,44.1191411 198.240298,48.1320613 C198.66381,51.7372945 197.816787,54.7669693 193.15816,54.551135 L193.381902,54.7030184 C193.645598,50.6581227 189.642215,47.3006994 191.488086,43 L191.208409,43.2238282" id="Fill-174" sketch:type="MSShapeGroup"></path>
            <path d="M236.517802,300.894546 C235.343157,302.045663 234.216456,304.803546 232.482456,302.972951 C230.956216,301.366184 233.417378,300.039202 234.791792,299 C235.367129,299.631515 235.942465,300.263031 236.517802,300.894546" id="Fill-175" sketch:type="MSShapeGroup"></path>
            <path d="M82.6072995,417.363883 C82.40753,416.164804 82.2077604,414.973718 82,413.782632 C82.3915484,413.183092 82.775106,412.591546 83.1666544,412 C83.7180184,412.503613 84.2613917,412.999233 84.8127558,413.502847 C84.5490599,415.06165 84.2454101,416.588479 82.6072995,417.363883" id="Fill-176" sketch:type="MSShapeGroup"></path>
            <path d="M171.405226,366.136327 C170.606147,365.296971 169.799078,364.465609 169,363.626253 C170.574184,362.491124 171.836728,362.994738 172.939456,364.369683 C172.428046,364.961229 171.916636,365.544781 171.405226,366.136327" id="Fill-177" sketch:type="MSShapeGroup"></path>
            <path d="M86.4691521,409.271025 C86.6689217,409.934515 86.4931244,410.478098 85.9417604,410.901773 C85.2945069,410.909767 84.6472535,410.917761 84,410.917761 C84.2876682,409.950503 84.5833272,408.975252 84.8709954,408 C85.4063779,408.423675 85.9337696,408.84735 86.4691521,409.271025" id="Fill-178" sketch:type="MSShapeGroup"></path>
            <path d="M83.9189401,411.015988 C84.5661935,411.015988 85.213447,411.007994 85.8607005,411 C85.4531705,411.799387 85.0536313,412.598773 84.6461014,413.406153 C84.0947373,412.90254 83.5513641,412.40692 83,411.903307 C83,411.295773 83.3116406,411 83.9189401,411.015988" id="Fill-179" sketch:type="MSShapeGroup"></path>
            <path d="M172.53423,365 C173.181484,365.639509 173.828737,366.271025 174.475991,366.90254 C173.724857,367.35819 172.973724,367.805847 172.22259,368.261497 C171.81506,367.757883 171.40753,367.262264 171,366.766644 C171.51141,366.175098 172.02282,365.591546 172.53423,365" id="Fill-180" sketch:type="MSShapeGroup"></path>
            <path d="M128,252.909584 C145.53977,232.373345 173.467558,231.613928 185.317889,251.238866 C174.61823,248.984596 167.850037,238.352756 156.503124,241.230547 C146.938157,243.660682 139.602618,251.35078 128,252.909584" id="Fill-274" sketch:type="MSShapeGroup"></path>
            <path d="M112.554384,165.101728 C127.561076,167.116182 139.659122,174.974152 152.49232,181.001526 C154.114449,181.760943 155.04138,183.007986 154.114449,184.758643 C152.748025,187.356649 150.526587,187.044888 148.41702,185.909759 C142.567767,182.776164 136.878329,179.330808 130.949168,176.365084 C124.972062,173.391366 118.5235,171.7846 111.939094,170.601508 C110.021306,170.249778 106.737094,170.505581 107.016772,167.37998 C107.392338,163.087274 111.068099,166.124943 112.554384,165.101728" id="Fill-275" sketch:type="MSShapeGroup"></path>
            <path d="M178.052111,270.040959 C166.649263,270.040959 156.205309,270.096916 145.761355,269.992996 C143.915484,269.969014 142.085594,269.25756 140,268.809904 C148.342378,260.63218 166.920949,261.127799 178.052111,270.040959" id="Fill-276" sketch:type="MSShapeGroup"></path>
            <path d="M181.181295,254.61961 C178.552328,258.088948 176.179065,257.785181 174.101461,257.185641 C167.381212,255.259119 160.788816,253.588402 153.669028,255.682794 C151.727268,256.250359 147.779821,257.145671 147.116586,253.988095 C146.325498,250.246966 149.705599,248.720138 152.861959,247.680935 C157.376752,246.194076 161.787664,247.425132 165.982825,248.680168 C171.088936,250.206997 175.955323,252.533211 181.181295,254.61961" id="Fill-277" sketch:type="MSShapeGroup"></path>
            <path d="M156.837519,153 C156.709666,171.273975 157.812394,173.14454 168.88762,175.031092 C165.907058,180.490902 164.428763,180.954546 159.714201,177.916877 C152.314735,173.14454 150.556763,162.392791 156.837519,153" id="Fill-278" sketch:type="MSShapeGroup"></path>
            <path d="M167.165502,215.328724 C166.446332,205.224479 165.727161,195.112239 165,185 C172.319558,194.536681 172.055862,204.720865 169.882369,215.07292 C168.97941,215.160853 168.068461,215.248785 167.165502,215.328724" id="Fill-279" sketch:type="MSShapeGroup"></path>
            <path d="M137.02154,154 C142.663033,156.126368 143.981512,161.066577 145.419853,165.822926 C146.322812,168.78865 144.021466,170.563288 141.951853,169.667975 C136.845743,167.445681 137.005558,161.730067 135.263568,157.325448 C134.608323,155.662724 135.167678,154.391699 137.02154,154" id="Fill-280" sketch:type="MSShapeGroup"></path>
            <path d="M191.692277,43.1825456 C189.846406,47.483245 193.849788,50.8406683 193.586092,54.885564 C187.808756,53.1908646 186.202608,43.4143677 177.828267,46.7637972 L177.964111,46.9156806 C175.327152,41.9035272 170.388848,39.1536376 166.53729,35.3485579 C165.498489,34.333337 162.96541,33.1262634 162.422037,33.5819137 C154.662986,39.9849996 146.608277,35.2046683 138.649456,34.6450978 C134.214572,34.333337 130.642691,36.5636254 127.989751,40.0569444 C124.250065,44.9571837 120.446452,48.0827849 113.566387,44.8532634 C108.963696,42.7029137 104.121281,44.6534168 100.501456,48.3465824 C97.7446361,51.1684168 96.4341476,55.6689628 99.8621937,57.5395272 C107.773069,61.8322327 101.955779,65.5973432 100.405567,69.6662205 C99.8302306,71.1930487 99.1829771,72.9197235 97.1772905,72.2082695 C94.72412,71.352926 95.3553919,68.9387788 95.9467098,67.4199444 C96.713825,65.4534536 100.613327,64.3822757 97.0254656,61.5124781 C92.2230048,57.6594352 90.2572721,52.935061 93.837143,47.2913922 C97.6247744,41.3279689 103.921512,37.7147419 110.138341,40.0569444 C118.768387,43.3184413 122.779761,39.7371898 127.142728,33.5179628 C131.106157,27.8583064 136.276194,25.8998094 142.628867,30.7600794 C146.352572,33.6058953 150.667595,34.9328769 154.990608,31.7193432 C162.821576,25.8998094 168.814664,29.1613064 173.721005,35.7802266 C178.331687,42.0074475 183.829346,45.2449628 191.692277,43.1825456" id="Fill-281" sketch:type="MSShapeGroup"></path>
            <path d="M143.495653,96 C146.548133,97.4708712 143.655469,100.684405 146.755893,102.387098 C153.364271,106.016313 179.661939,105.680571 185.766898,100.996166 C187.213229,99.8930123 187.309119,96.0559571 190.449497,98.6219877 C192.159524,100.01292 194.444888,102.083331 193.44604,104.105779 C192.21546,106.607859 192.710888,109.933307 189.107045,111.580043 C173.085524,118.942393 157.079985,122.747472 140.419202,113.586503 C139.68405,113.18681 138.621276,112.986963 137.814206,113.170822 C135.177248,113.778356 139.795921,117.847233 135.728612,117.775288 C135.017432,117.767294 133.938676,116.800037 133.698953,116.056607 C132.268603,111.604025 130.047165,107.111472 135.385008,103.338368 C138.36557,101.227988 140.858695,98.4221411 143.495653,96 L143.495653,96 Z M187.357064,103.698092 C172.310418,114.865521 155.681598,105.560663 138.05393,107.047521 C155.577718,117.983129 177.42452,116.360374 187.357064,103.698092 L187.357064,103.698092 Z" id="Fill-282" sketch:type="MSShapeGroup"></path>
            <path d="M158.008677,66 C165.999461,70.4126135 168.908106,78.6782699 173.982253,84.8255521 C176.147756,87.4475399 172.703728,93.2271043 168.212908,95.4733804 C167.501728,95.8251104 166.271147,95.8410982 165.599921,95.4573926 C164.273451,94.6899816 164.233498,93.0112699 165.152438,92.1639202 C171.712871,86.1285521 165.88759,82.0756626 162.994926,77.5111656 C160.845405,74.1297607 157.816898,71.1240675 158.008677,66" id="Fill-283" sketch:type="MSShapeGroup"></path>
            <path d="M136.616135,80.7670244 C132.660698,81.3665642 130.663002,80.135509 131.046559,76.8899998 C131.56596,72.4534047 133.70749,68.9840673 138.733693,69.000055 C142.872919,69.0160428 145.541841,72.1656256 145.33408,75.634963 C144.990477,81.3505765 139.085288,79.24819 136.616135,80.7670244" id="Fill-284" sketch:type="MSShapeGroup"></path>
            <path d="M181.346339,64 C185.141961,64.9672577 187.227556,67.7011595 187.283491,71.3783374 C187.355408,75.3832638 183.871427,74.9755767 181.122597,75.2473681 C176.655749,75.6870307 175.784754,72.9611227 176.040459,69.4118466 C176.25621,66.2382822 177.862358,64.2158344 181.346339,64" id="Fill-285" sketch:type="MSShapeGroup"></path>
            <path d="M125,64.4507109 C126.006839,56.4968152 128.851558,52.6197907 134.245336,51.0689809 C135.851484,50.6053367 138.216756,52.603803 137.825207,53.3392386 C135.268157,58.167533 130.321862,60.2779134 125,64.4507109" id="Fill-286" sketch:type="MSShapeGroup"></path>
            <path d="M177.614541,46 C177.670476,49.9489693 183.51973,47.9425092 183.511739,52.7947853 C179.636209,52.2671902 174.530098,55.6805706 172.308661,50.1008528 C170.510734,45.584319 177.127103,49.2854785 177.758375,46.1598773 C177.750384,46.1518834 177.614541,46 177.614541,46" id="Fill-287" sketch:type="MSShapeGroup"></path>
            <path d="M175.281036,123.001375 C171.069893,127.222136 167.474041,128.38924 163.270889,126.358798 C162.935276,126.198921 162.87934,124.272399 163.28687,123.960639 C166.555101,121.482541 170.158944,121.578467 175.281036,123.001375" id="Fill-288" sketch:type="MSShapeGroup"></path>
            <path d="M97,82.3859016 C97.7031889,77.621558 99.2933548,73.888423 105.46224,75.3033372 C104.391475,79.2603003 100.827585,81.0269445 98.4303502,83.7448586 C97.9509032,83.2892083 97.4714562,82.8415519 97,82.3859016" id="Fill-289" sketch:type="MSShapeGroup"></path>
            <path d="M98.9874009,84.3589571 C98.0125253,85.3182209 97.0456406,86.2774847 96.070765,87.2367485 C95.7271613,86.9649571 95.3755668,86.7171472 95,86.4773313 C95.8550138,85.3182209 96.7020369,84.1591104 97.5570507,83 C98.0285069,83.4556503 98.5079539,83.9033067 98.9874009,84.3589571" id="Fill-290" sketch:type="MSShapeGroup"></path>
            <path d="M84.0984372,410.877314 C83.4911376,410.861326 83.1794971,411.157099 83.1794971,411.764633 C82.7879487,412.356179 82.4043911,412.947725 82.0128427,413.547265 C79.4637828,414.2827 78.5448427,413.395381 79.2080777,410.789381 C80.3667413,406.192909 81.5094233,401.596436 82.5961699,396.975982 C82.9477643,395.457148 82.8998196,393.562602 85.2411192,394.090197 C87.1269441,394.513872 87.5184924,395.960762 87.1269441,397.743393 C86.3758104,401.140786 85.6806123,404.554166 84.9694325,407.959553 C84.6817643,408.934805 84.3861054,409.910056 84.0984372,410.877314" id="Fill-291" sketch:type="MSShapeGroup"></path>
            <path d="M59.5547954,300 C59.5787678,303.916994 59.6027401,307.825994 59.6267125,311.742988 C53.4738093,306.938675 53.4658185,305.475798 59.5547954,300" id="Fill-293" sketch:type="MSShapeGroup"></path>
            <path d="M58.7350719,312 C60.9005742,312.639509 61.5877816,314.00646 60.7647309,316.11684 C58.5273115,315.517301 57.033035,314.542049 58.7350719,312" id="Fill-294" sketch:type="MSShapeGroup"></path>
        </g>
    </g>
</svg>