<?xml version="1.0" encoding="UTF-8" standalone="no"?>
<svg width="321px" height="437px" viewBox="0 0 321 437" version="1.1" xmlns="http://www.w3.org/2000/svg" xmlns:xlink="http://www.w3.org/1999/xlink" xmlns:sketch="http://www.bohemiancoding.com/sketch/ns">
    <!-- Generator: Sketch 3.3.3 (12081) - http://www.bohemiancoding.com/sketch -->
    <title>Group</title>
    <desc>Created with Sketch.</desc>
    <defs></defs>
    <g id="Page-1" stroke="none" stroke-width="1" fill="none" fill-rule="evenodd" sketch:type="MSPage">
        <g id="Group" sketch:type="MSLayerGroup" fill="#20F61F">
            <path d="M208.068988,44.0906771 C208.140905,43.7789163 208.260766,43.4671556 208.29273,43.1553949 C209.539292,27.0317691 209.547283,26.975812 225.369034,30.6210145 C229.596158,31.596266 233.90319,33.4508427 233.239955,26.088493 C233.016213,23.5944071 232.440877,20.3009347 235.677144,19.6454378 C239.344914,18.9100022 241.630278,21.8037814 242.780951,24.8654317 C246.928167,35.8969654 250.859633,47.0164317 254.791098,58.1358979 C258.714573,69.207401 261.207697,80.8784439 269.534094,89.9834562 C272.994103,93.7565605 271.419919,98.4169838 270.41308,102.77364 C268.487301,111.071272 264.923412,119.185045 269.134554,127.938327 C270.445043,130.656241 268.711043,133.789837 266.473624,135.676389 C253.912112,146.26826 258.346997,162.184045 253.960057,175.325959 C253.033126,178.09983 256.261402,179.602677 258.187181,181.153487 C266.13002,187.564567 274.360527,193.647898 282.031679,200.362745 C285.323882,203.240536 286.890075,201.417935 289.199412,199.643297 C294.289541,195.734297 299.803181,192.456812 305.90814,190.506309 C309.78367,189.26726 314.17061,187.796389 317.622628,191.329677 C321.242453,195.03883 320.443375,199.907094 318.829237,203.983965 C313.019937,218.668695 303.726656,230.515603 289.3832,237.893941 C278.26802,243.601561 274.616232,251.739315 276.84566,264.409591 C278.619614,274.497849 276.142472,284.050518 272.266942,293.331395 C271.236131,295.793505 268.695061,299.350775 272.76237,300.429947 C280.904978,302.604278 280.241743,309.255174 280.928951,314.906837 C282.678932,329.351751 280.785117,343.58083 277.037439,357.578088 C276.550001,359.408683 276.062564,361.503076 274.863946,362.846045 C259.569587,380.096806 248.526324,400.489156 233.69543,418.115628 C219.599688,434.862775 202.922923,439.675082 181.2679,435.670156 C146.476029,429.2271 111.252656,425.142235 76.2130706,420.066131 C76.013301,419.506561 75.9733471,418.938996 76.1011997,418.363438 C79.3374669,414.942064 83.7323978,416.860591 87.4960568,415.901327 C95.0233748,415.84537 102.558684,415.573579 110.253808,415.709475 C102.055264,414.702248 93.8567204,413.695021 85.6501858,412.687794 C82.5737342,412.200168 79.4892918,411.704548 76.4128402,411.208929 C75.0144531,411.049051 73.6080752,410.897168 72.2096881,410.745284 C59.3365361,408.73083 46.4713748,406.716376 33.5982227,404.701922 C28.3882319,403.886548 22.6029047,404.629978 19.0789692,399.290076 C52.3206282,403.398922 85.642195,406.956192 118.779974,411.784487 C145.581061,415.685493 171.87873,423.015867 199.167255,423.527475 C201.708324,423.575438 206.46284,425.949616 206.239098,420.449837 C206.079283,416.516855 205.376094,411.792481 199.862453,411.208929 C196.378472,410.833217 192.846545,410.945131 189.338591,410.745284 C184.544121,410.473493 179.597826,410.577413 173.660674,405.365413 C182.378619,405.964953 188.61143,406.652426 194.844241,406.708383 C197.625034,406.732364 202.347587,408.467033 202.627264,404.094389 C202.811052,401.120671 198.352195,401.248573 195.579393,400.593076 C191.76779,399.697763 186.765559,401.16064 184.520149,395.956634 C190.848849,393.310665 196.993762,399.873628 203.634103,395.325119 C196.130757,387.802892 186.869439,386.859616 177.89579,385.756462 C137.342564,380.784278 96.8053195,375.780119 56.5077987,368.945364 C40.9817066,366.307389 25.3037895,364.57272 9.28226878,362.366413 C10.121301,366.771033 12.7982135,366.139518 14.8278725,366.499241 C26.7661029,368.617616 38.7602688,370.472192 50.6345729,372.910321 C53.3194762,373.461898 58.897043,372.190873 58.2577803,376.075892 C57.5386098,380.432548 53.2235868,376.835309 50.4507849,376.54753 C37.3459001,375.220548 24.2410153,373.917548 9.7057803,372.462665 C14.1406651,381.15999 21.0367112,380.360603 27.0297987,381.032088 C51.1379923,383.742008 75.2701582,386.196125 99.3783517,388.858082 C102.83037,389.233794 106.825762,388.794131 109.742398,393.646407 C76.8043886,390.536794 44.8732181,387.515113 12.9340568,384.501426 C12.7902227,385.660536 12.6383978,386.82764 12.4945637,387.994745 C30.0662964,392.471309 48.3492089,393.782303 66.0647757,397.707291 C49.2601582,400.385235 33.1107849,394.89345 16.5938356,395.413051 C13.6771997,395.676849 10.9283702,396.660094 9.95349459,391.999671 C8.65898767,385.764456 6.62932869,379.681125 6.59736555,373.230076 C6.5733932,369.145211 6.99690473,365.436057 2.55402915,362.446352 C-2.42422892,359.104916 0.907927767,355.211904 3.84054528,352.094297 C8.39529182,347.258008 14.660066,344.140401 18.3677895,337.329628 C14.9237619,335.858757 11.4957158,334.627702 8.3073932,332.94899 C6.30170657,331.8938 4.49578952,329.855364 5.43870196,327.473192 C6.3336697,325.186947 7.46836095,321.965419 11.2719738,324.043824 C10.3130798,326.497941 7.91584482,329.24783 12.3826927,330.742683 C16.8815038,332.237536 20.7650245,335.083352 25.7033287,335.746843 C47.5501305,338.688585 68.9894024,343.82864 90.5725084,348.185297 C96.7893379,349.440334 102.974204,352.110284 109.646508,350.127806 C77.0600937,340.279364 43.1152457,335.786812 11.0322503,324.251665 C10.0573748,320.278714 14.1646374,320.350659 15.8187296,318.671947 C27.5811628,306.721119 29.2592273,289.006714 19.4785084,276.384401 C15.8986374,271.771941 20.3095499,270.820671 22.8905729,270.580855 C37.1061766,269.253873 49.8434854,262.890757 63.3798725,259.317499 C67.8946651,258.134407 70.1880199,257.103199 66.1127204,252.882438 C53.6790614,240.012315 50.7464439,223.209211 46.942831,206.76583 C46.1117895,203.160597 46.2476328,199.947064 41.0296513,198.540143 C26.5583425,194.655125 20.2855775,186.213603 18.8232642,171.009272 C18.1680199,164.222481 19.0390153,157.507634 20.9887665,151.096554 C26.8060568,131.93526 35.9395222,114.468665 49.1323056,99.3122967 C56.9552826,90.3271924 66.0647757,83.6283335 78.9619001,85.4749163 C80.7438448,85.73072 82.6456513,85.8106587 82.7495315,83.956082 C83.1890245,76.1141004 88.375043,79.159763 92.4103886,79.4635298 C93.577043,84.2198795 89.1261766,81.8137262 87.6319001,83.1966648 C86.6969785,84.0520084 85.5063517,84.7314869 86.1056605,86.2423274 C86.2974393,86.7299531 87.0725453,87.4653887 87.3522227,87.3774562 C90.6124623,86.3302599 94.6158448,85.9385605 96.8292918,83.7642292 C98.8349785,81.7897446 95.606702,79.7353212 93.7128863,78.2884317 C89.8533379,73.2123274 88.7106559,67.1050145 92.7939462,62.516536 C98.8429692,55.7137568 99.3144255,47.7518673 100.057568,39.7180329 C101.671707,22.1714992 110.869098,12.7547262 127.593808,6.28768934 C140.46696,1.31550529 152.173458,-0.419163417 165.158481,2.05893474 C167.300011,2.47461572 170.648149,1.77914947 171.255449,3.82557891 C173.660674,11.9553397 179.63778,17.8787936 183.481347,25.081266 C174.779384,24.4657384 170.408425,19.9092354 170.400435,11.0760145 C170.392444,7.34287953 168.61849,5.16854824 164.407347,5.5442599 C152.70884,6.58346235 141.186131,3.97746235 129.303836,9.83696542 C116.143015,16.3359777 104.987882,27.4874194 104.644278,41.844401 C104.444508,49.9261985 104.636287,57.600309 97.4206098,63.6836403 C93.7768126,66.7612783 93.9765821,72.7406893 97.6603333,75.8023397 C101.919421,79.3436219 103.253882,73.3722047 104.995872,71.2618243 C109.183043,66.2176955 112.746932,64.3151556 119.371292,67.9363765 C128.600647,72.9884992 139.116518,74.9150206 149.33673,77.5130268 C156.808112,79.4075728 159.453061,78.0406219 157.727052,70.1826525 C157.279568,68.1761924 157.239614,65.6101617 160.15625,64.8587384 C162.337734,66.0018611 162.481568,68.1362231 162.034084,69.8868795 C159.74073,78.8240206 164.063743,81.3021188 172.022564,80.6706035 C174.563633,80.462763 177.144656,80.5027323 179.685725,80.6706035 C185.838628,81.0782906 187.229025,78.0006525 186.66967,72.4129409 C185.65484,62.2927077 180.364942,53.747266 177.064748,44.4743826 C176.689181,43.4351801 175.322757,41.9003581 174.571624,41.9882906 C167.915301,42.7557016 165.102545,37.5437016 161.354868,33.8105666 C158.717909,31.1885789 155.569541,28.9662844 152.005651,30.5490697 C144.606186,33.8585298 139.635919,31.7401556 134.641679,25.6967936 C130.566379,20.7725728 123.973983,22.5072415 124.365531,28.04699 C124.797034,34.0903519 122.983126,36.9681433 118.748011,41.3168059 C113.282315,46.936493 110.869098,46.7526341 106.817771,40.6533151 C110.541476,39.0945114 114.041439,37.6236403 117.541402,36.1527691 C119.706905,35.2414685 121.440905,34.3621433 120.450048,31.2685176 C118.795955,26.1204685 119.850739,21.5399838 125.260499,19.3336771 C130.630306,17.1433581 135.448748,18.6701863 138.73296,23.4345298 C142.081098,28.3107875 146.004573,29.1581372 150.942877,26.2243887 C157.343495,22.4113151 161.674499,24.5057077 164.95072,30.7409225 C166.205273,33.1310881 167.09225,36.8562292 170.600204,36.4885114 C180.724527,35.4093397 181.635476,42.8036648 183.481347,49.6304255 C187.013273,62.7163826 190.521227,63.6836403 200.501716,54.5146771 C201.085043,53.9710943 202.107863,53.8991495 202.922923,53.6113703 C202.195762,63.4278366 198.376167,71.8213949 188.691338,78.6961188 C203.106711,78.9679102 204.033642,78.4163335 206.063301,67.8804194 C206.958269,63.2199961 207.197992,58.4316709 207.733375,53.7072967 L208.068988,44.0906771 L208.068988,44.0906771 Z M109.638518,172.000511 C110.37367,172.008505 111.100831,172.008505 111.827992,172.016499 C111.628223,171.368996 111.420462,170.721493 111.220693,170.07399 C109.526647,165.165757 104.428527,164.710107 100.904591,162.200033 C98.3795038,160.401413 96.637513,158.227082 97.5085084,154.957591 C98.4194577,151.528223 101.19226,150.88072 104.244739,150.976646 C106.154536,151.040597 108.072324,151.512235 109.96614,151.408315 C112.435292,151.264426 116.29484,153.814468 116.790269,149.090094 C117.133872,145.796622 115.719504,142.599076 111.851965,141.943579 C106.841743,141.088235 101.767596,140.584622 96.7254116,139.937119 C94.8715499,139.697303 92.4503425,139.841192 92.3704347,137.3551 C92.3065084,135.340646 94.0644808,133.79783 96.046195,133.462088 C100.473089,132.702671 104.963909,132.263008 109.774361,131.655475 C106.993568,126.115726 102.710508,123.605653 97.8441213,123.693585 C84.5554485,123.933401 74.7427665,131.487603 68.0305084,141.879628 C62.5008863,150.42507 64.7542872,160.537309 68.8136052,169.386518 C72.1857158,176.740873 77.7073471,177.236493 83.4926743,170.969303 C88.1752734,165.893199 93.2254485,165.509493 99.0667112,167.7158 C102.62261,169.058769 106.114582,170.56961 109.638518,172.000511 L109.638518,172.000511 Z M180.396905,323.540211 C179.861522,322.237211 179.701707,319.607229 178.135513,320.37464 C176.073891,321.381867 177.879808,323.516229 178.479117,325.122996 C180.676582,334.995419 182.89802,344.859849 176.761098,357.21037 C181.707393,354.084769 184.32837,352.549947 186.821495,350.831266 C210.665992,334.347916 234.526472,317.888548 258.299052,301.301278 C270.205319,292.995653 275.375356,275.329211 270.045504,260.748401 C261.870932,267.830965 254.799089,264.009898 247.7672,258.646014 C240.83919,253.370064 234.094969,247.286732 223.69896,250.01264 C225.896425,255.520413 228.381559,260.388677 229.732001,265.54472 C231.066462,270.628818 233.375799,270.05326 237.283292,268.726278 C243.835734,266.511978 252.633587,262.4431 256.876693,268.526432 C261.351531,274.945505 255.877845,283.107241 251.906425,289.638229 C248.726094,294.866217 244.227283,299.094972 239.073227,302.332487 C232.888361,306.225499 226.367882,309.558941 220.03119,313.220131 C218.185319,314.283315 215.915937,314.667021 215.068914,317.257033 C210.13061,332.373432 191.639937,335.682892 180.396905,323.540211 L180.396905,323.540211 Z M225.792545,414.534376 C229.851863,413.431223 231.545909,409.762039 233.815292,406.844278 C242.812914,395.285149 250.659863,382.646849 260.776195,372.190873 C275.878776,356.570861 276.645891,337.633395 276.653882,318.12037 C276.661872,315.026745 276.725799,311.437499 273.593412,308.136033 C258.123255,335.091346 240.551522,359.640505 223.171568,384.317567 C221.733227,386.363996 219.959273,388.194591 221.485513,391.12834 C225.169264,398.194916 224.066536,406.052886 224.905568,413.5911 C224.162425,414.278573 223.978637,414.982033 224.841642,415.717468 C225.161273,415.325769 225.472914,414.926076 225.792545,414.534376 L225.792545,414.534376 Z M75.4459554,317.129131 C63.8593195,316.473634 52.9998448,312.55664 41.9006467,309.694837 C33.6461674,307.568468 31.8402503,307.824272 26.2387112,312.412751 C48.2373379,317.856573 69.7645084,323.180487 91.2836881,328.504401 C91.0759278,329.327769 90.8601766,330.159131 90.6444255,330.982499 C89.7414669,330.982499 88.8145361,331.102407 87.9275591,330.966511 C69.6286651,328.072732 51.6174393,323.835984 33.6142043,319.479327 C28.5640291,318.256266 22.6508494,316.145886 18.7273748,323.252432 C52.256702,330.119162 85.0748494,336.865984 117.30967,346.090904 C131.029845,350.015892 145.005725,351.670622 159.756711,348.561008 C139.196425,343.820646 118.644131,339.088278 98.0918356,334.347916 C98.3555315,333.316708 98.6192273,332.293493 98.8829232,331.262284 C117.869025,334.539769 136.847135,337.817254 155.729356,341.078751 C158.21449,331.917781 154.626628,328.480419 146.412103,326.841677 C134.234149,324.411542 122.287928,320.790321 110.27778,317.528824 C104.572361,315.978014 98.4913748,315.30653 93.2014762,311.237653 C97.1489232,309.678849 100.513043,310.79799 103.765292,311.589383 C118.644131,315.210603 133.451052,319.127597 148.353863,322.636904 C151.526204,323.380334 156.208803,327.297327 157.934813,321.277947 C159.860591,314.571094 153.276186,315.642272 149.999965,314.643039 C137.182748,310.758021 124.269642,307.144794 111.276628,303.875303 C83.8522596,296.976597 56.3559738,290.357677 28.8836605,283.618849 C28.532066,284.450211 28.1804715,285.281573 27.8288771,286.112935 C39.0719093,297.280364 57.9860937,292.875745 70.5875591,304.538794 C59.4563978,303.899284 50.5306927,300.174143 41.2294209,298.191665 C37.7774024,297.456229 32.0320291,293.7151 30.7215407,298.935094 C29.6587665,303.203818 36.2032181,302.916039 39.5593471,304.075149 C51.7692642,308.287916 65.2177527,308.743567 76.3648955,316.21783 C76.0612457,316.521597 75.7496052,316.825364 75.4459554,317.129131 L75.4459554,317.129131 Z M265.01131,302.092671 C262.422296,303.947248 259.785338,305.745867 257.25226,307.664395 C232.584711,326.354051 207.421734,344.340248 181.36379,361.047426 C176.545347,364.133057 170.120757,369.920616 166.109384,367.370573 C156.368619,361.175327 146.236306,365.06834 136.551476,363.117837 C102.822379,356.315057 69.484831,347.649708 35.5559646,341.734248 C23.5697895,339.647849 14.476278,344.356235 9.57792777,356.666788 C50.4427941,359.21683 90.7802688,365.356119 130.933955,372.502634 C155.401734,376.859291 180.612656,376.515554 204.473135,384.36553 C208.132914,385.56461 209.035872,383.022561 210.394306,381.144002 C229.124702,355.3478 247.783181,329.487646 266.457642,303.643481 C266.737319,302.995978 267.016997,302.348475 267.296674,301.700972 C266.53755,301.836867 265.778425,301.964769 265.01131,302.092671 L265.01131,302.092671 Z M67.0955868,241.067505 C66.3684255,240.89164 65.649255,240.723769 64.9220937,240.555898 C65.0020015,241.259358 65.0739186,241.962818 65.1458356,242.666278 C73.8797619,259.813119 88.6786927,267.015591 107.089458,268.374548 C115.695531,269.014057 124.277633,269.941346 132.883707,270.460947 C154.922287,271.803916 172.446075,279.893708 181.124066,301.828873 C182.138896,304.402898 183.177697,307.216738 186.36602,309.215205 C196.46637,295.537702 209.427421,284.809935 222.859928,274.609763 C225.480905,272.611297 226.599614,270.812677 225.049402,267.423278 C218.153356,252.346849 212.831495,236.542978 203.841863,222.465781 C192.031485,203.983965 175.562481,193.743824 153.252213,196.301861 C130.846057,198.867892 117.845052,213.560616 109.702444,233.401389 C108.407937,236.566959 108.272094,241.267352 103.917117,241.163432 C98.5393195,241.03553 103.837209,234.816303 99.9297158,232.817837 C89.8053932,238.0778 78.706195,240.651824 67.0955868,241.067505 L67.0955868,241.067505 Z M206.207135,215.303278 C215.43649,182.544419 224.194389,150.42507 233.671458,118.521554 C236.04472,110.527689 233.975107,108.489254 226.287974,106.850511 C195.930988,100.367487 164.74296,100.271561 134.417937,94.5319654 C118.596186,91.534266 109.950158,98.1931556 102.071246,109.440524 C98.9148863,113.94107 97.3167296,117.322475 104.955919,119.368904 C110.565449,120.863757 115.743476,125.012573 115.128186,131.663468 C114.736637,135.94818 115.319965,138.234426 118.708057,141.008297 C122.663495,144.245812 123.566453,149.345898 121.297071,154.126229 C119.059651,158.84261 114.824536,158.370972 110.517504,157.2918 C108.975283,156.908094 106.977587,155.469199 105.571209,158.115168 C106.250425,158.762671 107.057495,159.29826 107.552923,160.041689 C111.29261,165.733321 125.524195,168.930867 112.091688,178.835266 C111.70014,179.123045 112.019771,180.609904 112.267485,181.457254 C114.608785,189.451119 117.00602,197.43699 119.539098,205.95845 C139.092545,184.950573 183.273587,184.518904 206.207135,215.303278 L206.207135,215.303278 Z M40.9177803,159.186346 C45.1049508,151.768039 48.1094854,144.525597 54.5820199,141.75972 C63.6995038,137.866708 69.2850614,129.257315 77.5235591,125.404272 C89.5976328,119.75261 89.997172,112.933843 86.1216421,101.814376 C81.8785361,89.6557077 77.9550614,87.0736893 65.8170614,92.7972967 C61.1664255,94.9956096 56.979255,97.9773212 53.511255,101.758419 C36.5068679,120.256223 26.8060568,141.927591 25.6394024,167.172217 C25.1919186,176.828806 26.6302596,186.093695 36.4429416,190.834057 C46.6791351,195.78226 56.3559738,192.984407 65.2257434,186.781168 C70.0282043,183.423745 73.4083056,180.290149 66.0088402,175.262008 C61.4540937,172.168383 60.4951997,166.101039 60.335384,160.537309 C60.1835591,155.301327 60.3034209,150.065346 60.3034209,144.549579 C51.4496328,146.643972 52.2726835,159.290266 40.9177803,159.186346 L40.9177803,159.186346 Z M176.960868,318.751886 C176.329596,302.748168 172.605891,295.849462 161.354868,287.383959 C152.133504,280.453278 141.737495,277.263726 130.310674,276.336438 C110.693301,274.737665 90.5325545,274.977481 73.6640107,262.211278 C72.6491812,261.435873 71.6103794,260.93226 70.2040015,261.603745 C56.6196697,268.110751 42.0125176,271.420211 25.287808,275.193315 C29.0834301,276.448352 30.8174301,277.191781 32.6153563,277.591475 C74.279301,287.024235 115.535716,297.927867 156.096932,311.39753 C158.590057,312.228892 160.979301,312.668554 163.568315,312.316824 C169.289716,311.533426 174.355872,312.268861 176.960868,318.751886 L176.960868,318.751886 Z M70.1081121,216.678223 C84.9310153,217.517579 100.840665,211.905886 107.089458,203.640229 C113.362223,195.334603 106.426223,187.96426 105.107743,180.210211 C103.661412,171.736714 97.4685545,170.785444 91.5953287,173.903051 C84.243808,177.796064 75.8534854,180.585922 71.1309324,188.627751 C68.893513,192.448818 64.7462964,194.719076 60.5910891,196.525689 C49.6197434,201.306021 49.9074116,201.913554 56.3639646,212.481444 C60.3673471,219.012432 66.128702,214.951548 70.1081121,216.678223 L70.1081121,216.678223 Z M252.961209,184.079241 C249.613071,195.726303 252.513725,208.56445 241.510416,216.422419 C241.054942,216.750168 241.254711,218.261008 241.430508,219.164315 C243.276379,228.5651 238.769578,235.82353 232.888361,243.161898 C239.209071,244.912554 244.858554,246.990959 249.764896,250.628168 C252.074232,252.346849 253.464628,252.115027 254.583338,249.029395 C259.793329,234.744358 269.270398,223.009364 277.980352,210.842702 C280.169826,207.789045 280.809089,205.670671 277.325107,203.064671 C269.230444,197.005321 261.351531,190.650199 252.961209,184.079241 L252.961209,184.079241 Z M218.129384,208.588432 C227.934075,208.508493 238.841495,204.647456 244.027513,200.282806 C249.221522,195.918156 245.777495,190.07464 246.992094,185.038505 C248.566278,178.539493 249.589098,171.904585 250.82767,165.325634 C252.297974,157.475659 255.606158,149.865499 254.543384,141.05626 C250.883605,142.415217 247.863089,144.589548 244.970425,144.421677 C237.107495,143.974021 236.34837,149.202008 233.599541,154.741757 C225.193237,171.640788 227.142988,191.1698 218.129384,208.588432 L218.129384,208.588432 Z M103.589495,80.0231004 C104.068942,82.3013519 105.635135,81.8536955 106.737863,82.0135728 C133.578905,85.9945176 160.443919,89.7676219 187.260988,93.9244317 C201.124997,96.0667875 214.885126,98.9126035 228.709181,101.36672 C234.238803,102.341972 239.025283,98.8246709 240.52755,95.0515666 C242.5652,89.9434869 236.356361,88.8563212 232.77649,87.4094317 C222.708103,83.3325605 211.984472,83.4764501 201.556499,84.6115789 C172.334204,87.8091249 144.278564,83.9081188 117.1099,72.820628 C115.607633,72.2130943 112.371366,68.9515973 111.939863,72.8366157 C111.316582,78.448309 105.507283,77.0573765 103.589495,80.0231004 L103.589495,80.0231004 Z M243.460167,272.899076 C243.07661,272.963027 242.077762,272.971021 241.198776,273.298769 C218.217283,281.860199 200.453771,296.616873 188.275817,317.992468 C185.566942,322.748818 188.939052,324.475493 192.415043,325.530683 C198.575937,327.417235 206.494803,322.117303 207.597531,315.338505 C208.053006,312.532659 209.93084,311.797223 211.872601,310.813978 C216.699034,308.359861 221.605375,306.057628 226.367882,303.47561 C236.340379,298.071757 245.250103,291.676665 249.421292,280.309389 C251.54684,274.52183 249.621061,272.595309 243.460167,272.899076 L243.460167,272.899076 Z M312.212868,200.53861 C312.196886,196.557665 310.494849,195.062812 306.755163,196.181953 C302.392195,197.476959 298.66849,199.835149 295.208481,202.760904 C280.529412,215.127413 269.869707,230.555573 261.511347,247.614481 C259.953144,250.788045 254.391559,255.032788 259.377808,258.054468 C263.652877,260.652475 267.288684,255.440475 270.149384,252.083051 C271.611697,250.36437 274.520343,248.837542 272.179043,245.671972 C268.806932,241.13945 272.794333,240.563892 275.671015,239.300861 C284.508822,235.43183 292.739329,230.635511 299.48355,223.576929 C305.80426,216.958008 309.959467,209.179978 312.212868,200.53861 L312.212868,200.53861 Z M219.152204,34.1223274 C224.466075,54.0190574 230.475144,72.0132476 243.028665,87.209585 C244.411071,88.8803028 246.392785,90.1273458 248.254637,91.3264255 C250.651872,92.8692415 252.481762,90.7748489 254.343614,89.8555544 C256.900665,88.6005176 255.374425,86.7059716 254.639273,85.0272599 C247.695283,69.0635114 241.326628,52.8839286 236.260472,35.5852047 C229.580177,47.8158182 226.519707,35.2014992 219.152204,34.1223274 L219.152204,34.1223274 Z M124.669181,417.819855 C126.818702,422.368364 129.631458,421.744843 131.924813,422.136542 C150.751098,425.3181 169.529439,428.859383 188.427642,431.561309 C218.033495,435.798057 222.180711,425.246156 219.088278,400.177395 C218.528923,395.676849 216.994693,387.395205 211.648859,389.265769 C205.823578,391.304205 211.992462,397.243646 213.023273,401.472401 C213.103181,401.776168 213.310942,402.039965 213.414822,402.343732 C218.960425,418.523315 210.673983,429.86661 194.11708,428.059996 C183.385458,426.884898 172.789679,424.494732 162.098011,422.903953 C150.047909,421.113327 137.949863,419.610481 124.669181,417.819855 L124.669181,417.819855 Z M262.55814,90.9746955 C266.010158,99.3682538 261.623218,105.139824 254.966896,104.612229 C244.267237,103.76488 244.634813,110.008088 243.564048,116.730929 C242.637117,122.518487 241.14284,128.210119 239.888287,134.013665 C251.762591,133.4461 262.246499,129.273303 261.64719,123.885438 C260.400628,112.686033 272.083154,101.990241 262.55814,90.9746955 L262.55814,90.9746955 Z M55.2132918,220.978922 C59.7760291,235.024143 60.814831,235.727603 74.8466467,234.504542 C89.3099646,233.241511 100.265329,225.319591 110.1739,215.57507 C112.41931,213.376757 113.649891,210.634861 111.812011,207.253456 C93.6010153,221.146794 80.1285545,224.456254 55.2132918,220.978922 L55.2132918,220.978922 Z M208.013052,78.7201004 C217.130536,78.3124133 224.6179,81.3340943 233.663467,82.6051188 C223.003762,68.8476771 221.038029,52.4042967 213.574637,38.175217 C211.888582,51.5489531 212.008444,64.88272 208.013052,78.7201004 L208.013052,78.7201004 Z M228.133845,216.614272 C216.539218,217.277763 215.244711,218.620732 216.227578,230.323751 C216.603144,234.808309 216.05178,240.723769 222.37249,241.563125 C228.573338,242.386493 233.967117,231.410916 234.246794,220.075616 C234.40661,213.52864 230.267384,217.205818 228.133845,216.614272 L228.133845,216.614272 Z M164.487255,317.440892 C169.729209,330.758671 171.966628,343.628794 165.326287,356.522898 C164.455292,358.217597 161.426785,360.016217 164.734969,361.646965 C167.403891,362.957959 168.642462,360.06418 169.569393,358.225591 C175.666361,346.202818 176.0659,333.812327 171.351338,321.277947 C170.480343,318.96772 169.161863,316.497616 164.487255,317.440892 L164.487255,317.440892 Z M92.098748,89.6956771 C93.6889139,96.1627139 94.9834209,101.414683 96.2779278,106.674646 C99.0427388,100.279554 104.220766,96.4984562 110.317734,90.9587077 C103.469633,90.4870697 98.6192273,90.1433335 92.098748,89.6956771 L92.098748,89.6956771 Z M136.919052,356.331045 C144.454361,360.823597 152.421172,358.433432 162.273808,358.937045 C152.964545,352.557941 144.662121,356.490922 136.919052,356.331045 L136.919052,356.331045 Z M162.441614,344.332254 C163.911919,339.232168 166.349107,333.996186 160.947338,328.360511 C161.258978,334.35591 159.365163,339.384051 162.441614,344.332254 L162.441614,344.332254 Z" id="Fill-2" sketch:type="MSShapeGroup"></path>
            <path d="M204.135622,44.2126908 C190.575263,47.3223043 187.578719,44.5963963 183,24.9394822 C189.216829,25.7388687 188.449714,31.998065 191.214525,35.4993779 C193.004461,37.7696356 192.540995,42.0383595 196.967889,41.9584209 C201.179032,41.8784822 198.438194,36.8903104 201.139078,35.7551816 C204.119641,37.9854699 204.686986,40.9112245 204.135622,44.2126908" id="Fill-76" sketch:type="MSShapeGroup"></path>
            <path d="M92.7690392,78.9394822 C94.6628548,80.3863718 97.8911313,82.4407951 95.8854447,84.4152798 C93.6719977,86.5896111 89.6686152,86.9813104 86.4083756,88.0285068 C86.1286982,88.1164393 85.3535922,87.3810037 85.1618134,86.8933779 C84.5625046,85.3825374 85.7531313,84.7030589 86.688053,83.8477153 C88.1823295,82.4647767 92.6331959,84.8709301 91.4665415,80.1145804 C91.8500991,79.6669239 92.2895922,79.2752245 92.7690392,78.9394822" id="Fill-132" sketch:type="MSShapeGroup"></path>
            <path d="M64.2237419,243.049863 C64.1518249,242.346402 64.0799078,241.642942 64,240.939482 C64.7271613,241.107353 65.4463318,241.275225 66.1734931,241.45109 C65.5182488,241.978685 64.8709954,242.514274 64.2237419,243.049863" id="Fill-136" sketch:type="MSShapeGroup"></path>
            <path d="M110.582175,170.939482 C110.781945,171.586985 110.989705,172.234488 111.189475,172.881991 C110.462313,172.873998 109.735152,172.873998 109,172.866004 C109.527392,172.226494 110.054783,171.578991 110.582175,170.939482" id="Fill-138" sketch:type="MSShapeGroup"></path>
            <path d="M133,59.9394822 C137.970267,63.2649301 141.05471,67.7175129 146.608304,68.0292736 C148.262396,68.1252 149.756673,69.1883841 148.933622,71.0749362 C148.558055,71.9462675 147.095742,72.6417337 146.008995,72.865562 C139.416599,74.2325129 133.775106,68.956562 133,59.9394822" id="Fill-229" sketch:type="MSShapeGroup"></path>
            <path d="M144,49.982235 C149.857244,49.390689 153.764737,55.1622596 159.997548,53.4515725 C154.068387,61.4934007 150.144912,60.4781798 144,49.982235" id="Fill-230" sketch:type="MSShapeGroup"></path>
            <path d="M166,74.2577031 C172.096968,73.3384086 176.268157,72.7068933 181.366276,71.9394822 C177.538691,78.8142061 173.44741,80.3410344 166,74.2577031" id="Fill-231" sketch:type="MSShapeGroup"></path>
            <path d="M165,56.9394822 C169.354977,59.2097399 172.583253,60.8964454 176.075226,62.7190466 C167.117558,66.7399607 166.686055,66.548108 165,56.9394822" id="Fill-232" sketch:type="MSShapeGroup"></path>
        </g>
    </g>
</svg>