<?xml version="1.0" encoding="UTF-8" standalone="no"?>
<svg width="475px" height="565px" viewBox="0 0 475 565" version="1.1" xmlns="http://www.w3.org/2000/svg" xmlns:xlink="http://www.w3.org/1999/xlink" xmlns:sketch="http://www.bohemiancoding.com/sketch/ns">
    <!-- Generator: Sketch 3.3.3 (12081) - http://www.bohemiancoding.com/sketch -->
    <title>Group</title>
    <desc>Created with Sketch.</desc>
    <defs></defs>
    <g id="Page-1" stroke="none" stroke-width="1" fill="none" fill-rule="evenodd" sketch:type="MSPage">
        <g id="Group" sketch:type="MSLayerGroup">
            <path d="M232.844003,440.781858 C223.63862,462.661066 214.121597,482.317981 208.080565,503.421784 C204.828316,514.781066 201.831772,526.316214 193.785053,535.493171 C191.595579,537.987257 192.067035,540.865048 191.499689,543.590956 C188.383284,558.619422 171.203099,568.45987 156.779735,563.423735 C150.011542,561.065545 146.199938,556.48506 146.072086,549.210643 C145.288989,503.301876 148.15768,457.95268 164.434906,414.282195 C171.290998,395.888312 175.733874,376.766987 175.59803,355.103612 C166.544473,363.760968 164.962298,374.216944 161.078777,383.369919 C157.331099,392.219128 151.753533,400.916453 155.940703,411.50033 C157.107357,414.466054 155.876777,418.646846 153.343698,420.293582 C147.598325,424.034711 143.906583,429.078839 140.71027,434.890379 C139.967127,436.241342 136.147533,437.512367 136.059634,437.368477 C131.664703,430.357858 121.33262,433.675312 117.177413,426.392901 C115.203689,422.939551 111.551901,421.276827 108.515404,418.9666 C98.1273851,411.076655 97.0006846,401.907692 106.477754,393.250336 C112.111256,388.102287 114.492509,382.570533 115.139763,375.168214 C117.568961,347.261631 124.201311,320.43422 137.122408,295.365459 C151.361984,267.754649 172.122039,246.626864 200.361468,233.660815 C209.159321,229.623913 206.897929,226.074637 202.239302,221.494152 C197.245062,216.569931 191.739413,212.165312 186.561385,207.416956 C181.071717,202.396809 179.121966,196.057674 181.81486,189.166962 C183.508906,184.826293 183.061422,181.22106 181.335413,177.264097 C169.317274,149.669275 175.789809,127.222502 197.636611,106.550367 C208.607957,96.1663364 223.167164,95.0871646 234.434168,86.4777719 C238.469514,83.3841462 243.303938,88.2763916 246.2845,92.1853916 C250.295874,97.4453548 254.243321,101.841981 262.050316,99.97941 C266.844786,98.8282934 269.13015,103.568655 271.88697,106.49441 C274.931459,109.731925 277.104952,113.936698 281.324086,115.847232 C285.14368,117.581901 289.714408,118.972833 287.684749,111.802336 C285.934768,105.607091 289.570574,107.709477 292.095662,108.636766 C300.214298,111.642459 305.128629,121.42695 302.387791,129.652637 C300.717717,134.672784 300.310187,139.501079 301.372961,144.681103 C302.331855,149.365508 303.146915,154.377662 299.710878,158.47052 C297.289671,161.348312 299.01568,163.778447 299.606998,166.488367 C305.208537,192.356514 301.181182,216.042336 283.20192,236.29879 C280.381173,239.472355 280.596924,240.95122 283.633422,243.797036 C320.510887,278.418465 337.211625,322.136913 340.463874,371.698876 C340.823459,377.150692 343.907901,380.380214 347.080242,383.92949 C355.670334,393.554103 355.158924,403.706312 345.53003,412.371662 C337.794952,419.326324 327.622685,422.06822 318.984648,427.456085 C316.195864,429.190754 314.302049,427.591981 313.686758,425.545551 C311.609155,418.646846 306.830666,414.362134 301.133238,410.509091 C298.688058,408.854361 297.593321,405.616846 298.616141,402.73106 C303.626362,388.613895 296.490592,377.478441 289.306878,363.816925 C287.612832,379.908576 290.2418,393.434195 292.846795,406.799938 C299.575035,441.285471 307.094362,475.635109 309.3158,510.808116 C309.579496,514.93295 311.776961,516.076073 314.933321,517.315122 C320.263173,519.409514 325.704897,521.423968 330.611238,524.309754 C338.042666,528.674404 337.970749,532.095778 330.42745,536.6283 C318.585109,543.734846 305.8478,542.279962 293.230353,539.33822 C287.48498,537.99525 282.642565,536.044747 276.138067,539.010471 C268.283127,542.599717 255.250159,529.12206 253.891726,517.451017 C251.110933,493.573342 246.356417,470.167306 236.59168,448.032293 C235.744657,446.113766 234.665901,444.299158 232.844003,440.781858 L232.844003,440.781858 Z M264.239791,250.991514 C267.579938,249.704502 271.663228,249.488668 273.141523,244.908183 C268.243173,243.90895 265.230648,246.730784 262.154196,249.400735 C261.570869,249.616569 261.163339,250.008269 260.915625,250.575833 C250.176012,261.111747 237.934132,262.926355 223.974233,255.484066 C229.328058,265.676244 231.141966,275.300858 231.717302,285.293189 C232.556334,299.953938 233.73897,314.606692 234.45015,329.275435 C235.488952,350.722974 231.837164,354.240275 210.254058,352.777398 C201.064657,352.153876 188.575062,347.061784 183.580823,351.2106 C177.43591,356.31868 183.413016,369.260747 181.503219,378.589588 C180.144786,385.216502 183.75662,386.7833 188.766841,388.182226 C211.924132,394.66525 235.496943,396.128128 258.957883,391.459711 C285.199615,386.231723 281.46792,391.563631 282.195081,363.489177 C282.322933,358.461036 282.211062,353.424901 282.211062,348.364784 C271.239717,349.915594 271.287662,349.915594 271.367569,339.035944 C271.455468,327.213017 271.527385,315.390091 269.753431,303.647103 C267.180399,286.66014 264.63933,269.673177 262.09027,252.686214 C262.80944,252.118649 263.52062,251.551085 264.239791,250.991514 L264.239791,250.991514 Z M282.818362,146.711545 C281.683671,145.888177 280.55697,145.064809 279.43027,144.241441 C277.736224,142.354889 275.978251,140.524293 274.364113,138.565796 C268.970334,132.042803 264.303717,123.865079 253.707938,130.619895 C251.766178,131.866938 250.215966,129.796527 248.689726,128.773312 C241.865597,124.200821 234.913615,125.399901 229.04039,129.84449 C223.702546,133.889385 219.107846,135.416214 212.683256,132.538422 C208.887634,130.835729 203.74956,129.045103 200.37745,133.593612 C196.957394,138.206073 201.592049,141.051889 203.757551,144.297398 C207.912758,150.524619 203.869422,164.905582 197.133192,166.616269 C195.902611,166.92803 192.402648,166.624263 192.354703,163.418723 C192.298768,159.717563 191.275947,155.752606 195.255357,153.074662 C198.299846,151.028232 199.490473,148.989796 196.166307,145.568422 C191.4038,140.668183 191.955164,135.064484 196.414021,130.124275 C201.120592,124.912275 207.752943,122.082447 213.578224,125.927496 C220.106694,130.228195 223.558712,128.29368 227.71392,123.449398 C233.163634,117.102269 239.004897,114.704109 246.172629,121.626796 C249.7525,125.08814 254.283274,126.423116 259.173634,123.017729 C263.872215,119.756232 267.811671,122.034484 270.792233,125.839563 C273.325311,129.085073 275.211136,132.842189 277.464537,136.31952 C279.869763,140.028674 283.058086,142.594704 287.756666,141.843281 C292.28744,141.115839 294.924399,138.054189 296.46662,133.865404 C298.600159,128.085839 298.016832,122.769919 294.301118,117.669833 C285.167652,126.047404 283.377717,125.927496 274.987394,116.734551 C272.614132,114.144539 270.272832,111.514557 267.747745,109.076428 C265.646168,107.037993 262.729533,104.83968 260.100565,106.054747 C249.84839,110.75514 246.452307,104.575882 243.383846,96.6779437 C242.041394,93.224594 238.725219,90.322821 235.049459,92.6650235 C227.466205,97.5093057 219.539348,100.762809 210.637615,102.265655 C208.344261,102.657355 205.978989,105.68703 204.644528,108.061208 C202.375145,112.098109 199.234768,114.879974 195.59097,117.62187 C181.71897,128.061858 177.643671,153.090649 185.938104,168.918502 C189.246288,175.225662 193.169763,181.988471 188.223468,190.302091 C184.491772,196.553293 187.368454,204.291355 193.825007,206.409729 C201.855745,209.039711 204.828316,215.123042 208.959551,220.854643 C211.764316,224.739662 214.609035,228.600698 218.924058,231.054815 C221.329284,232.413772 225.388602,234.028533 223.374924,237.050214 C221.249376,240.24776 218.716298,235.835146 216.223173,235.259588 C215.511993,235.099711 214.640998,235.627306 213.346491,235.979036 C218.156943,243.677128 224.469662,248.793201 232.500399,251.718956 C234.202436,252.342477 238.181846,253.757392 237.734362,251.143398 C236.69556,245.132011 240.25945,247.490201 242.632712,247.57014 C262.609671,248.249619 277.136915,239.1526 286.310334,221.949803 C297.976878,200.070594 298.456325,177.35203 289.091127,154.4576 C287.812602,151.339993 287.053477,147.542907 282.818362,146.711545 L282.818362,146.711545 Z M275.922316,522.479158 C283.40968,522.99876 289.682445,521.871625 295.899274,520.288839 C302.523634,518.610128 305.280454,515.028876 303.578417,507.810416 C301.828436,500.368128 301.277072,492.654048 299.942611,485.107839 C295.092205,457.760827 290.14591,430.421809 285.191625,403.090784 C283.841182,395.624514 281.67568,392.083232 272.022814,394.70522 C244.079044,402.283404 215.727745,402.187477 187.983745,393.058484 C182.094537,391.115974 180.072869,391.795453 177.987274,397.678938 C165.257957,433.683306 156.436132,470.455085 153.35968,508.633784 C151.346003,533.542668 153.551459,535.868882 179.074021,533.502698 C186.657274,532.799238 190.508832,530.209226 192.722279,522.343263 C202.710758,486.818527 222.360095,455.322698 235.800592,421.204882 C236.575698,419.246385 238.085957,416.392576 240.57109,417.519711 C244.286804,419.198422 241.298251,422.116183 240.355339,423.898815 C237.534592,429.190754 237.598519,434.186919 240.147579,439.46287 C250.943127,461.813717 256.712473,485.77133 260.835717,509.984747 C262.657615,520.680539 266.692961,524.597533 275.922316,522.479158 L275.922316,522.479158 Z M193.081864,325.89403 C192.83415,332.688815 187.576215,335.039011 184.739486,338.963999 C182.973523,341.402128 180.648205,344.080073 186.30568,344.48776 C198.084095,345.343103 209.878491,346.158477 221.656906,347.109747 C225.732205,347.44549 227.162556,345.870698 227.330362,341.745864 C228.32921,317.08479 227.969625,292.519643 222.703698,268.27425 C222.232242,266.091925 222.655754,262.406754 219.211726,262.278852 C209.383062,261.935116 203.110298,255.076379 195.958546,249.960306 C191.739413,246.938625 188.303376,246.794735 183.844519,249.464686 C171.490768,256.882993 162.02968,267.075171 154.286611,279.002017 C135.124712,308.523361 126.53462,341.873766 120.165966,375.855686 C117.816675,388.382073 125.503809,397.391158 138.16121,399.589471 C144.457947,400.676637 148.709044,399.933208 150.714731,392.131195 C155.764906,372.458293 164.930334,354.576017 177.515818,338.556312 C181.559155,333.42425 185.610482,328.196263 193.081864,325.89403 L193.081864,325.89403 Z M278.023892,343.296674 C283.545523,341.298208 284.752132,337.47714 284.512408,333.775981 C283.633422,320.338293 288.81145,308.147649 291.704113,295.477373 C292.327394,292.735477 292.519173,288.362833 295.779413,288.978361 C300.174344,289.801729 297.920943,294.366226 297.337615,296.972226 C295.100196,306.9086 292.143606,316.677103 289.762353,326.581502 C286.909643,338.468379 286.957588,349.939576 295.260012,360.12376 C299.798777,365.695484 301.372961,372.666134 303.290749,379.396968 C307.190251,393.042496 313.894519,395.464637 325.928639,387.59068 C332.720804,383.146091 335.621459,376.910876 334.910279,368.845066 C333.208242,349.627815 327.646657,331.329858 321.25403,313.303692 C313.079459,290.241392 301.748528,269.073637 283.521551,252.046704 C278.998768,247.81795 276.305874,249.672527 272.206602,252.07868 C267.939523,254.572766 266.493192,256.747097 268.179247,261.847183 C273.21344,277.107471 274.33215,293.055232 275.394924,308.987005 C276.146058,320.274342 277.112943,331.553686 278.023892,343.296674 L278.023892,343.296674 Z M139.69544,410.485109 C142.947689,413.618704 138.768509,419.997809 144.146307,420.357533 C148.605164,420.653306 150.155376,416.272668 150.395099,412.187803 C150.626832,408.374729 150.187339,404.913385 144.817533,405.792711 C134.988869,407.415465 127.189864,403.210692 121.052943,396.248036 C115.435422,389.892913 112.159201,391.39576 109.39439,398.286471 C108.451477,400.636668 107.125007,403.042821 107.029118,405.464962 C106.933228,407.863122 107.484592,410.924772 108.978869,412.59549 C111.591855,415.51325 112.311026,409.333993 115.147754,410.676962 C116.889745,414.80979 115.699118,420.813183 121.052943,422.8756 C125.248104,424.498355 121.716178,416.328625 126.83827,417.783508 C127.485523,419.678054 128.108804,421.796428 128.939846,423.834864 C130.21038,426.960465 130.961514,431.668852 135.468316,430.397827 C139.399781,429.294674 137.537929,425.12987 137.274233,422.084208 C136.946611,418.207183 134.49344,413.906484 139.69544,410.485109 L139.69544,410.485109 Z M339.169367,399.821293 C344.499219,406.120459 346.432989,403.530447 346.632758,397.407146 C346.808556,391.9953 345.202408,386.607435 340.535791,384.129336 C336.172823,381.803122 334.886307,387.734569 332.249348,389.860938 C326.040509,394.857103 319.480076,398.406379 311.305505,397.439122 C308.133164,397.06341 304.705118,395.40868 304.545302,400.708612 C304.409459,405.0253 305.048721,410.19733 309.571505,410.988723 C315.292906,411.979962 312.28038,406.104471 313.566897,403.466496 C313.886528,402.795011 314.733551,402.37933 315.604546,401.619913 C319.839662,405.72876 317.186721,410.19733 317.146768,414.362134 C317.122795,416.728318 315.652491,420.005803 318.936703,420.97306 C322.604473,422.060226 323.219763,418.36706 324.913809,416.168747 C326.224298,414.474048 325.017689,403.218686 331.370362,413.866514 C332.297293,415.425318 335.42968,412.8433 336.180814,410.740913 C337.36345,407.463428 338.050657,404.018073 339.169367,399.821293 L339.169367,399.821293 Z M163.96345,556.596974 C172.553542,556.780833 181.567145,552.22433 184.915284,546.316864 C187.352473,542.040146 187.648132,539.322232 181.223542,539.578036 C174.247588,539.849827 167.215698,539.865815 160.279698,539.250287 C152.888224,538.59479 150.283228,541.128846 152.009238,548.411257 C153.583422,555.102122 159.017155,555.869533 163.96345,556.596974 L163.96345,556.596974 Z M328.629523,529.313913 C321.821376,524.365711 313.838583,520.792453 306.399164,523.230582 C296.706344,526.41214 287.117404,526.508066 277.336685,526.979704 C273.181477,527.179551 268.866454,526.915754 264.703256,529.769563 C272.422353,533.854428 322.980039,533.358809 328.629523,529.313913 L328.629523,529.313913 Z M226.227634,256.171539 C218.348721,250.415956 213.64215,245.41979 209.694703,239.720165 C208.711837,238.30525 207.808878,235.94706 205.427625,237.881576 C202.566924,240.199796 197.780445,240.551527 196.877486,244.644385 C196.358086,247.010569 199.730196,247.57014 201.512141,248.609342 C208.328279,252.558312 215.240307,256.355398 226.227634,256.171539 L226.227634,256.171539 Z M297.809072,147.798711 C297.601311,145.456508 297.569348,142.858502 294.381026,143.106312 C291.983791,143.282177 289.986095,144.697091 290.401615,147.454974 C290.825127,150.212858 291.3685,154.017938 294.73262,153.89803 C297.48145,153.810097 297.473459,150.188876 297.809072,147.798711 L297.809072,147.798711 Z" id="Fill-6" fill="#20F61F" sketch:type="MSShapeGroup"></path>
            <path d="M42.7308463,261.642297 C44.0573164,261.962052 47.0458693,262.177886 49.5389938,263.408941 C54.1336942,265.671205 58.1450675,265.807101 63.0034638,263.568819 C72.4965145,259.204168 81.3023578,262.137917 88.637897,268.70088 C96.940321,276.135174 104.547547,284.33688 112.674173,291.987009 C115.023464,294.201309 113.792883,295.424371 112.778054,297.590708 C103.916275,316.472217 88.4301366,330.693303 77.4667818,348.199868 C69.1723486,361.437708 48.1246251,361.661536 38.1121735,349.303021 C24.8954177,332.995536 13.3886896,315.305113 1.09886474,298.230217 C-0.826914061,295.552272 -0.0837712042,293.114144 2.25752833,291.675248 C10.9594915,286.335346 15.7219984,277.294285 22.7379062,270.403573 C27.8919615,265.343457 33.6053717,261.530383 42.7308463,261.642297 L42.7308463,261.642297 Z M56.0434915,350.062438 C74.8058509,350.326236 96.7485422,318.438708 89.8604869,300.92415 C86.7760445,293.082168 77.7384684,287.846187 69.156367,288.373782 C59.8071505,288.94934 59.9669661,295.168567 60.4064592,301.899401 C60.5343117,303.905861 59.6553256,305.984266 57.4898233,306.216088 C54.5252426,306.543837 54.1816389,303.88188 53.5024223,301.771499 C52.295814,298.014383 55.6998878,292.914297 51.1850952,290.348266 C45.5595836,287.15072 39.3667265,287.726279 33.7492058,290.74796 C28.9227726,293.345966 23.7846988,296.735365 24.4639154,302.938604 C25.8862749,315.976598 28.427344,328.870702 36.5220076,339.774334 C41.34045,346.257358 47.6931228,350.126389 56.0434915,350.062438 L56.0434915,350.062438 Z M56.1233993,277.262309 C42.299344,278.349475 27.9159339,279.420653 17.1123947,290.803917 C15.5941458,292.40269 12.5496574,294.545045 15.0747449,297.167033 C17.0085145,299.181487 19.7893071,297.294935 20.8360998,295.704156 C29.9695652,281.802825 42.2753717,280.18007 56.6987357,285.839726 C57.2181366,286.039573 57.9932426,285.967628 58.5286251,285.7438 C72.4645514,279.868309 83.8274454,282.650174 92.6492703,295.352426 C94.1994823,297.582714 97.7793532,299.805009 100.000791,297.063113 C102.326109,294.201309 98.5784316,291.955033 96.7085882,290.228358 C85.3936389,279.812352 71.1300905,278.325493 56.1233993,277.262309 L56.1233993,277.262309 Z" id="Fill-12" fill="#20F61F" sketch:type="MSShapeGroup"></path>
            <path d="M446.3,358.7407 C450.3753,362.29797 454.722286,365.60743 458.469963,369.492449 C463.368313,374.568553 465.67765,380.771792 459.86835,386.383486 C454.314756,391.747369 450.151558,385.975799 445.836535,383.137976 C444.05459,381.970872 443.183595,379.340891 440.083171,379.788547 C438.572913,383.401774 442.42447,385.112461 443.263502,387.870345 C444.829696,393.050369 445.924433,398.837927 440.187051,401.276056 C435.368608,403.322486 429.415475,403.314492 426.259115,396.87943 C424.37329,393.042375 422.103908,389.389179 418.516046,386.175645 C418.715816,390.068657 419.426996,394.025621 419.003484,397.846688 C418.260341,404.537553 413.817466,406.368148 408.24789,402.555075 C401.695447,398.062523 399.458028,390.995946 397.931788,383.753504 C396.341622,376.199302 393.832516,369.948099 387.64765,364.192516 C376.692286,353.976357 372.281373,339.171719 367.638728,325.478228 C364.746065,316.948774 372.24941,309.490498 378.689982,303.630995 C383.97988,298.826682 389.99694,297.843437 395.990028,302.655743 C397.676083,304.006707 399.418074,304.174578 401.343853,303.926768 C417.589115,301.816388 433.914286,304.126615 450.135576,303.06343 C457.135502,302.615774 457.071576,305.829308 455.689171,310.32186 C452.556784,320.514038 444.15847,323.040099 434.46565,323.727572 C435.08094,329.778927 439.987281,331.361713 443.974682,333.560026 C451.502,337.700848 459.229088,341.48994 466.80435,345.542829 C471.574848,348.100866 475.793982,352.113786 473.700396,357.549615 C471.407042,363.529026 465.67765,364.176529 459.892323,361.786363 C456.072728,360.211572 452.277106,358.596811 448.465502,356.998038 C447.178986,355.846921 445.476949,354.12824 444.110525,355.719019 C443.015788,356.990044 445.213254,357.917332 446.3,358.7407 L446.3,358.7407 Z M434.817244,372.578081 C434.114055,370.691529 432.843521,370.635572 431.293309,371.490915 C431.940562,372.346259 432.595807,373.209596 433.251051,374.072934 C434.345788,375.22405 434.913134,378.437584 437.006719,376.463099 C438.908525,374.656486 436.351475,373.481388 434.817244,372.578081 L434.817244,372.578081 Z M409.47847,360.459381 C416.11082,369.132725 421.280857,377.094615 425.907521,385.456197 C427.585585,388.493866 429.695152,391.339682 431.91659,394.009633 C433.0353,395.352602 434.745327,397.071283 436.774986,395.504486 C438.229309,394.385345 437.494157,392.586725 437.158544,391.043909 C435.768148,384.560884 431.493078,379.708608 427.8333,374.496608 C424.724885,370.076001 421.081088,365.879222 420.561687,360.195584 C420.425843,358.748694 420.665567,356.694271 421.592498,355.862909 C422.767143,354.799725 424.525115,355.774976 425.931493,356.686277 C431.660885,360.403424 435.552396,365.975148 440.250977,370.723504 C444.534037,375.048185 448.681254,379.788547 456.336424,379.460799 C453.683484,368.964854 444.837687,365.303664 438.397115,359.444161 C434.433687,355.854915 427.361843,350.890725 429.886931,347.077651 C433.227078,342.033523 440.211023,346.629995 445.333115,348.892259 C452.157244,351.91394 458.23024,357.08597 466.668507,356.454455 C465.813493,351.889958 462.713069,349.467817 459.436848,347.765124 C452.956323,344.383719 446.140184,341.649817 439.555779,338.460265 C431.269337,334.447345 420.777438,334.103608 413.681622,337.740817 C413.385963,337.8927 412.674784,337.237203 411.963604,336.861492 C412.467023,331.337731 416.142784,327.828424 420.154157,324.694829 C426.794498,319.498817 434.066111,315.709725 442.760083,315.350001 C445.07741,315.254075 447.690396,314.414719 447.634461,311.776743 C447.546562,308.291418 444.278332,309.698338 442.408489,309.57843 C428.736258,308.651142 414.992111,306.644682 401.439742,310.305872 C398.86671,311.001338 397.388415,310.617633 395.558525,308.906946 C391.435281,305.037915 386.920489,305.093872 382.613456,308.571203 C377.731088,312.520173 372.169502,318.675449 374.023364,323.671615 C378.034737,334.503302 379.297281,346.997713 389.805161,355.007565 C398.579042,361.690437 402.566443,371.466934 403.828986,382.394547 C404.38035,387.166884 405.674857,391.803326 408.911125,395.608406 C409.957917,396.831467 411.140553,398.278357 412.874553,397.542921 C414.592572,396.807486 414.304903,394.928927 414.16906,393.378118 C413.673631,387.542596 411.036673,382.362572 409.110894,376.974707 C407.296986,371.906596 405.219383,366.878455 409.47847,360.459381 L409.47847,360.459381 Z" id="Fill-13" fill="#20F61F" sketch:type="MSShapeGroup"></path>
            <path d="M245.585167,0.5 C264.946835,0.691852761 279.609923,13.1942577 291.036743,31.0205767 C293.753609,35.265319 291.148614,38.4149018 289.406623,41.5804724 C275.438734,67.0249448 235.11724,75.6503252 210.585535,58.4954908 C207.988531,56.6728896 205.53536,54.6104724 203.234015,52.4281472 C185.965932,36.0327301 186.844918,25.2969693 206.717996,12.2669693 C217.529526,5.17641104 229.283969,0.57993865 245.585167,0.5 L245.585167,0.5 Z M227.917545,11.0279202 C217.785231,14.2574417 210.002208,20.5486135 204.120992,29.3098896 C202.482881,31.7400245 201.084494,33.8983681 203.481729,36.9919939 C210.002208,45.4175276 216.54666,53.627227 227.917545,55.6256933 C228.732605,55.697638 230.035102,56.1293067 230.274826,55.7935644 C231.03395,54.7463681 229.835333,54.5784969 229.156116,54.2507485 C224.641323,48.7429755 219.335443,43.9626442 217.489572,36.448411 C214.660835,24.9532331 222.995222,19.453454 229.068217,12.6027117 C229.435793,12.0351472 229.80337,11.4675828 230.162955,10.9000184 C229.419812,10.9399877 228.668678,10.9799571 227.917545,11.0279202 L227.917545,11.0279202 Z M252.425277,56.1452945 C260.71172,55.8735031 277.156752,44.626135 280.177268,37.103908 C280.50489,36.2805399 280.680687,35.2733129 280.552835,34.4099755 C279.338236,25.9924356 262.629508,12.9864172 253.384171,13.1782699 C269.046107,34.7537117 269.046107,34.7537117 252.425277,56.1452945 L252.425277,56.1452945 Z M244.178789,28.9821411 C243.859158,22.9547669 241.342061,18.566135 235.125231,18.8059509 C229.883277,19.0217853 224.729222,21.2041104 225.024881,27.8150368 C225.296568,33.8823804 229.044245,38.2310429 235.029342,38.7106748 C241.342061,39.2142883 243.483591,34.3140491 244.178789,28.9821411 L244.178789,28.9821411 Z M252.720936,27.6151902 C251.474374,39.054411 247.407065,45.0897791 238.097803,47.3680307 C231.896955,48.8948589 236.195996,53.9949448 237.186853,56.7927975 C238.37748,60.142227 243.923084,58.8312331 244.234724,57.4962577 C246.408217,48.1834049 256.628429,41.5484969 252.720936,27.6151902 L252.720936,27.6151902 Z" id="Fill-14" fill="#20F61F" sketch:type="MSShapeGroup"></path>
            <path d="M146.6411,165.636883 C146.6411,169.138196 146.697035,172.639509 146.617127,176.140822 C146.53722,179.754049 146.481284,179.634141 141.662842,179.346362 C139.481358,179.21846 138.530455,181.288871 137.555579,182.783724 C133.847856,188.48335 132.537367,195.126252 130.347892,201.433411 C124.92215,217.053423 113.175699,220.770571 99.8470721,210.858178 C95.8117265,207.860479 92.0400767,204.159319 89.0675053,200.106429 C80.7810629,188.811098 73.1338832,177.044129 64.911367,165.700834 C60.484473,159.585528 58.9022979,153.254386 60.7721412,145.924012 C62.2744085,140.072503 63.1533947,134.045129 64.8714131,128.257571 C70.1693025,110.327331 83.4579753,100.782656 102.340197,101.542074 C108.005662,101.765902 111.026178,105.019405 114.566095,110.359307 C123.579699,123.924896 126.967791,142.158902 145.042943,149.281436 C147.25639,150.152767 145.953892,159.961239 146.273524,165.62889 C146.393385,165.62889 146.521238,165.62889 146.6411,165.636883 L146.6411,165.636883 Z M134.487118,161.887761 C133.07275,158.042712 137.235948,153.05454 133.696031,150.176748 C123.955266,142.230847 119.120842,130.911534 112.416574,120.919202 C106.96686,112.789442 100.222639,111.838172 91.7364269,114.835871 C74.4763348,120.951178 64.0803256,144.772896 72.6064915,162.815049 C80.1098371,178.690865 92.0240951,192.008644 104.122141,204.606975 C111.45768,212.233123 120.199597,208.595914 123.435865,198.187902 C125.026031,193.039853 125.129911,187.092417 128.965487,183.055515 C134.838713,176.868264 136.468832,169.985546 134.487118,161.887761 L134.487118,161.887761 Z" id="Fill-16" fill="#20F61F" sketch:type="MSShapeGroup"></path>
            <path d="M367.20388,138.971638 C364.24729,142.608847 365.485861,146.685718 365.837456,150.746601 C367.635382,171.210896 367.50753,191.547288 361.522433,211.468 C360.97906,213.290601 360.547557,215.16916 359.836378,216.92781 C358.63776,219.877546 357.231382,224.034356 353.835299,223.426822 C349.344479,222.619442 351.885548,218.302755 351.949474,215.416969 C351.997419,213.37054 354.114977,210.748552 351.142405,209.573454 C348.473484,208.51027 346.379898,210.612656 344.757769,212.547172 C340.930184,217.103675 341.337714,222.667405 341.50552,228.079252 C341.649355,232.45989 345.077401,230.797166 347.242903,230.605313 C354.3547,229.973798 360.395732,230.589325 366.628543,235.705399 C372.669576,240.653601 380.604424,243.227626 387.796129,235.081877 C392.670507,229.558117 400.022027,230.029755 406.686341,230.813153 C412.128064,231.452663 414.677124,229.877871 413.886037,224.338123 C413.031023,218.326736 412.423723,211.164233 405.008276,210.276914 C400.245769,209.701356 403.394138,214.481687 403.386147,216.839877 C403.370166,219.557791 405.128138,223.147037 400.924986,223.770558 C397.504931,224.282166 396.098553,221.180546 395.403355,218.278773 C389.23447,192.690411 386.413723,166.822264 389.002737,140.514454 C389.154562,139.003613 390.425096,138.651883 391.719603,138.5 C395.786912,140.418528 396.258368,143.704006 396.186451,147.908779 C395.930746,162.881288 396.082571,177.861791 396.234396,192.834301 C396.290331,198.23016 397.544884,201.547613 404.560792,202.642773 C420.582313,205.144853 423.171327,229.206387 417.114313,238.854982 C416.115465,240.453755 414.485345,241.524933 413.318691,240.301871 C407.996829,234.698172 403.306239,239.158748 398.695557,241.109252 C386.48564,246.281282 374.986903,251.125564 361.834073,241.924626 C356.911751,238.487264 348.705216,238.647141 342.120811,239.07881 C337.430221,239.382577 336.798949,237.575963 335.736175,234.338448 C330.58212,218.622509 337.054654,206.056153 353.140101,201.955301 C358.549861,200.572362 357.942562,196.263669 358.445981,193.042141 C360.771299,178.125589 359.476792,163.11311 358.254202,148.196558 C357.646903,140.786245 360.26788,138.212221 367.20388,138.971638" id="Fill-17" fill="#20F61F" sketch:type="MSShapeGroup"></path>
            <path d="M118,105.5 C118.19977,105.931669 118.40753,106.355344 118.6073,106.787012 C118.743143,106.587166 119.038802,106.259417 118.990857,106.20346 C118.807069,105.979632 118.527392,105.843736 118.279677,105.667871 L118,105.5" id="Fill-102" fill="#20F61F" sketch:type="MSShapeGroup"></path>
            <path d="M117.367576,105.660154 L117,105.860001 C117,105.860001 117.135843,105.508271 117.111871,105.500277 C117.087899,105.492283 117.367576,105.660154 117.367576,105.660154" id="Fill-103" fill="#20F61F" sketch:type="MSShapeGroup"></path>
            <path d="M226.403897,255.521167 C215.41657,255.705026 208.504542,251.90794 201.688404,247.95897 C199.906459,246.919768 196.534349,246.360197 197.05375,243.994013 C197.956708,239.901154 202.743187,239.549424 205.603888,237.231203 C207.985141,235.296688 208.8881,237.654878 209.870966,239.069792 C213.818413,244.769418 218.524985,249.765584 226.403897,255.521167" id="Fill-190" fill="#20F61F" sketch:type="MSShapeGroup"></path>
            <path d="M297.462476,147.208849 C297.126863,149.599014 297.134854,153.220235 294.386024,153.308168 C291.021904,153.428076 290.478531,149.622996 290.05502,146.865112 C289.639499,144.107229 291.637195,142.692315 294.03443,142.51645 C297.222752,142.26864 297.254715,144.866646 297.462476,147.208849" id="Fill-191" fill="#20F61F" sketch:type="MSShapeGroup"></path>
            <path d="M262,249.198465 C265.076452,246.528514 268.088977,243.70668 272.987327,244.705913 C271.509032,249.286398 267.425742,249.502232 264.085594,250.789244 C263.390396,250.261649 262.695198,249.72606 262,249.198465" id="Fill-192" fill="#20F61F" sketch:type="MSShapeGroup"></path>
            <path d="M279.775106,143.5 C280.901806,144.323368 282.028507,145.146736 283.163198,145.970104 C282.723705,146.401773 282.276221,146.833442 281.836728,147.26511 C280.893816,146.31384 279.950903,145.370564 279,144.427288 C279.263696,144.123521 279.519401,143.811761 279.775106,143.5" id="Fill-193" fill="#20F61F" sketch:type="MSShapeGroup"></path>
            <path d="M264.324166,251.090779 C263.604995,251.65035 262.893816,252.217914 262.174645,252.785479 C261.783097,252.082018 261.391548,251.378558 261,250.675098 C261.247714,250.107534 261.655244,249.715834 262.238571,249.5 C262.93377,250.027595 263.628968,250.563184 264.324166,251.090779" id="Fill-194" fill="#20F61F" sketch:type="MSShapeGroup"></path>
            <path d="M252.907937,27.5 C256.81543,41.4333067 246.595218,48.0682147 244.421725,57.3810675 C244.110084,58.7160429 238.564481,60.0270368 237.373854,56.6776074 C236.382997,53.8797546 232.083955,48.7796687 238.284803,47.2528405 C247.594066,44.974589 251.661375,38.9392209 252.907937,27.5" id="Fill-242" fill="#20F61F" sketch:type="MSShapeGroup"></path>
            <path d="M229.238571,54.5 C229.917788,54.8277485 231.116406,54.9956196 230.357281,56.042816 C230.117558,56.3785583 228.81506,55.9468896 228,55.8749448 C228.383558,55.387319 228.799078,54.9316687 229.238571,54.5" id="Fill-243" fill="#20F61F" sketch:type="MSShapeGroup"></path>
            <path d="M228,10.6279018 C228.751134,10.5799387 229.502267,10.5399693 230.24541,10.5 C229.885825,11.0675644 229.518249,11.6351288 229.150673,12.2026933 C228.767115,11.6750982 228.383558,11.1475031 228,10.6279018" id="Fill-244" fill="#FAF9F8" sketch:type="MSShapeGroup"></path>
            <path d="M262.614981,219.505463 C253.561424,219.617377 246.561498,216.819524 239.641479,213.302223 C237.228263,212.079162 234.511396,204.900671 230.939516,212.822592 C230.188382,214.485315 228.486346,211.775395 227.895028,210.656254 C224.682733,204.508972 230.635866,193.477438 237.50794,192.558144 C238.866373,192.374285 239.689424,192.590119 240.664299,193.733242 C249.893654,204.596904 269.087516,208.274082 280.762051,200.855776 C283.998318,198.801352 284.677534,200.47207 285.716336,202.238714 C288.664935,207.258861 285.660401,213.286236 279.795166,215.004917 C273.746143,216.787549 268.232502,220.672567 262.614981,219.505463 L262.614981,219.505463 Z M234.223728,201.623187 C244.843479,215.108837 268.152594,218.11453 280.258631,206.98707 C263.613829,212.294996 250.117396,205.548174 234.223728,201.623187 L234.223728,201.623187 Z" id="Fill-295" fill="#20F61F" sketch:type="MSShapeGroup"></path>
            <path d="M258.896076,193.210129 C272.160777,181.067448 251.784279,172.122313 256.818473,159.5 C262.787588,166.782411 267.446215,173.825006 269.563772,182.162607 C271.609413,190.228417 268.716749,193.226117 258.896076,193.210129" id="Fill-296" fill="#20F61F" sketch:type="MSShapeGroup"></path>
            <path d="M240.320181,166.797782 C240.256254,170.666813 239.449185,174.655752 235.901277,174.743684 C231.402466,174.847604 231.394476,170.171193 231.058863,166.821764 C230.715259,163.424371 231.833969,159.675249 235.525711,159.507377 C240.495978,159.283549 239.401241,164.20777 240.320181,166.797782" id="Fill-297" fill="#20F61F" sketch:type="MSShapeGroup"></path>
            <path d="M283.05032,169.486619 C282.778634,172.620214 282.474984,176.97687 278.871141,176.689091 C274.723924,176.369337 274.971638,171.748883 275.019583,168.319514 C275.059537,165.489686 275.443094,161.436797 278.407675,161.500748 C282.698726,161.580686 282.84256,165.961324 283.05032,169.486619" id="Fill-298" fill="#20F61F" sketch:type="MSShapeGroup"></path>
            <path d="M224.239165,153.104567 C224.103321,152.241229 223.927524,151.881505 224.031404,151.641689 C226.308777,146.373732 228.714003,141.121763 235.745893,141.521456 C237.296105,141.609389 239.038095,143.216156 238.358879,144.774959 C235.705939,150.914248 230.503939,152.896726 224.239165,153.104567" id="Fill-299" fill="#20F61F" sketch:type="MSShapeGroup"></path>
            <path d="M266.024894,224.776794 C262.51694,229.293328 258.577484,229.061506 254.542138,226.77526 C254.086663,226.511463 253.806986,224.800776 254.15858,224.425064 C258.137991,220.140352 262.013521,224.27318 266.024894,224.776794" id="Fill-300" fill="#20F61F" sketch:type="MSShapeGroup"></path>
            <path d="M278.395933,145.164579 C279.346836,146.107855 280.289748,147.051131 281.232661,148.002401 C283.494052,154.49342 278.355979,151.807481 276.182486,151.679579 C273.961048,151.543684 270.572956,151.239917 271.044412,147.666659 C271.73961,142.406696 275.695048,145.324457 278.395933,145.164579" id="Fill-301" fill="#20F61F" sketch:type="MSShapeGroup"></path>
            <path d="M106.23654,142.36648 C96.9033047,144.812602 93.8348438,149.904695 95.5928162,159.105633 C97.4466779,168.770216 106.4443,177.539486 113.667968,175.740866 C120.595977,174.014191 118.614263,168.570369 115.162245,165.788504 C109.520752,161.247989 109.161166,157.059204 111.254752,150.440283 C113.89171,142.11867 108.162319,133.589216 100.467194,131.870535 C93.4752586,130.303737 87.1785213,135.012124 84.5895074,143.741425 C81.8406779,153.014308 84.5815167,161.279964 89.0403738,169.345774 C92.0688807,174.813578 96.5437194,179.649866 97.151019,186.492615 C77.6614982,176.668155 71.396724,142.646265 86.1157471,127.361995 C92.132807,121.118787 99.2366134,119.647915 106.939729,123.988584 C116.512687,129.376449 121.818567,141.087461 118.126825,149.840744 C116.23301,154.325302 115.953332,156.55559 120.452143,159.825081 C126.74089,164.381584 124.647305,190.649425 118.38253,195.613615 C115.130282,198.187639 112.693093,196.085253 111.102927,193.854964 C103.903231,183.742725 96.3039959,173.814345 90.2469821,163.030621 C86.267572,155.964044 88.3371849,147.970179 93.1076826,141.351259 C97.1989637,135.675615 101.633848,135.068081 106.23654,142.36648" id="Fill-324" fill="#20F61F" sketch:type="MSShapeGroup"></path>
        </g>
    </g>
</svg>