<?xml version="1.0" encoding="UTF-8" standalone="no"?>
<svg width="389px" height="457px" viewBox="0 0 389 457" version="1.1" xmlns="http://www.w3.org/2000/svg" xmlns:xlink="http://www.w3.org/1999/xlink" xmlns:sketch="http://www.bohemiancoding.com/sketch/ns">
    <!-- Generator: Sketch 3.3.3 (12081) - http://www.bohemiancoding.com/sketch -->
    <title>Group</title>
    <desc>Created with Sketch.</desc>
    <defs></defs>
    <g id="Page-1" stroke="none" stroke-width="1" fill="none" fill-rule="evenodd" sketch:type="MSPage">
        <g id="Group" sketch:type="MSLayerGroup" fill="#20F61F">
            <path d="M281.558943,251.429685 C279.305542,269.839556 276.892325,287.529979 285.682187,304.580893 C288.998362,311.007961 285.658214,318.5142 287.080574,325.428893 C300.976546,322.295298 307.017579,325.189077 313.689883,338.171114 C314.249238,339.274268 315.256076,341.040912 314.840555,341.608476 C308.551809,350.249844 316.878205,354.238783 320.745744,359.059083 C328.129228,368.252028 337.006989,376.317838 340.954436,387.876967 C341.977256,390.88266 343.215827,393.98428 343.367652,397.085899 C343.631348,402.833488 346.20438,409.452409 339.316325,413.409372 C332.060694,417.574175 325.500261,416.023366 318.835947,411.370936 C314.616814,408.429194 312.754961,400.803047 306.777855,402.393826 C301.879505,403.696826 297.820187,408.285304 293.457219,411.506832 C274.958555,425.160353 255.732731,436.863372 231.408786,435.232623 C229.427072,435.096728 227.725035,435.43247 226.254731,437.039237 C206.781191,458.454801 182.449256,459.350114 156.575099,453.370703 C123.653072,445.760544 97.8108781,426.998942 74.7574679,402.953396 C51.3684449,378.540133 34.7955601,349.922096 21.259173,319.537415 C7.52301632,288.705077 -1.06707584,256.401869 0.738841208,222.060225 C1.52193798,207.143672 5.65317301,193.785924 20.1484541,187.294906 C29.265938,183.218034 39.1505371,178.757458 49.8422053,183.529795 C53.7896523,185.296439 57.377514,185.832028 56.8661039,179.364991 C56.6343712,176.447231 58.1765924,174.760525 61.4048689,174.432777 C69.0120947,173.681353 76.5793666,172.466286 84.1945831,171.77082 C92.3931269,171.011402 98.6658919,173.921169 104.011726,180.723948 C112.665744,191.755482 119.266132,191.363783 128.191837,180.763918 C138.779625,168.205556 153.570565,161.69855 167.378638,153.784623 C169.312408,152.68147 171.214214,151.394458 173.299809,150.67501 C182.39332,147.541415 180.667311,143.224728 175.952749,136.861611 C160.226887,115.645893 158.077367,92.5676049 168.097809,68.2422736 C170.191394,63.1661693 173.931081,58.5137399 168.968804,52.5583104 C166.795311,49.9523104 168.840952,45.6995743 170.25532,42.4940344 C171.837496,38.904789 172.548675,35.291562 172.508721,31.3745681 C172.356897,17.9128994 174.4345,15.0590896 187.890979,9.67122456 C189.680915,12.4450957 184.806537,16.6418749 189.73685,18.7442614 C194.091827,20.5988381 197.376039,18.3845374 199.917108,15.506746 C205.095136,9.65523683 211.216076,7.65677057 218.719422,9.44739634 C224.00133,10.710427 227.932795,8.76791781 231.209016,4.55515094 C235.819698,-1.36830305 241.732878,-0.840707956 247.526196,2.31686873 C263.387901,10.9742246 275.50992,23.268789 285.026943,38.8008687 C296.541661,57.5944454 293.329367,75.3568135 283.756408,93.1591509 C280.584067,99.0426356 277.843228,104.22266 279.121754,111.664948 C280.472196,119.50693 276.061284,126.37366 268.006574,128.468053 C259.60027,130.650378 254.582058,136.469912 248.189431,143.040869 C254.174528,146.214433 259.816021,148.780464 265.01003,152.065942 C269.740574,155.063642 272.001966,154.216292 275.438002,149.571856 C285.881956,135.470679 298.523376,123.935531 316.734371,120.682028 C347.538841,115.174255 372.134473,130.266672 381.235975,160.899163 C385.479081,175.168212 391.328334,189.30936 386.709661,204.94536 C384.775892,211.484341 382.810159,217.327856 377.927791,222.531863 C373.349072,227.40812 369.497514,231.189218 362.026132,230.229955 C357.607228,229.654396 355.513643,234.834421 352.636961,237.62428 C332.044712,257.62493 308.024417,262.557145 281.558943,251.429685 L281.558943,251.429685 Z M6.8597813,231.796752 C6.78786425,256.873507 14.1074219,280.487384 22.809385,303.429777 C41.3639841,352.328249 68.2689518,395.567065 111.930592,426.45536 C135.399523,443.058617 161.07391,451.931807 190.176344,448.974077 C200.260712,447.950863 209.506049,444.809274 217.217155,438.022482 C218.679468,436.73547 222.147468,434.137464 219.806168,433.042304 C213.285689,429.996642 210.560832,421.299317 200.708196,422.826145 C166.691431,428.11009 153.586546,415.223979 150.733837,385.310936 C148.416509,361.033568 154.960961,337.787409 158.836491,314.189519 C160.099035,306.507415 165.077293,299.504789 162.823892,291.119225 C159.395846,278.400985 158.133302,265.291047 158.484897,252.229071 C158.716629,243.43582 156.742906,241.445347 147.577477,242.564488 C124.172473,245.44228 103.3405,238.639501 86.8714956,221.196887 C83.6671914,217.799494 81.4217813,215.305409 76.1238919,215.529237 C69.7632283,215.793034 63.5703712,213.770587 59.0156246,208.478648 C55.3238827,204.185942 54.1971822,199.125826 47.1732836,195.968249 C27.0604818,186.935182 15.7774956,190.044795 8.74560619,211.828077 C6.65202093,218.311102 6.89174443,225.089899 6.8597813,231.796752 L6.8597813,231.796752 Z M268.222325,78.0027828 C264.019173,73.3183779 260.151634,68.4421203 265.641302,63.661789 C269.476878,60.3283473 271.770233,57.3066663 270.483717,52.4384025 C268.909532,46.4669853 264.011182,47.6340896 259.536344,47.6021141 C254.997579,47.5781325 248.716823,50.8156479 246.287625,45.5796663 C238.049127,27.7933166 218.935173,44.0768197 208.890758,32.9573534 C208.786878,32.8454393 208.203551,32.981335 208.011772,33.1651939 C200.556371,40.4396111 189.393247,43.7650589 183.20039,51.3032736 C154.785164,85.9007215 165.005376,132.920636 204.359984,154.104378 C205.686454,154.815832 207.78803,155.623212 207.963827,156.654421 C209.082537,163.185409 210.201247,164.480415 216.338168,164.16066 C223.985348,163.768961 230.73756,160.835212 235.755772,155.167562 C236.970371,153.784623 246.838989,150.107445 235.93956,147.349562 C234.541173,146.997832 235.140482,144.479764 236.059422,144.152016 C247.430307,140.027182 251.609486,125.470353 265.321671,124.439145 C270.036233,124.087415 273.751947,119.418998 273.320445,114.918452 C272.401505,105.477697 274.822712,94.8218749 266.112758,87.4035681 C260.958703,83.0149362 260.471265,79.6814945 268.222325,78.0027828 L268.222325,78.0027828 Z M243.634685,336.668268 C243.634685,329.002151 243.578749,321.336034 243.666648,313.669918 C243.698611,310.752157 244.561615,307.730476 239.623311,308.489893 C217.944316,311.815341 197.040426,307.770445 176.424205,301.463286 C172.484749,300.256212 170.878602,301.183501 170.023588,305.500188 C168.241643,314.565231 165.748519,323.494378 163.479136,332.455501 C158.580786,351.760685 155.344519,371.249728 157.941523,391.210409 C160.266841,409.052715 172.420823,417.742047 190.184334,415.407838 C197.823523,414.408605 201.147689,412.274243 196.776731,404.216427 C195.050721,401.026875 194.810998,396.846083 194.547302,393.072979 C193.084989,371.457568 198.894288,350.609568 201.627136,329.441814 C201.930786,327.083623 202.402242,322.599065 206.397634,324.061942 C210.161293,325.436887 207.644196,328.930206 206.956989,331.528212 C203.257256,345.501488 201.403394,359.762544 201.403394,374.167488 C201.403394,387.637151 202.745846,401.026875 210.369053,412.801838 C213.932943,418.293623 218.727413,424.233065 225.056113,423.897323 C231.400795,423.56158 231.680473,415.471789 233.470408,410.411672 C241.900685,386.557979 242.332187,361.569157 243.634685,336.668268 L243.634685,336.668268 Z M259.384519,156.302691 C248.612943,147.909133 248.612943,147.909133 240.574214,157.64566 C226.622307,174.544691 211.096214,174.856452 196.273311,158.540973 C194.555293,156.646427 193.076998,154.48009 191.127247,152.88931 C189.249413,151.362482 188.210611,147.173697 184.462933,149.963556 C182.752906,151.242574 179.780334,152.121899 180.163892,154.536047 C180.611376,157.325906 183.855634,157.861494 186.180952,158.652887 C192.533625,160.819225 197.248187,163.417231 194.435431,171.674893 C186.204924,195.896304 184.726629,221.045004 185.317947,246.345587 C185.629588,259.623396 186.005155,259.815249 172.580638,257.337151 C167.043026,256.313936 165.189164,257.345145 166.020205,263.372519 C167.154897,271.574225 167.554436,279.903832 167.858085,288.19347 C168.00192,291.902623 169.120629,294.00501 172.812371,295.092175 C193.428592,301.151525 214.156685,305.763985 235.93956,303.485734 C241.788814,302.870206 244.513671,301.271433 244.281938,294.964274 C243.970297,286.682629 244.122122,278.345028 244.70545,270.071378 C245.12097,264.187893 243.38697,261.853685 237.313975,262.756991 C224.121191,264.707494 222.68285,260.542691 222.818694,248.1522 C223.066408,226.448856 224.20909,204.809464 226.814085,183.194053 C228.036675,173.049838 232.67133,168.701175 241.589044,166.183108 C248.157468,164.328531 255.437072,163.161427 259.384519,156.302691 L259.384519,156.302691 Z M123.597136,206.008544 C118.403127,202.826985 122.989837,194.241574 117.220491,193.937807 C110.396362,193.578083 105.633855,191.611593 101.80627,186.351629 C101.071118,185.344402 100.327975,185.000666 98.7617813,185.528261 C87.4947767,189.30936 82.0450624,211.947985 91.7858274,219.166445 C109.325597,232.156476 129.110777,239.678703 151.652777,236.928814 C156.17556,236.369243 158.373026,234.458709 158.261155,229.574458 C158.093348,222.23609 158.189238,214.865746 158.796537,207.567347 C159.02827,204.833445 156.143597,199.58947 160.482592,199.661415 C165.037339,199.73336 162.871837,205.209157 163.031652,208.382721 C163.646943,220.813182 164.238261,233.251636 164.469993,245.69009 C164.653781,255.562513 172.948214,253.196329 177.838574,253.875807 C183.623901,254.691182 180.707265,248.919611 180.683293,246.193703 C180.507496,221.820409 182.688979,197.766869 188.706039,174.073053 C189.393247,171.363133 193.30074,167.01447 187.747145,165.239832 C181.802002,163.337292 178.677606,153.52882 170.534998,158.421065 C151.604832,169.788341 130.197523,178.821409 124.85968,203.922145 C124.675892,204.785482 123.908777,205.512924 123.597136,206.008544 L123.597136,206.008544 Z M299.442316,218.78274 C298.627256,211.036685 301.775625,207.439445 304.971938,203.922145 C306.705938,202.003617 308.471901,200.532746 306.32238,197.543041 C297.716307,185.592212 288.271201,174.448764 276.572694,165.383721 C274.582989,163.840906 273.248528,163.137445 271.658362,166.374961 C267.463201,174.920402 262.269191,182.874298 259.847984,192.339034 C255.62885,208.774421 253.231615,225.425642 252.05697,242.316679 C250.874334,259.319629 250.786436,259.327623 267.615026,256.297948 C268.246297,256.186034 268.869579,255.922237 269.49286,255.930231 C273.208574,255.994182 274.135505,253.3642 274.934583,250.494402 C275.957403,246.809231 273.288482,246.417531 270.851293,245.474255 C268.757708,244.666875 265.11391,244.395083 267.231468,240.590004 C268.685791,237.991998 270.835311,237.696225 273.711993,239.167096 C279.089791,241.900998 284.611422,244.435053 290.268897,246.529445 C311.955883,254.547292 336.695348,248.320071 351.19862,231.149249 C352.549062,229.550476 357.447413,226.856544 352.740841,224.778139 C340.395081,219.310335 337.182786,209.078188 337.166804,195.728433 C324.205754,203.474488 309.710473,205.552893 299.442316,218.78274 L299.442316,218.78274 Z M329.839256,126.149832 C311.156804,126.325697 299.706012,132.78474 280.360325,152.865329 C276.676574,156.678402 276.748491,158.237206 280.624021,161.45074 C292.658141,171.427083 304.620344,181.531329 312.914777,195.144881 C313.514085,196.120133 314.57686,197.239274 315.591689,197.43912 C319.27544,198.158568 340.946445,186.287679 343.071993,182.586519 C347.602767,174.712562 353.44403,168.637225 363.384565,169.252752 C367.699588,169.524544 371.583108,171.77082 372.070546,164.064734 C372.278307,160.811231 375.954067,158.149274 373.988334,153.201071 C367.595708,137.085439 344.86992,126.069893 329.839256,126.149832 L329.839256,126.149832 Z M257.906224,384.879268 C253.38344,386.613936 252.16085,391.570133 247.654049,389.595648 C245.456583,388.62839 244.937182,390.187194 244.873256,391.945844 C244.441754,403.888679 238.440675,414.312679 234.924731,425.983721 C238.248897,425.983721 240.805947,426.351439 243.227155,425.927764 C267.191514,421.778948 286.792906,408.844875 305.691108,394.575826 C307.864602,392.937083 308.479892,390.403028 308.735597,387.805022 C310.781238,366.765169 304.692261,349.010795 286.32944,333.814458 C284.963016,359.922421 262.668731,375.054807 260.718979,399.611961 C259.784058,399.276218 258.849136,398.940476 257.906224,398.604734 L257.906224,384.879268 L257.906224,384.879268 Z M280.152565,87.8911939 C289.645615,71.8634945 289.022334,48.2256356 278.442537,37.0342246 C270.747413,28.9044638 267.710915,15.6746172 253.822933,14.0198871 C252.608334,13.8759976 251.601496,11.8535497 250.538721,10.6704577 C242.380132,1.62140247 239.551394,1.53346996 231.880242,11.0301816 C228.236445,15.5467154 224.896297,18.3605558 219.246814,14.0518626 C214.899827,10.7424025 210.784574,12.6449424 207.060869,15.5467154 C203.792638,18.0807706 200.899975,21.1823902 197.400012,23.3167522 C192.69344,26.1945436 187.787099,26.937973 184.103348,21.3422675 C183.184408,19.951335 184.670694,16.9456417 181.809993,17.0255804 C179.22897,17.0895313 178.397929,19.6155927 177.69474,21.7179792 C176.568039,25.0754025 175.984712,28.480789 176.751827,32.0700344 C177.702731,36.5865681 182.345376,41.4228565 174.482445,45.0760528 C172.237035,46.1152552 172.668537,51.0634577 175.009837,54.1570835 C179.948141,51.4471632 178.997238,43.0376172 182.561127,43.5652123 C192.110113,44.9881203 195.34638,37.8815743 200.492445,33.1731877 C205.13509,28.9364393 209.857643,26.1785558 215.547081,31.2866356 C220.413468,35.6592798 224.952233,33.6528197 229.435062,30.7430528 C235.540021,26.7860896 241.125579,27.8332859 243.514823,34.4362184 C246.838989,43.6291632 252.959929,44.9801264 261.278334,43.6531448 C263.723514,43.2694393 266.44038,43.6131755 268.861588,44.2606785 C276.524749,46.2991141 280.416261,55.8677706 274.479108,60.5841509 C267.04768,66.5076049 270.148104,70.0808626 274.103542,75.4127706 C276.668583,78.882108 277.979072,83.2787338 280.152565,87.8911939 L280.152565,87.8911939 Z M267.279413,158.253194 C258.545486,165.335758 249.020473,170.22001 238.336795,172.642151 C234.293459,173.561445 233.806021,176.34331 233.142786,179.620795 C228.396261,202.930906 227.029837,226.432869 227.932795,250.190636 C228.236445,258.056599 232.183892,258.32839 238.336795,258.648145 C246.399496,259.07182 244.897228,254.06766 245.073026,249.391249 C245.848132,228.918961 249.212251,208.91831 254.126583,188.973617 C256.867422,177.862145 264.258897,169.404636 267.279413,158.253194 L267.279413,158.253194 Z M247.550168,381.282028 C248.333265,381.457893 248.740795,381.689715 248.940565,381.577801 C275.10239,365.781924 283.021256,330.353114 279.18568,302.214709 C278.842076,299.712629 277.515606,298.9692 275.326132,299.504789 C267.615026,301.407329 259.91191,303.37382 252.216786,305.34031 C250.211099,305.851918 250.163155,307.530629 250.235072,309.097427 C251.257892,333.246893 248.037606,357.268458 247.550168,381.282028 L247.550168,381.282028 Z M250.746482,282.150108 L250.562694,282.150108 C250.562694,283.429126 250.586666,284.708145 250.554703,285.979169 C250.211099,302.430544 250.243062,302.518476 266.12874,296.579034 C269.660666,295.260047 274.431164,295.180108 273.975689,288.89693 C273.400353,280.951028 273.704002,272.933182 273.815873,264.955304 C273.855827,262.005568 273.672039,260.574666 269.836463,260.534697 C252.752168,260.366826 251.193966,261.621863 250.754473,278.321047 C250.722509,279.592071 250.746482,280.87109 250.746482,282.150108 L250.746482,282.150108 Z M309.710473,356.988672 C312.523228,370.018672 320.378168,381.801629 313.641938,395.774906 C311.995837,399.204274 322.567643,407.741721 327.993385,407.525887 C334.577791,407.270083 336.471606,403.273151 335.784399,397.109881 C333.778712,379.291556 322.527689,367.636501 309.710473,356.988672 L309.710473,356.988672 Z M352.381256,204.969341 C360.260168,201.2442 356.864085,194.961022 358.406307,190.148715 C360.220214,184.473071 367.10827,184.209274 370.967818,180.524102 C371.742924,179.780672 372.438122,178.197887 372.166436,177.29458 C371.718952,175.775746 370.248648,175.368059 368.466703,175.088274 C356.088979,173.097801 347.682675,178.789433 344.26262,191.803445 C341.569726,202.05158 345.597081,212.691415 353.452021,216.840231 C359.173422,219.869906 361.123173,217.383814 360.98733,211.971967 C360.875459,207.663274 359.189403,204.417764 352.381256,204.969341 L352.381256,204.969341 Z M79.0964633,183.977452 C77.7939656,184.113347 77.0588136,184.441096 76.5953481,184.20128 C72.2323804,181.978985 66.4230808,176.543157 63.2667214,180.244317 C59.0875417,185.168537 67.3340301,187.798519 69.6753297,191.731501 C70.1627675,192.546875 70.8979195,193.274317 71.1536246,194.153642 C72.136491,197.559028 71.9047583,199.565488 67.4299195,197.750881 C64.7050624,196.647728 61.2210808,196.791617 60.2382145,199.965182 C59.3672191,202.803004 61.5966477,205.568881 64.1776707,206.895863 C67.2221592,208.46266 70.6102513,209.469887 73.9344172,210.413163 C79.3521684,211.963973 82.7722237,211.020697 83.0519011,204.145973 C83.2676523,198.917985 82.8840947,192.842648 87.7105278,189.181458 C92.4330808,185.600206 90.6111822,183.130102 87.0472928,180.779906 C83.7071454,178.573599 80.4309242,175.727783 75.9241223,177.110721 C75.1330348,180.284286 79.5119841,180.596047 79.0964633,183.977452 L79.0964633,183.977452 Z M384.336399,184.632948 C384.632058,181.09966 381.955145,181.067685 380.037357,181.84309 C374.875311,183.937482 369.833127,186.375611 364.950758,189.06155 C363.480454,189.86893 362.281837,191.843415 363.048952,193.953795 C363.752141,195.864329 365.310344,196.863562 367.268085,197.311218 C372.789717,198.566255 383.848961,190.372544 384.336399,184.632948 L384.336399,184.632948 Z M384.072703,194.825126 C380.47685,196.999458 378.22345,198.662182 375.730325,199.789317 C373.157293,200.956421 370.304583,201.507998 367.643652,202.507231 C366.061477,203.106771 363.400546,202.699083 363.576344,205.424991 C363.752141,208.062967 365.837735,208.91831 368.203007,209.357973 C375.67439,210.748906 380.684611,206.584102 384.072703,194.825126 L384.072703,194.825126 Z M295.670666,331.887936 C296.573625,337.25182 299.969708,340.20955 302.878353,343.41509 C304.084961,344.742071 305.267597,348.043537 307.832638,345.101795 C309.438786,343.2712 310.917081,341.032918 308.575781,338.466887 C305.331523,334.909617 301.615809,332.359574 295.670666,331.887936 L295.670666,331.887936 Z M381.204012,210.429151 C374.068242,213.330924 367.659634,211.820083 363.704196,218.07928 C371.59909,222.611801 376.121873,218.934623 381.204012,210.429151 L381.204012,210.429151 Z" id="Fill-3" sketch:type="MSShapeGroup"></path>
            <path d="M188.353862,116.368279 C201.522673,120.085427 214.44377,121.212562 228.93106,111.811776 C214.020258,109.621457 200.77953,118.294801 187.123281,108.981948 C196.69624,108.981948 204.726977,109.341672 212.701779,108.830065 C216.649226,108.582255 222.71423,110.428838 222.50647,102.562874 C222.434553,99.9328929 224.608046,101.243887 225.822645,102.035279 C234.220959,107.511077 235.56341,114.497715 229.226719,125.129555 C228.923069,116.568126 225.367171,117.375506 220.316995,120.301261 C208.658442,127.048083 197.247604,126.560457 186.5,118.023009 C187.11529,117.471433 187.738571,116.919856 188.353862,116.368279" id="Fill-254" sketch:type="MSShapeGroup"></path>
            <path d="M209.752905,71 C212.118177,74.7251411 209.329394,76.7156135 207.779182,78.8499755 C203.911643,84.1898773 196.592085,88.4905767 203.288362,96.5643804 C204.103422,97.5396319 203.520094,99.2982822 202.209606,99.6420184 C201.154823,99.9138098 199.548675,99.5700736 198.709643,98.8746074 C193.763348,94.7737546 191.174334,89.9374663 196.280445,84.3097853 C200.491588,79.6733436 205.190168,75.4765644 209.752905,71" id="Fill-255" sketch:type="MSShapeGroup"></path>
            <path d="M222.5,75.662666 C229.771613,71.689715 240.798894,75.2949482 242.764627,81.6340831 C243.395899,83.656531 242.245226,84.6317825 241.134507,85.5830525 C239.935889,86.6142611 238.026092,87.5095739 237.155097,85.5590709 C234.382295,79.3558316 228.165465,78.1807334 222.5,75.662666" id="Fill-256" sketch:type="MSShapeGroup"></path>
            <path d="M180.221424,110.088258 C183.186005,113.293798 180.525074,114.628773 178.127839,115.436153 C174.987461,116.491344 175.714622,113.437687 175.291111,111.998791 C173.964641,107.506239 173.924687,103.20554 178.199756,100 C183.146051,106.930681 183.146051,106.930681 181.923461,108.617387 C181.204291,108.345595 180.477129,108.073804 179.749968,107.802012 C179.909784,108.561429 180.069599,109.32884 180.221424,110.088258" id="Fill-257" sketch:type="MSShapeGroup"></path>
            <path d="M192.955457,69.44431 C191.972591,73.1614573 192.731715,78.0696904 187.841356,78.6532425 C184.772895,79.0129665 184.381346,75.2958192 184.525181,72.937629 C184.740932,69.2444634 184.980655,64.6559849 189.647273,64.0404573 C193.211162,63.5688192 192.460028,67.3339296 192.955457,69.44431" id="Fill-258" sketch:type="MSShapeGroup"></path>
            <path d="M244.745016,66.4980256 C239.247357,65.3948722 236.466564,62.1573569 233.294223,59.5353692 C231.168675,57.7767189 230.697219,55.9621115 233.166371,54.1155287 C235.29991,52.5167557 237.24167,52.4847802 238.703984,55.0188354 C240.685698,58.4641912 244.129726,61.1661176 244.745016,66.4980256" id="Fill-259" sketch:type="MSShapeGroup"></path>
            <path d="M185.990666,118.702973 C184.991818,117.847629 182.642528,117.192133 183.825164,115.729255 C185.31145,113.882672 186.661892,116.001047 187.844528,117.048243 C187.229238,117.59982 186.605957,118.151396 185.990666,118.702973" id="Fill-260" sketch:type="MSShapeGroup"></path>
            <path d="M180.971456,110.286245 C180.819631,109.526828 180.659816,108.759417 180.5,108 C181.227161,108.271791 181.954323,108.543583 182.673493,108.815374 C182.106147,109.303 181.538802,109.79862 180.971456,110.286245" id="Fill-325" sketch:type="MSShapeGroup"></path>
        </g>
    </g>
</svg>