<?xml version="1.0" encoding="UTF-8" standalone="no"?>
<svg width="345px" height="452px" viewBox="0 0 345 452" version="1.1" xmlns="http://www.w3.org/2000/svg" xmlns:xlink="http://www.w3.org/1999/xlink" xmlns:sketch="http://www.bohemiancoding.com/sketch/ns">
    <!-- Generator: Sketch 3.3.3 (12081) - http://www.bohemiancoding.com/sketch -->
    <title>Group</title>
    <desc>Created with Sketch.</desc>
    <defs></defs>
    <g id="Page-1" stroke="none" stroke-width="1" fill="none" fill-rule="evenodd" sketch:type="MSPage">
        <g id="Group" sketch:type="MSLayerGroup" fill="#20F61F">
            <path d="M222.240844,313.09187 C213.994356,325.06668 206.299231,325.586281 197.62124,314.762588 C187.712669,302.404072 187.512899,302.236201 197.645213,290.09352 C204.325508,282.083667 199.96254,274.257674 197.82101,266.623532 C195.655508,258.893465 190.181821,252.730195 185.595111,245.33587 C183.093996,249.164931 184.05289,252.914054 184.100835,256.383391 C184.476402,281.36422 183.805176,306.217146 176.725342,330.446551 C174.112356,339.415667 170.820153,348.033054 164.012005,354.771882 C160.607932,358.145293 159.87278,361.678582 162.166134,365.971287 C163.668402,368.777134 164.755148,371.798815 166.145545,374.668612 C168.630678,379.816661 170.092992,386.179778 174.064411,389.689085 C178.187655,393.334287 184.108826,388.633894 189.318816,388.154263 C199.826697,387.187005 203.710217,391.423753 200.689701,401.472042 C199.515056,405.373048 197.725121,409.377974 195.208024,412.543545 C186.450125,423.567085 176.429683,433.391545 165.290531,442.072882 C159.832826,446.333612 155.549766,446.669355 150.931093,440.64198 C140.263397,426.708674 128.732697,413.42287 118.496503,399.19379 C114.309333,393.374256 110.91325,392.399005 105.415591,396.276029 C105.871065,398.961968 108.619895,398.650207 110.361886,399.729379 C116.810448,403.718318 117.561581,410.017483 112.271683,415.669146 C104.816282,423.631036 90.2650653,424.598293 79.5973694,417.068072 C64.2870284,406.268361 58.5895998,390.21668 57.5028533,372.374373 C57.1672404,366.97052 60.3076183,362.390036 66.7801528,362.669821 C77.0563003,363.117477 81.1795445,354.268269 87.7719408,349.176177 C89.2742081,348.017066 88.2673694,346.22644 87.7080146,344.763563 C75.1225307,311.772882 73.228715,277.615097 76.6088164,242.881753 C76.6887243,242.066379 76.3611021,241.211036 76.0734339,239.468373 C64.374927,248.349557 57.4628994,260.052575 50.7186782,271.883496 C49.2963187,274.377582 48.2495261,277.143459 46.4915538,279.373747 C40.5943556,286.871993 42.2644293,292.411741 50.0634339,297.303986 C53.6512957,299.558256 58.8373141,302.164256 56.6398487,307.568109 C54.2186413,313.531532 48.5052312,311.844827 44.1502542,310.246054 C37.7496367,307.903851 37.9573971,311.413158 38.3249731,315.689876 C38.844374,321.733238 39.5235906,327.760612 39.7633141,333.811968 C39.8911667,337.169391 38.4368441,340.374931 35.008798,341.382158 C31.35701,342.453336 28.7600054,339.831348 27.3056828,336.985532 C23.4061805,329.383367 16.1505491,324.690968 9.97367357,320.086502 C1.65526804,313.875269 0.360761126,306.464956 0.0331390059,297.759637 C-0.550188183,282.339471 6.71343394,268.677956 10.3172773,254.233042 C23.8376828,200.018649 52.8602081,157.827029 107.133609,135.63606 C101.516088,129.984397 97.3768625,124.26079 89.5778579,122.39822 C81.7948349,120.543643 77.6635998,114.58022 78.3268349,106.730244 C78.8142726,100.894723 76.9843832,96.4661214 74.3314432,91.6138453 C66.7242173,77.7205079 62.936586,62.3962687 67.4993233,47.2478944 C72.2538395,31.4759987 81.5950653,17.9343914 97.24901,10.1323791 C99.4864293,9.02123185 101.468144,7.3185386 103.417895,5.71177173 C112.687204,-1.93036324 116.155204,-1.93036324 124.841185,5.87164903 C125.080909,6.08748338 125.272687,6.43121958 125.552365,6.51115823 C137.530549,10.0284588 149.540697,12.746373 160.687839,19.4292441 C165.961757,22.5948147 163.500595,13.7535999 165.122724,10.6759619 C175.702521,14.0813484 179.897683,19.6290907 178.978743,30.1809926 C178.683084,33.5623975 180.433065,36.5680907 180.17736,39.3739374 C178.44336,58.6151705 189.750319,75.7300355 188.855351,94.7234588 C188.104217,110.807115 183.469563,125.45987 171.842973,137.658508 C202.487627,162.319582 218.605038,195.789894 229.880033,231.85022 C234.490715,246.614888 237.407351,262.162956 238.957563,277.575128 C240.403895,292.020042 236.136816,305.353809 222.09701,313.251747 C220.810494,309.686483 224.414337,308.68725 225.77277,306.616839 C235.465591,291.844177 238.270356,276.46398 230.367471,258.01414 C227.562706,265.784177 222.520521,269.49333 216.743185,272.219238 C213.035462,273.969894 211.525204,276.392036 214.465812,279.541618 C218.860743,284.273986 215.76831,288.302894 214.186134,292.715508 C212.883637,296.352717 208.272955,301.660643 212.068577,303.51522 C216.511452,305.689551 220.283102,300.085851 222.784217,295.913054 C225.109535,292.020042 226.475959,287.815269 226.17231,283.146851 C226.036466,280.964526 225.940577,278.494422 229.168853,278.206643 C233.635701,293.243103 224.566162,305.929367 206.850595,309.406698 C206.714752,304.314606 206.227314,299.046649 208.872263,294.466164 C212.20442,288.702588 211.405342,283.138858 209.407646,277.287348 C208.824319,275.584655 209.503535,272.970661 206.770687,273.29841 C204.085784,273.626158 202.975065,276.424011 203.925968,278.390502 C207.81748,286.424336 202.82324,290.709048 197.669185,295.257557 C195.863268,296.85633 193.985434,301.380858 195.399803,301.372864 C202.687397,301.308913 199.091545,304.770256 198.819858,308.215612 C198.444291,313.043907 202.983056,310.142134 205.188512,311.077416 C204.317517,317.672355 207.146254,318.991342 213.051443,317.064821 C216.27972,316.017624 218.1176,311.900784 222.240844,313.09187 L222.240844,313.09187 Z M181.871406,397.547054 C177.444512,390.81622 174.296144,397.099397 171.499369,399.065888 C166.441204,402.623158 164.954918,409.657759 158.817996,413.798582 C157.787185,407.331545 164.731176,405.101256 164.627296,399.825305 C146.799858,407.307563 137.290826,418.514962 152.345462,434.51868 C159.361369,424.40644 166.345314,414.182287 173.513047,404.102023 C175.103213,401.863741 176.717351,399.217772 180.129416,399.281723 C179.074632,406.987809 173.201406,411.760146 169.110125,417.643631 C167.511968,419.93787 162.845351,422.703747 166.273397,425.125888 C168.822457,426.940496 173.976512,428.723128 177.660263,425.117894 C183.301757,419.594134 189.798263,414.781827 193.529959,407.61133 C195.791351,403.254674 199.890623,397.666962 195.903222,393.837901 C192.930651,390.992085 187.688697,394.805158 184.220697,397.730913 C183.23783,398.562275 182.614549,398.050667 181.871406,397.547054 L181.871406,397.547054 Z M94.0447058,77.4487165 C84.4557657,84.051649 85.2068994,94.6275325 82.9614892,103.948379 C81.3393602,110.695201 85.9979869,118.145483 93.1017934,118.657091 C98.3517381,119.032802 101.252392,121.470931 103.945286,125.132121 C107.429268,129.856496 111.768263,133.437747 117.201996,135.787944 C119.89489,136.955048 122.923397,138.154128 123.179102,141.975195 C119.846945,143.533999 117.817286,139.017465 114.748826,140.967968 C115.068457,141.831305 115.19631,142.830539 115.723701,143.533999 C119.743065,148.91387 125.424512,151.687741 131.713259,153.350465 C135.748604,154.421643 135.90842,154.237784 143.092134,148.370287 C143.499664,148.034545 144.322715,148.218404 144.953987,148.130471 C167.695757,144.805023 184.100835,116.618655 184.028918,96.3781889 C183.972982,83.0524159 182.167065,70.3341766 175.302982,58.6311582 C174.400024,57.0803484 171.571286,53.7389128 174.743627,53.3791889 C180.600872,52.7077042 178.483314,46.9121521 178.203637,46.7123055 C169.621535,40.6529558 177.412549,32.3393361 175.095222,25.5525447 C174.096374,22.6267901 173.992494,19.2693668 170.005093,17.2629067 C168.327028,21.2998085 166.537093,25.4726061 161.247194,25.3047349 C156.276927,25.1368638 153.3523,21.5396245 150.004162,18.6378515 C145.928863,15.1045631 141.709729,10.0924098 135.90842,13.4498331 C128.445028,17.7825079 125.032964,14.0413791 121.373185,8.48564289 C118.240798,3.71330547 113.286512,0.611685838 108.995462,5.86365516 C100.940752,15.7200907 88.5550376,19.3333177 80.6281805,30.9324159 C69.7926782,46.7842503 69.4251021,61.3170969 73.3485768,77.8164343 C74.8508441,84.1635631 82.4740514,85.8582625 87.4203464,81.2777779 C89.1543464,79.6790049 89.8095906,76.8731582 94.0447058,77.4487165 L94.0447058,77.4487165 Z M98.6154339,217.357342 C94.7798579,224.184103 89.4659869,226.134606 85.2708256,229.340146 C82.2982542,231.618397 81.8587611,234.400263 82.6258763,237.821637 C83.4249547,241.362919 85.7902266,242.042397 88.9545768,242.218263 C99.7900791,242.825796 110.617591,243.489287 121.429121,244.392594 C125.664236,244.744324 126.886826,243.121569 127.070614,239.076674 C128.133388,215.7186 127.23842,192.504416 123.322936,169.402146 C122.475913,164.413974 120.102651,162.575385 115.555895,161.520195 C108.052549,159.769539 100.836872,156.803815 95.1394432,151.527864 C91.7193879,148.370287 89.3301436,149.329551 86.0938763,151.240085 C70.7515722,160.329109 57.9982819,172.199999 47.4904017,186.540993 C30.6378395,209.55533 20.6493602,235.671287 13.1140514,262.87441 C10.1334892,273.634152 16.9895814,284.993434 27.9689178,287.575453 C33.4106413,288.846477 37.2781805,288.19098 39.9231298,281.843851 C48.8967796,260.276404 61.9457289,241.618723 81.2035169,227.741373 C86.1897657,224.152128 89.8894985,218.580404 98.6154339,217.357342 L98.6154339,217.357342 Z M139.736005,419.106508 C143.531627,407.179661 151.178807,399.145827 161.30313,396.308005 C169.557609,394.005772 166.864715,391.399772 164.898982,386.86725 C152.713038,358.784802 146.168586,329.311422 143.691443,298.902759 C142.508807,284.393894 142.748531,284.409882 128.788632,284.042164 C125.927932,283.962226 123.075222,283.538551 120.214521,283.282747 C106.462383,282.059686 93.9248441,276.903643 81.4991759,270.308704 C84.152116,338.032729 101.556042,374.061078 139.736005,419.106508 L139.736005,419.106508 Z M131.577416,213.344422 C131.577416,217.173483 131.537462,221.010539 131.585406,224.8396 C131.641342,228.668661 131.849102,232.497723 131.889056,236.326784 C132.000927,247.078532 129.156208,250.340029 118.272761,249.668545 C109.08336,249.092986 100.013821,246.854704 90.8244201,246.023342 C87.5881528,245.735563 81.5551114,242.122336 81.2115077,247.374305 C80.8519224,253.00998 76.9843832,259.868717 83.4329455,265.160655 C105.479517,283.274753 150.092061,285.033404 173.84866,268.550054 C178.906826,265.040747 182.558614,250.467931 179.825766,245.279913 C179.026687,243.761078 177.708208,243.53725 176.70936,244.016882 C167.903517,248.253631 167.495987,241.682674 167.799637,236.406723 C169.26195,210.954256 165.010853,186.125312 160.160448,161.376305 C159.185572,156.420109 159.417305,153.486361 164.643277,152.007496 C166.992568,151.344005 169.997102,150.656532 169.717425,147.36306 C169.605554,146.076048 168.175204,144.413324 166.91266,143.813784 C163.388724,142.143066 161.774586,145.324624 160.136475,147.387042 C156.093139,152.47114 151.961904,157.0836 145.049876,158.28268 C131.042033,160.720809 120.102651,155.804582 111.416669,144.964901 C109.834494,142.990416 109.49089,138.753667 105.31171,141.223772 C102.642789,142.798563 98.2238855,142.902483 97.6805123,146.219937 C97.0971851,149.737238 101.220429,150.928324 103.753508,152.567066 C107.788853,155.189054 112.23972,157.163539 117.002227,157.763078 C122.65171,158.466539 125.088899,161.79998 126.503268,166.868091 C130.754365,182.096404 131.577416,197.668453 131.577416,213.344422 L131.577416,213.344422 Z M190.189812,189.027085 C190.98889,189.146993 191.787968,189.258907 192.587047,189.370821 C191.316512,195.510109 189.958079,201.625416 188.815397,207.780692 C187.600798,214.375631 186.737793,221.03452 185.451277,227.613471 C184.732107,231.298643 185.27548,234.304336 187.528881,237.437931 C193.33019,245.503741 197.541333,254.45687 201.49677,263.553888 C202.423701,265.696244 202.583517,268.390177 205.891701,269.173575 C216.679259,271.723618 231.07066,258.581704 228.345803,247.813968 C219.468042,212.76087 205.771839,179.994017 180.848586,152.974753 C179.426227,151.431937 177.572365,145.668361 174.967369,149.889121 C171.882927,154.885287 161.383038,152.694968 163.628448,161.576152 C169.861259,186.165281 174.216236,210.906293 172.194568,236.42271 C172.066715,238.085434 171.115812,240.68344 174.208245,240.523563 C176.597489,240.403655 179.625996,240.451618 180.233296,237.086201 C180.576899,235.223631 180.337176,233.25714 180.528955,231.3546 C181.967296,216.805766 184.804024,202.608661 190.189812,189.027085 L190.189812,189.027085 Z M158.274623,353.404931 C178.115738,327.488821 176.653425,298.65495 180.225305,269.429379 C169.997102,275.968361 160.160448,279.437698 149.972199,281.859839 C146.92771,282.587281 145.689139,283.778367 146.184568,287.063845 C149.452798,308.47941 150.587489,330.27868 158.274623,353.404931 L158.274623,353.404931 Z M33.6263925,337.057477 C36.2873233,329.655158 34.345563,323.651766 34.2177104,317.664361 C34.1298118,313.235759 31.0533602,307.919839 33.9540146,304.642355 C37.9573971,300.141809 41.465351,306.960575 45.5806044,307.296318 C47.1627796,307.42422 48.7529455,307.688017 50.3271298,307.600085 C51.8293971,307.52814 52.9241344,305.6256 52.0930929,305.121986 C46.4595906,301.740582 42.9116828,292.907361 38.0053418,292.747483 C24.42101,292.323809 14.0809362,288.670612 7.92004223,275.232925 C5.69860444,288.974379 1.89499154,301.916447 10.2773233,315.569968 C12.9702173,309.246821 7.23283486,304.274637 11.9074432,298.870784 C16.1345676,307.767956 12.5866597,318.999336 22.7509362,326.129864 C23.6299224,317.488496 18.5477842,311.021459 21.8559685,303.0196 C28.3285031,313.787336 23.1744478,327.512802 33.6263925,337.057477 L33.6263925,337.057477 Z M95.5629547,399.817312 C80.3564938,397.882796 72.4855722,388.657876 70.8634432,373.477526 C70.5677842,370.727637 73.3166137,365.531624 67.1317473,366.035238 C62.5130745,366.41095 61.3224478,369.816336 61.5142266,374.33287 C62.2333971,391.119986 70.5518026,403.894183 82.7617197,414.342164 C88.3312957,419.106508 102.594844,418.107275 108.108485,413.734631 C111.248863,411.240545 112.679213,407.923091 110.793388,404.525698 C109.027425,401.328152 105.687277,401.823772 102.331148,402.862974 C98.3517381,404.094029 95.2273418,408.690502 90.2570745,406.340305 C89.9694063,402.343373 95.5949178,404.05406 95.5629547,399.817312 L95.5629547,399.817312 Z M91.2319501,353.205085 C87.9077842,355.779109 85.1749362,358.481036 81.938669,360.287649 C74.4033602,364.516404 73.3166137,370.703655 75.554033,378.257858 C80.0368625,393.38225 88.7228441,397.18733 103.226116,391.343815 C109.666687,388.745809 109.650706,386.171784 106.11878,381.079692 C100.149664,372.470299 94.4762081,363.621091 91.2319501,353.205085 L91.2319501,353.205085 Z M171.227683,430.385851 C167.104439,430.154029 163.412697,425.781385 159.936706,430.193999 C157.459563,433.343582 155.294061,437.276563 158.434439,441.777109 C163.796254,438.73944 168.111277,435.765723 171.227683,430.385851 L171.227683,430.385851 Z" id="Fill-8" sketch:type="MSShapeGroup"></path>
            <path d="M292.446596,390.241476 C283.81655,395.693292 279.245822,403.871016 275.993573,413.343746 C273.732181,419.914703 269.856651,425.92609 266.892071,432.265225 C264.686614,437.005587 260.427527,438.484452 256.807702,436.014348 C253.32372,433.64017 256.024605,429.755151 257.942393,426.725476 C259.085075,424.910869 261.68208,424.111483 261.58619,421.321624 C255.960679,420.418317 252.340854,422.352832 247.594329,426.221863 C240.546458,431.961458 233.794246,441.737955 221.824052,436.941636 C218.715637,435.694593 218.244181,438.828188 217.00561,440.394986 C213.122089,445.303219 208.183785,448.508759 202.374485,450.78701 C199.266071,452.002078 197.500107,450.9309 195.877978,448.708605 C193.808366,445.854795 195.806061,443.992225 197.667914,442.177617 C198.123389,441.729961 198.64279,441.218354 199.218126,441.058476 C217.556974,436.046323 212.738531,422.025084 211.49996,409.44274 C211.156356,405.949421 210.429195,402.504065 210.109564,399.01874 C209.590163,393.35109 212.203149,392.072071 217.00561,394.494213 C223.270384,397.651789 231.620753,395.309587 233.770273,388.826562 C236.646955,380.161213 241.761057,373.774114 249.400246,369.025759 C251.190181,367.906617 252.828292,366.076022 253.819149,364.197464 C264.13525,344.612495 279.972983,333.780808 302.219324,331.374654 C318.872117,329.568041 329.21219,318.112832 334.430172,303.428102 C339.184688,290.054366 331.984992,279.310611 316.378992,270.357483 C313.574227,268.742722 306.334578,269.326274 309.331121,263.099053 C312.303693,256.903808 317.194052,261.64417 320.781914,263.234949 C348.414043,275.449575 353.032716,304.659157 330.690485,325.163421 C328.812651,326.890096 326.950799,328.784642 324.745342,329.967734 C315.044531,335.155752 309.259204,340.335777 316.187213,353.006053 C320.853831,361.559489 314.045684,370.776415 309.754633,378.938151 C306.941877,384.286047 302.155398,389.458078 311.344799,393.534949 C313.270578,394.382298 312.823094,396.828421 312.58337,398.77093 C311.161011,410.386016 302.78667,417.828305 295.986513,426.165906 C294.907757,427.500881 292.334725,427.796654 290.680633,426.405722 C288.858734,424.8709 288.355315,422.376814 288.842753,420.282421 C289.242292,418.60371 290.824467,417.148826 292.039066,415.725918 C301.683942,404.406605 301.723895,402.384157 292.446596,390.241476" id="Fill-9" sketch:type="MSShapeGroup"></path>
            <path d="M129.534708,111.796644 C125.771049,111.820626 125.707122,115.074129 124.548459,117.967908 C120.58503,112.556061 119.25856,107.431994 124.164901,102.483791 C126.338394,100.285479 127.025602,92.6673252 132.699058,101.428601 C137.693297,109.126693 166.292311,104.794018 172.724892,97 C179.43715,104.61016 178.406339,105.577417 170.375602,111.317012 C158.045823,120.118258 145.660109,120.270141 132.403399,115.09811 C131.060947,114.578509 128.376044,114.482583 129.326947,111.612785 C134.624837,110.557595 139.011777,113.851067 143.918118,114.714405 C154.713666,116.608951 164.126809,113.395417 169.448671,105.185718 C156.943095,109.53438 144.693224,108.607092 132.403399,106.664583 C130.773279,106.408779 128.376044,104.865963 127.537012,107.144215 C127.1135,108.295331 128.799556,110.221853 129.534708,111.796644" id="Fill-311" sketch:type="MSShapeGroup"></path>
            <path d="M149.820348,34.9141961 C138.785076,32.1723004 127.877657,37.5122022 116.770468,35.5776869 C115.515915,35.3618525 113.246532,38.1836869 112.191749,40.0222758 C109.04338,45.5300488 104.896164,46.7291286 98.7272789,45.402147 C94.0446798,44.39492 88.0835554,43.3796991 85.2228549,49.1672574 C82.3861268,54.8988586 86.9808273,57.42492 90.8323849,60.4785764 C95.3232051,64.0438402 90.1931222,65.362828 88.5470208,67.4172513 C88.1394908,66.7697482 87.7239701,66.1142513 87.3164402,65.4667482 C83.5687627,59.3274599 76.8165508,53.8676501 81.7228918,45.5060672 C86.6851683,37.0565519 93.9727627,41.6530243 100.557168,42.7162083 C105.151869,43.4596378 107.972615,41.0135151 109.482873,37.1764599 C113.006809,28.1993494 118.056984,24.8739016 126.726984,31.4528525 C130.522606,34.3306439 134.414118,33.6511654 138.177777,30.9412451 C143.124071,27.3919691 147.622883,27.8955826 151.410514,32.843785 C150.883122,33.5312574 150.35573,34.2267237 149.820348,34.9141961" id="Fill-312" sketch:type="MSShapeGroup"></path>
            <path d="M142.43451,65 C146.765515,71.5389816 152.766593,76.5031718 157.577045,82.4665951 C160.58957,86.1997301 158.296215,90.2766012 155.291681,93.4421718 C154.16498,94.6332577 152.510888,95.1928282 150.968667,94.3694601 C149.066861,93.3622331 149.554298,91.6675337 150.609082,90.4124969 C155.243736,84.9127178 151.368206,81.2994908 148.028059,77.3665092 C145.119414,73.9371411 140.572658,71.3151534 142.43451,65" id="Fill-313" sketch:type="MSShapeGroup"></path>
            <path d="M163.749775,62 C167.177821,64.070411 167.641286,67.4917853 167.433526,71.0090859 C167.329646,72.7757301 166.874171,75.4776564 164.468945,74.9420675 C160.225839,73.9987914 159.858263,70.233681 160.034061,66.6284479 C160.145932,64.3981595 160.705286,62.2158344 163.749775,62" id="Fill-314" sketch:type="MSShapeGroup"></path>
            <path d="M123.151908,68 C126.731779,69.9904724 127.642729,73.2679571 127.490904,76.7772638 C127.403005,78.7997117 126.915567,82.0132454 124.206692,81.4296933 C120.067466,80.5343804 119.971577,76.5614294 120.00354,73.0681104 C120.019521,70.845816 120.570885,68.7754049 123.151908,68" id="Fill-315" sketch:type="MSShapeGroup"></path>
            <path d="M151.590166,33 C156.824129,37.4765644 160.715641,43.7757301 168.298894,45.1826503 C159.157438,47.1251595 154.299041,41.6013988 150,35.070411 C150.535382,34.3829387 151.062774,33.6874724 151.590166,33" id="Fill-316" sketch:type="MSShapeGroup"></path>
            <path d="M112.137924,62.1520647 C111.490671,56.7641996 113.056865,52.7432855 118.21092,51.1205309 C119.888984,50.584942 121.806772,51.9279113 121.742846,53.3028561 C121.487141,59.0344573 115.014606,58.5947947 112.137924,62.1520647" id="Fill-317" sketch:type="MSShapeGroup"></path>
            <path d="M204.197892,311.126059 C203.46274,308.943734 204.909072,308.975709 206.347413,309.007685 C205.955864,310.038893 206.571155,312.093317 204.197892,311.126059" id="Fill-321" sketch:type="MSShapeGroup"></path>
            <path d="M181.175334,397.036251 C181.902495,399.178607 181.766652,400.449631 179.057776,399.154625 C178.770108,397.451932 179.569186,396.836404 181.175334,397.036251" id="Fill-322" sketch:type="MSShapeGroup"></path>
        </g>
    </g>
</svg>